  0
SECTION
  2
HEADER
  9
$ACADVER
  1
AC1015
  9
$ACADMAINTVER
 70
     6
  9
$DWGCODEPAGE
  3
ANSI_1252
  9
$INSBASE
 10
0.0
 20
0.0
 30
0.0
  9
$EXTMIN
 10
1.000000E+20
 20
1.000000E+20
 30
1.000000E+20
  9
$EXTMAX
 10
-1.000000E+20
 20
-1.000000E+20
 30
-1.000000E+20
  9
$LIMMIN
 10
0.0
 20
0.0
  9
$LIMMAX
 10
420.0
 20
297.0
  9
$ORTHOMODE
 70
     0
  9
$REGENMODE
 70
     1
  9
$FILLMODE
 70
     1
  9
$QTEXTMODE
 70
     0
  9
$MIRRTEXT
 70
     1
  9
$LTSCALE
 40
1.0
  9
$ATTMODE
 70
     1
  9
$TEXTSIZE
 40
2.5
  9
$TRACEWID
 40
1.0
  9
$TEXTSTYLE
  7
Standard
  9
$CLAYER
  8
0
  9
$CELTYPE
  6
ByLayer
  9
$CECOLOR
 62
   256
  9
$CELTSCALE
 40
1.0
  9
$DISPSILH
 70
     0
  9
$DIMSCALE
 40
1.0
  9
$DIMASZ
 40
2.5
  9
$DIMEXO
 40
0.625
  9
$DIMDLI
 40
3.75
  9
$DIMRND
 40
0.0
  9
$DIMDLE
 40
0.0
  9
$DIMEXE
 40
1.25
  9
$DIMTP
 40
0.0
  9
$DIMTM
 40
0.0
  9
$DIMTXT
 40
2.5
  9
$DIMCEN
 40
2.5
  9
$DIMTSZ
 40
0.0
  9
$DIMTOL
 70
     0
  9
$DIMLIM
 70
     0
  9
$DIMTIH
 70
     0
  9
$DIMTOH
 70
     0
  9
$DIMSE1
 70
     0
  9
$DIMSE2
 70
     0
  9
$DIMTAD
 70
     1
  9
$DIMZIN
 70
     8
  9
$DIMBLK
  1

  9
$DIMASO
 70
     1
  9
$DIMSHO
 70
     1
  9
$DIMPOST
  1

  9
$DIMAPOST
  1

  9
$DIMALT
 70
     0
  9
$DIMALTD
 70
     3
  9
$DIMALTF
 40
0.03937
  9
$DIMLFAC
 40
1.0
  9
$DIMTOFL
 70
     1
  9
$DIMTVP
 40
0.0
  9
$DIMTIX
 70
     0
  9
$DIMSOXD
 70
     0
  9
$DIMSAH
 70
     0
  9
$DIMBLK1
  1

  9
$DIMBLK2
  1

  9
$DIMSTYLE
  2
ISO-25
  9
$DIMCLRD
 70
     0
  9
$DIMCLRE
 70
     0
  9
$DIMCLRT
 70
     0
  9
$DIMTFAC
 40
1.0
  9
$DIMGAP
 40
0.625
  9
$DIMJUST
 70
     0
  9
$DIMSD1
 70
     0
  9
$DIMSD2
 70
     0
  9
$DIMTOLJ
 70
     0
  9
$DIMTZIN
 70
     8
  9
$DIMALTZ
 70
     0
  9
$DIMALTTZ
 70
     0
  9
$DIMUPT
 70
     0
  9
$DIMDEC
 70
     2
  9
$DIMTDEC
 70
     2
  9
$DIMALTU
 70
     2
  9
$DIMALTTD
 70
     3
  9
$DIMTXSTY
  7
Standard
  9
$DIMAUNIT
 70
     0
  9
$DIMADEC
 70
     0
  9
$DIMALTRND
 40
0.0
  9
$DIMAZIN
 70
     0
  9
$DIMDSEP
 70
    44
  9
$DIMATFIT
 70
     3
  9
$DIMFRAC
 70
     0
  9
$DIMLDRBLK
  1

  9
$DIMLUNIT
 70
     2
  9
$DIMLWD
 70
    -2
  9
$DIMLWE
 70
    -2
  9
$DIMTMOVE
 70
     0
  9
$LUNITS
 70
     2
  9
$LUPREC
 70
     4
  9
$SKETCHINC
 40
1.0
  9
$FILLETRAD
 40
10.0
  9
$AUNITS
 70
     0
  9
$AUPREC
 70
     0
  9
$MENU
  1
.
  9
$ELEVATION
 40
0.0
  9
$PELEVATION
 40
0.0
  9
$THICKNESS
 40
0.0
  9
$LIMCHECK
 70
     0
  9
$CHAMFERA
 40
10.0
  9
$CHAMFERB
 40
10.0
  9
$CHAMFERC
 40
20.0
  9
$CHAMFERD
 40
0.0
  9
$SKPOLY
 70
     0
  9
$TDCREATE
 40
2457609.72253081
  9
$TDUCREATE
 40
2457609.84753081
  9
$TDUPDATE
 40
2457609.722530822
  9
$TDUUPDATE
 40
2457609.847530822
  9
$TDINDWG
 40
0.0000000116
  9
$TDUSRTIMER
 40
0.0000000116
  9
$USRTIMER
 70
     1
  9
$ANGBASE
 50
0.0
  9
$ANGDIR
 70
     0
  9
$PDMODE
 70
     3
  9
$PDSIZE
 40
-1.0
  9
$PLINEWID
 40
0.0
  9
$SPLFRAME
 70
     0
  9
$SPLINETYPE
 70
     6
  9
$SPLINESEGS
 70
     8
  9
$HANDSEED
  5
212
  9
$SURFTAB1
 70
     6
  9
$SURFTAB2
 70
     6
  9
$SURFTYPE
 70
     6
  9
$SURFU
 70
     6
  9
$SURFV
 70
     6
  9
$UCSBASE
  2

  9
$UCSNAME
  2

  9
$UCSORG
 10
0.0
 20
0.0
 30
0.0
  9
$UCSXDIR
 10
1.0
 20
0.0
 30
0.0
  9
$UCSYDIR
 10
0.0
 20
1.0
 30
0.0
  9
$UCSORTHOREF
  2

  9
$UCSORTHOVIEW
 70
     0
  9
$UCSORGTOP
 10
0.0
 20
0.0
 30
0.0
  9
$UCSORGBOTTOM
 10
0.0
 20
0.0
 30
0.0
  9
$UCSORGLEFT
 10
0.0
 20
0.0
 30
0.0
  9
$UCSORGRIGHT
 10
0.0
 20
0.0
 30
0.0
  9
$UCSORGFRONT
 10
0.0
 20
0.0
 30
0.0
  9
$UCSORGBACK
 10
0.0
 20
0.0
 30
0.0
  9
$PUCSBASE
  2

  9
$PUCSNAME
  2

  9
$PUCSORG
 10
0.0
 20
0.0
 30
0.0
  9
$PUCSXDIR
 10
1.0
 20
0.0
 30
0.0
  9
$PUCSYDIR
 10
0.0
 20
1.0
 30
0.0
  9
$PUCSORTHOREF
  2

  9
$PUCSORTHOVIEW
 70
     0
  9
$PUCSORGTOP
 10
0.0
 20
0.0
 30
0.0
  9
$PUCSORGBOTTOM
 10
0.0
 20
0.0
 30
0.0
  9
$PUCSORGLEFT
 10
0.0
 20
0.0
 30
0.0
  9
$PUCSORGRIGHT
 10
0.0
 20
0.0
 30
0.0
  9
$PUCSORGFRONT
 10
0.0
 20
0.0
 30
0.0
  9
$PUCSORGBACK
 10
0.0
 20
0.0
 30
0.0
  9
$USERI1
 70
     0
  9
$USERI2
 70
     0
  9
$USERI3
 70
     0
  9
$USERI4
 70
     0
  9
$USERI5
 70
     0
  9
$USERR1
 40
0.0
  9
$USERR2
 40
0.0
  9
$USERR3
 40
0.0
  9
$USERR4
 40
0.0
  9
$USERR5
 40
0.0
  9
$WORLDVIEW
 70
     1
  9
$SHADEDGE
 70
     3
  9
$SHADEDIF
 70
    70
  9
$TILEMODE
 70
     1
  9
$MAXACTVP
 70
    64
  9
$PINSBASE
 10
0.0
 20
0.0
 30
0.0
  9
$PLIMCHECK
 70
     0
  9
$PEXTMIN
 10
1.000000E+20
 20
1.000000E+20
 30
1.000000E+20
  9
$PEXTMAX
 10
-1.000000E+20
 20
-1.000000E+20
 30
-1.000000E+20
  9
$PLIMMIN
 10
0.0
 20
0.0
  9
$PLIMMAX
 10
420.0
 20
297.0
  9
$UNITMODE
 70
     0
  9
$VISRETAIN
 70
     1
  9
$PLINEGEN
 70
     0
  9
$PSLTSCALE
 70
     1
  9
$TREEDEPTH
 70
  3020
  9
$CMLSTYLE
  2
Standard
  9
$CMLJUST
 70
     0
  9
$CMLSCALE
 40
1.0
  9
$PROXYGRAPHICS
 70
     1
  9
$MEASUREMENT
 70
     1
  9
$CELWEIGHT
370
    -1
  9
$ENDCAPS
280
     0
  9
$JOINSTYLE
280
     0
  9
$LWDISPLAY
290
     0
  9
$INSUNITS
 70
     4
  9
$HYPERLINKBASE
  1

  9
$STYLESHEET
  1

  9
$XEDIT
290
     1
  9
$CEPSNTYPE
380
     0
  9
$PSTYLEMODE
290
     1
  9
$FINGERPRINTGUID
  2
{AA690C2D-5DE7-422A-AAEF-41F893C44A31}
  9
$VERSIONGUID
  2
{FAEB1C32-E019-11D5-929B-00C0DF256EC4}
  9
$EXTNAMES
290
     1
  9
$PSVPSCALE
 40
0.0
  9
$OLESTARTUP
290
     0
  0
ENDSEC
  0
SECTION
  2
CLASSES
  0
CLASS
  1
ACDBDICTIONARYWDFLT
  2
AcDbDictionaryWithDefault
  3
ObjectDBX Classes
 90
        0
280
     0
281
     0
  0
CLASS
  1
VISUALSTYLE
  2
AcDbVisualStyle
  3
ObjectDBX Classes
 90
     4095
280
     0
281
     0
  0
CLASS
  1
DICTIONARYVAR
  2
AcDbDictionaryVar
  3
ObjectDBX Classes
 90
        0
280
     0
281
     0
  0
CLASS
  1
ACDBPLACEHOLDER
  2
AcDbPlaceHolder
  3
ObjectDBX Classes
 90
        0
280
     0
281
     0
  0
CLASS
  1
LAYOUT
  2
AcDbLayout
  3
ObjectDBX Classes
 90
        0
280
     0
281
     0
  0
ENDSEC
  0
SECTION
  2
TABLES
  0
TABLE
  2
VPORT
  5
8
330
0
100
AcDbSymbolTable
 70
     1
  0
VPORT
  5
29
330
8
100
AcDbSymbolTableRecord
100
AcDbViewportTableRecord
  2
*Active
 70
     0
 10
0.0
 20
0.0
 11
1.0
 21
1.0
 12
136.003238
 22
348.242902
 13
0.0
 23
0.0
 14
10.0
 24
10.0
 15
10.0
 25
10.0
 16
0.0
 26
0.0
 36
1.0
 17
0.0
 27
0.0
 37
0.0
 40
251.906589
 41
2.468864
 42
50.0
 43
0.0
 44
0.0
 50
0.0
 51
0.0
 71
     0
 72
   100
 73
     1
 74
     3
 75
     0
 76
     0
 77
     0
 78
     0
281
     0
 65
     1
110
0.0
120
0.0
130
0.0
111
1.0
121
0.0
131
0.0
112
0.0
122
1.0
132
0.0
 79
     0
146
0.0
  0
ENDTAB
  0
TABLE
  2
LTYPE
  5
5
330
0
100
AcDbSymbolTable
 70
     1
  0
LTYPE
  5
14
330
5
100
AcDbSymbolTableRecord
100
AcDbLinetypeTableRecord
  2
ByBlock
 70
     0
  3

 72
    65
 73
     0
 40
0.0
  0
LTYPE
  5
15
330
5
100
AcDbSymbolTableRecord
100
AcDbLinetypeTableRecord
  2
ByLayer
 70
     0
  3

 72
    65
 73
     0
 40
0.0
  0
LTYPE
  5
16
330
5
100
AcDbSymbolTableRecord
100
AcDbLinetypeTableRecord
  2
Continuous
 70
     0
  3
Solid line
 72
    65
 73
     0
 40
0.0
  0
ENDTAB
  0
TABLE
  2
LAYER
  5
2
330
0
100
AcDbSymbolTable
 70
     1
  0
LAYER
  5
10
330
2
100
AcDbSymbolTableRecord
100
AcDbLayerTableRecord
  2
0
 70
     0
 62
     7
  6
Continuous
370
    -3
390
F
  0
ENDTAB
  0
TABLE
  2
STYLE
  5
3
330
0
100
AcDbSymbolTable
 70
     1
  0
STYLE
  5
11
330
3
100
AcDbSymbolTableRecord
100
AcDbTextStyleTableRecord
  2
Standard
 70
     0
 40
0.0
 41
1.0
 50
0.0
 71
     0
 42
2.5
  3
Txt
  4

  0
ENDTAB
  0
TABLE
  2
VIEW
  5
6
330
0
100
AcDbSymbolTable
 70
     0
  0
ENDTAB
  0
TABLE
  2
UCS
  5
7
330
0
100
AcDbSymbolTable
 70
     0
  0
ENDTAB
  0
TABLE
  2
APPID
  5
9
330
0
100
AcDbSymbolTable
 70
     1
  0
APPID
  5
12
330
9
100
AcDbSymbolTableRecord
100
AcDbRegAppTableRecord
  2
ACAD
 70
     0
  0
ENDTAB
  0
TABLE
  2
DIMSTYLE
  5
A
330
0
100
AcDbSymbolTable
 70
     1
100
AcDbDimStyleTable
  0
DIMSTYLE
105
27
330
A
100
AcDbSymbolTableRecord
100
AcDbDimStyleTableRecord
  2
ISO-25
 70
     0
 41
2.5
 42
0.625
 43
3.75
 44
1.25
 73
     0
 74
     0
 77
     1
 78
     8
140
2.5
141
2.5
143
0.03937
147
0.625
171
     3
172
     1
271
     2
272
     2
274
     3
283
     0
284
     8
340
11
  0
ENDTAB
  0
TABLE
  2
BLOCK_RECORD
  5
1
330
0
100
AcDbSymbolTable
 70
     8
  0
BLOCK_RECORD
  5
1F
330
1
100
AcDbSymbolTableRecord
100
AcDbBlockTableRecord
  2
*Model_Space
340
22
  0
BLOCK_RECORD
  5
1B
330
1
100
AcDbSymbolTableRecord
100
AcDbBlockTableRecord
  2
*Paper_Space
340
1E
  0
BLOCK_RECORD
  5
23
330
1
100
AcDbSymbolTableRecord
100
AcDbBlockTableRecord
  2
*Paper_Space0
340
26
  0
BLOCK_RECORD
  5
3B
330
1
100
AcDbSymbolTableRecord
100
AcDbBlockTableRecord
  2
*P1
340
0
  0
BLOCK_RECORD
  5
3E
330
1
100
AcDbSymbolTableRecord
100
AcDbBlockTableRecord
  2
*P2
340
0
  0
BLOCK_RECORD
  5
41
330
1
100
AcDbSymbolTableRecord
100
AcDbBlockTableRecord
  2
*P3
340
0
  0
BLOCK_RECORD
  5
44
330
1
100
AcDbSymbolTableRecord
100
AcDbBlockTableRecord
  2
*P4
340
0
  0
BLOCK_RECORD
  5
47
330
1
100
AcDbSymbolTableRecord
100
AcDbBlockTableRecord
  2
*P5
340
0
  0
BLOCK_RECORD
  5
4A
330
1
100
AcDbSymbolTableRecord
100
AcDbBlockTableRecord
  2
*P6
340
0
  0
BLOCK_RECORD
  5
4D
330
1
100
AcDbSymbolTableRecord
100
AcDbBlockTableRecord
  2
*P7
340
0
  0
ENDTAB
  0
ENDSEC
  0
SECTION
  2
BLOCKS
  0
BLOCK
  5
20
330
1F
100
AcDbEntity
  8
0
100
AcDbBlockBegin
  2
*Model_Space
 70
     0
 10
0.0
 20
0.0
 30
0.0
  3
*Model_Space
  1

  0
ENDBLK
  5
21
330
1F
100
AcDbEntity
  8
0
100
AcDbBlockEnd
  0
BLOCK
  5
1C
330
1B
100
AcDbEntity
 67
     1
  8
0
100
AcDbBlockBegin
  2
*Paper_Space
 70
     0
 10
0.0
 20
0.0
 30
0.0
  3
*Paper_Space
  1

  0
ENDBLK
  5
1D
330
1B
100
AcDbEntity
 67
     1
  8
0
100
AcDbBlockEnd
  0
BLOCK
  5
24
330
23
100
AcDbEntity
  8
0
100
AcDbBlockBegin
  2
*Paper_Space0
 70
     0
 10
0.0
 20
0.0
 30
0.0
  3
*Paper_Space0
  1

  0
ENDBLK
  5
25
330
23
100
AcDbEntity
  8
0
100
AcDbBlockEnd
  0
BLOCK
  5
3C
330
3B
100
AcDbEntity
  8
0
100
AcDbBlockBegin
  2
*P1
 70
     1
 10
0.0
 20
0.0
 30
0.0
  3
*P1
  1

  0
ENDBLK
  5
3D
330
3B
100
AcDbEntity
  8
0
100
AcDbBlockEnd
  0
BLOCK
  5
3F
330
3E
100
AcDbEntity
  8
0
100
AcDbBlockBegin
  2
*P2
 70
     1
 10
0.0
 20
0.0
 30
0.0
  3
*P2
  1

  0
ENDBLK
  5
40
330
3E
100
AcDbEntity
  8
0
100
AcDbBlockEnd
  0
BLOCK
  5
42
330
41
100
AcDbEntity
  8
0
100
AcDbBlockBegin
  2
*P3
 70
     1
 10
0.0
 20
0.0
 30
0.0
  3
*P3
  1

  0
ENDBLK
  5
43
330
41
100
AcDbEntity
  8
0
100
AcDbBlockEnd
  0
BLOCK
  5
45
330
44
100
AcDbEntity
  8
0
100
AcDbBlockBegin
  2
*P4
 70
     1
 10
0.0
 20
0.0
 30
0.0
  3
*P4
  1

  0
ENDBLK
  5
46
330
44
100
AcDbEntity
  8
0
100
AcDbBlockEnd
  0
BLOCK
  5
48
330
47
100
AcDbEntity
  8
0
100
AcDbBlockBegin
  2
*P5
 70
     1
 10
0.0
 20
0.0
 30
0.0
  3
*P5
  1

  0
ENDBLK
  5
49
330
47
100
AcDbEntity
  8
0
100
AcDbBlockEnd
  0
BLOCK
  5
4B
330
4A
100
AcDbEntity
  8
0
100
AcDbBlockBegin
  2
*P6
 70
     1
 10
0.0
 20
0.0
 30
0.0
  3
*P6
  1

  0
ENDBLK
  5
4C
330
4A
100
AcDbEntity
  8
0
100
AcDbBlockEnd
  0
BLOCK
  5
4E
330
4D
100
AcDbEntity
  8
0
100
AcDbBlockBegin
  2
*P7
 70
     1
 10
0.0
 20
0.0
 30
0.0
  3
*P7
  1

  0
ENDBLK
  5
4F
330
4D
100
AcDbEntity
  8
0
100
AcDbBlockEnd
  0
ENDSEC
  0
SECTION
  2
ENTITIES
  0
LWPOLYLINE
  5
50
330
1F
100
AcDbEntity
  8
0
 62
     7
100
AcDbPolyline
 90
        4
 70
   128
 43
0.0
 10
81.383072
 20
398.428742
 10
86.460003
 20
398.428742
 10
86.460003
 20
401.42873
 10
94.536921
 20
401.42873
  0
LWPOLYLINE
  5
51
330
1F
100
AcDbEntity
  8
0
 62
     7
100
AcDbPolyline
 90
        2
 70
   128
 43
0.0
 10
94.536921
 20
398.428742
 10
94.536921
 20
401.42873
  0
LWPOLYLINE
  5
52
330
1F
100
AcDbEntity
  8
0
 62
     7
100
AcDbPolyline
 90
        4
 70
   128
 43
0.0
 10
94.536921
 20
398.428742
 10
102.613838
 20
398.428742
 10
102.613838
 20
401.42873
 10
110.690757
 20
401.42873
  0
LWPOLYLINE
  5
53
330
1F
100
AcDbEntity
  8
0
 62
     7
100
AcDbPolyline
 90
        2
 70
   128
 43
0.0
 10
110.690757
 20
398.428742
 10
110.690757
 20
401.42873
  0
LWPOLYLINE
  5
54
330
1F
100
AcDbEntity
  8
0
 62
     7
100
AcDbPolyline
 90
        4
 70
   128
 43
0.0
 10
110.690757
 20
398.428742
 10
118.767675
 20
398.428742
 10
118.767675
 20
401.42873
 10
126.844627
 20
401.42873
  0
LWPOLYLINE
  5
55
330
1F
100
AcDbEntity
  8
0
 62
     7
100
AcDbPolyline
 90
        2
 70
   128
 43
0.0
 10
126.844627
 20
398.428742
 10
126.844627
 20
401.42873
  0
LWPOLYLINE
  5
56
330
1F
100
AcDbEntity
  8
0
 62
     7
100
AcDbPolyline
 90
        4
 70
   128
 43
0.0
 10
126.844627
 20
398.428742
 10
134.921546
 20
398.428742
 10
134.921546
 20
401.42873
 10
142.998463
 20
401.42873
  0
LWPOLYLINE
  5
57
330
1F
100
AcDbEntity
  8
0
 62
     7
100
AcDbPolyline
 90
        2
 70
   128
 43
0.0
 10
142.998463
 20
398.428742
 10
142.998463
 20
401.42873
  0
LWPOLYLINE
  5
58
330
1F
100
AcDbEntity
  8
0
 62
     7
100
AcDbPolyline
 90
        4
 70
   128
 43
0.0
 10
142.998463
 20
398.428742
 10
151.075381
 20
398.428742
 10
151.075381
 20
401.42873
 10
159.152298
 20
401.42873
  0
LWPOLYLINE
  5
59
330
1F
100
AcDbEntity
  8
0
 62
     7
100
AcDbPolyline
 90
        2
 70
   128
 43
0.0
 10
159.152298
 20
398.428742
 10
159.152298
 20
401.42873
  0
LWPOLYLINE
  5
5A
330
1F
100
AcDbEntity
  8
0
 62
     7
100
AcDbPolyline
 90
        4
 70
   128
 43
0.0
 10
159.152298
 20
398.428742
 10
167.229216
 20
398.428742
 10
167.229216
 20
401.42873
 10
175.306135
 20
401.42873
  0
LWPOLYLINE
  5
5B
330
1F
100
AcDbEntity
  8
0
 62
     7
100
AcDbPolyline
 90
        2
 70
   128
 43
0.0
 10
175.306135
 20
398.428742
 10
175.306135
 20
401.42873
  0
LWPOLYLINE
  5
5C
330
1F
100
AcDbEntity
  8
0
 62
     7
100
AcDbPolyline
 90
        2
 70
   128
 43
0.0
 10
175.306135
 20
398.428742
 10
180.383065
 20
398.428742
  0
LWPOLYLINE
  5
5D
330
1F
100
AcDbEntity
  8
0
 62
     7
100
AcDbPolyline
 90
        2
 70
   128
 43
0.0
 10
81.383072
 20
289.428735
 10
86.460003
 20
289.428735
  0
LWPOLYLINE
  5
5E
330
1F
100
AcDbEntity
  8
0
 62
     7
100
AcDbPolyline
 90
        2
 70
   128
 43
0.0
 10
86.460003
 20
286.428749
 10
86.460003
 20
289.428735
  0
LWPOLYLINE
  5
5F
330
1F
100
AcDbEntity
  8
0
 62
     7
100
AcDbPolyline
 90
        4
 70
   128
 43
0.0
 10
86.460003
 20
286.428749
 10
94.536921
 20
286.428749
 10
94.536921
 20
289.428735
 10
102.613838
 20
289.428735
  0
LWPOLYLINE
  5
60
330
1F
100
AcDbEntity
  8
0
 62
     7
100
AcDbPolyline
 90
        2
 70
   128
 43
0.0
 10
102.613838
 20
286.428749
 10
102.613838
 20
289.428735
  0
LWPOLYLINE
  5
61
330
1F
100
AcDbEntity
  8
0
 62
     7
100
AcDbPolyline
 90
        4
 70
   128
 43
0.0
 10
102.613838
 20
286.428749
 10
110.690757
 20
286.428749
 10
110.690757
 20
289.428735
 10
118.767675
 20
289.428735
  0
LWPOLYLINE
  5
62
330
1F
100
AcDbEntity
  8
0
 62
     7
100
AcDbPolyline
 90
        2
 70
   128
 43
0.0
 10
118.767675
 20
286.428749
 10
118.767675
 20
289.428735
  0
LWPOLYLINE
  5
63
330
1F
100
AcDbEntity
  8
0
 62
     7
100
AcDbPolyline
 90
        4
 70
   128
 43
0.0
 10
118.767675
 20
286.428749
 10
126.844627
 20
286.428749
 10
126.844627
 20
289.428735
 10
134.921546
 20
289.428735
  0
LWPOLYLINE
  5
64
330
1F
100
AcDbEntity
  8
0
 62
     7
100
AcDbPolyline
 90
        2
 70
   128
 43
0.0
 10
134.921546
 20
286.428749
 10
134.921546
 20
289.428735
  0
LWPOLYLINE
  5
65
330
1F
100
AcDbEntity
  8
0
 62
     7
100
AcDbPolyline
 90
        4
 70
   128
 43
0.0
 10
134.921546
 20
286.428749
 10
142.998463
 20
286.428749
 10
142.998463
 20
289.428735
 10
151.075381
 20
289.428735
  0
LWPOLYLINE
  5
66
330
1F
100
AcDbEntity
  8
0
 62
     7
100
AcDbPolyline
 90
        2
 70
   128
 43
0.0
 10
151.075381
 20
286.428749
 10
151.075381
 20
289.428735
  0
LWPOLYLINE
  5
67
330
1F
100
AcDbEntity
  8
0
 62
     7
100
AcDbPolyline
 90
        4
 70
   128
 43
0.0
 10
151.075381
 20
286.428749
 10
159.152298
 20
286.428749
 10
159.152298
 20
289.428735
 10
167.229216
 20
289.428735
  0
LWPOLYLINE
  5
68
330
1F
100
AcDbEntity
  8
0
 62
     7
100
AcDbPolyline
 90
        2
 70
   128
 43
0.0
 10
167.229216
 20
286.428749
 10
167.229216
 20
289.428735
  0
LWPOLYLINE
  5
69
330
1F
100
AcDbEntity
  8
0
 62
     7
100
AcDbPolyline
 90
        4
 70
   128
 43
0.0
 10
167.229216
 20
286.428749
 10
175.306135
 20
286.428749
 10
175.306135
 20
289.428735
 10
180.383065
 20
289.428735
  0
LWPOLYLINE
  5
6A
330
1F
100
AcDbEntity
  8
0
 62
     7
100
AcDbPolyline
 90
        4
 70
   128
 43
0.0
 10
81.383072
 20
398.428742
 10
81.383072
 20
393.762057
 10
78.383086
 20
393.762057
 10
78.383086
 20
386.095385
  0
LWPOLYLINE
  5
6B
330
1F
100
AcDbEntity
  8
0
 62
     7
100
AcDbPolyline
 90
        2
 70
   128
 43
0.0
 10
81.383072
 20
386.095385
 10
78.383086
 20
386.095385
  0
LWPOLYLINE
  5
6C
330
1F
100
AcDbEntity
  8
0
 62
     7
100
AcDbPolyline
 90
        4
 70
   128
 43
0.0
 10
81.383072
 20
386.095385
 10
81.383072
 20
378.428747
 10
78.383086
 20
378.428747
 10
78.383086
 20
370.762075
  0
LWPOLYLINE
  5
6D
330
1F
100
AcDbEntity
  8
0
 62
     7
100
AcDbPolyline
 90
        2
 70
   128
 43
0.0
 10
81.383072
 20
370.762075
 10
78.383086
 20
370.762075
  0
LWPOLYLINE
  5
6E
330
1F
100
AcDbEntity
  8
0
 62
     7
100
AcDbPolyline
 90
        4
 70
   128
 43
0.0
 10
81.383072
 20
370.762075
 10
81.383072
 20
363.095402
 10
78.383086
 20
363.095402
 10
78.383086
 20
355.42873
  0
LWPOLYLINE
  5
6F
330
1F
100
AcDbEntity
  8
0
 62
     7
100
AcDbPolyline
 90
        2
 70
   128
 43
0.0
 10
81.383072
 20
355.42873
 10
78.383086
 20
355.42873
  0
LWPOLYLINE
  5
70
330
1F
100
AcDbEntity
  8
0
 62
     7
100
AcDbPolyline
 90
        4
 70
   128
 43
0.0
 10
81.383072
 20
355.42873
 10
81.383072
 20
347.762057
 10
78.383086
 20
347.762057
 10
78.383086
 20
340.095385
  0
LWPOLYLINE
  5
71
330
1F
100
AcDbEntity
  8
0
 62
     7
100
AcDbPolyline
 90
        2
 70
   128
 43
0.0
 10
81.383072
 20
340.095385
 10
78.383086
 20
340.095385
  0
LWPOLYLINE
  5
72
330
1F
100
AcDbEntity
  8
0
 62
     7
100
AcDbPolyline
 90
        4
 70
   128
 43
0.0
 10
81.383072
 20
340.095385
 10
81.383072
 20
332.428747
 10
78.383086
 20
332.428747
 10
78.383086
 20
324.762075
  0
LWPOLYLINE
  5
73
330
1F
100
AcDbEntity
  8
0
 62
     7
100
AcDbPolyline
 90
        2
 70
   128
 43
0.0
 10
81.383072
 20
324.762075
 10
78.383086
 20
324.762075
  0
LWPOLYLINE
  5
74
330
1F
100
AcDbEntity
  8
0
 62
     7
100
AcDbPolyline
 90
        4
 70
   128
 43
0.0
 10
81.383072
 20
324.762075
 10
81.383072
 20
317.095402
 10
78.383086
 20
317.095402
 10
78.383086
 20
309.42873
  0
LWPOLYLINE
  5
75
330
1F
100
AcDbEntity
  8
0
 62
     7
100
AcDbPolyline
 90
        2
 70
   128
 43
0.0
 10
81.383072
 20
309.42873
 10
78.383086
 20
309.42873
  0
LWPOLYLINE
  5
76
330
1F
100
AcDbEntity
  8
0
 62
     7
100
AcDbPolyline
 90
        4
 70
   128
 43
0.0
 10
81.383072
 20
309.42873
 10
81.383072
 20
301.762057
 10
78.383086
 20
301.762057
 10
78.383086
 20
294.095385
  0
LWPOLYLINE
  5
77
330
1F
100
AcDbEntity
  8
0
 62
     7
100
AcDbPolyline
 90
        2
 70
   128
 43
0.0
 10
81.383072
 20
294.095385
 10
78.383086
 20
294.095385
  0
LWPOLYLINE
  5
78
330
1F
100
AcDbEntity
  8
0
 62
     7
100
AcDbPolyline
 90
        2
 70
   128
 43
0.0
 10
81.383072
 20
294.095385
 10
81.383072
 20
289.428735
  0
LWPOLYLINE
  5
79
330
1F
100
AcDbEntity
  8
0
 62
     7
100
AcDbPolyline
 90
        2
 70
   128
 43
0.0
 10
180.383065
 20
398.428742
 10
180.383065
 20
393.762057
  0
LWPOLYLINE
  5
7A
330
1F
100
AcDbEntity
  8
0
 62
     7
100
AcDbPolyline
 90
        2
 70
   128
 43
0.0
 10
183.383087
 20
393.762057
 10
180.383065
 20
393.762057
  0
LWPOLYLINE
  5
7B
330
1F
100
AcDbEntity
  8
0
 62
     7
100
AcDbPolyline
 90
        4
 70
   128
 43
0.0
 10
183.383087
 20
393.762057
 10
183.383087
 20
386.095385
 10
180.383065
 20
386.095385
 10
180.383065
 20
378.428747
  0
LWPOLYLINE
  5
7C
330
1F
100
AcDbEntity
  8
0
 62
     7
100
AcDbPolyline
 90
        2
 70
   128
 43
0.0
 10
183.383087
 20
378.428747
 10
180.383065
 20
378.428747
  0
LWPOLYLINE
  5
7D
330
1F
100
AcDbEntity
  8
0
 62
     7
100
AcDbPolyline
 90
        4
 70
   128
 43
0.0
 10
183.383087
 20
378.428747
 10
183.383087
 20
370.762075
 10
180.383065
 20
370.762075
 10
180.383065
 20
363.095402
  0
LWPOLYLINE
  5
7E
330
1F
100
AcDbEntity
  8
0
 62
     7
100
AcDbPolyline
 90
        2
 70
   128
 43
0.0
 10
183.383087
 20
363.095402
 10
180.383065
 20
363.095402
  0
LWPOLYLINE
  5
7F
330
1F
100
AcDbEntity
  8
0
 62
     7
100
AcDbPolyline
 90
        4
 70
   128
 43
0.0
 10
183.383087
 20
363.095402
 10
183.383087
 20
355.42873
 10
180.383065
 20
355.42873
 10
180.383065
 20
347.762057
  0
LWPOLYLINE
  5
80
330
1F
100
AcDbEntity
  8
0
 62
     7
100
AcDbPolyline
 90
        2
 70
   128
 43
0.0
 10
183.383087
 20
347.762057
 10
180.383065
 20
347.762057
  0
LWPOLYLINE
  5
81
330
1F
100
AcDbEntity
  8
0
 62
     7
100
AcDbPolyline
 90
        4
 70
   128
 43
0.0
 10
183.383087
 20
347.762057
 10
183.383087
 20
340.095385
 10
180.383065
 20
340.095385
 10
180.383065
 20
332.428747
  0
LWPOLYLINE
  5
82
330
1F
100
AcDbEntity
  8
0
 62
     7
100
AcDbPolyline
 90
        2
 70
   128
 43
0.0
 10
183.383087
 20
332.428747
 10
180.383065
 20
332.428747
  0
LWPOLYLINE
  5
83
330
1F
100
AcDbEntity
  8
0
 62
     7
100
AcDbPolyline
 90
        4
 70
   128
 43
0.0
 10
183.383087
 20
332.428747
 10
183.383087
 20
324.762075
 10
180.383065
 20
324.762075
 10
180.383065
 20
317.095402
  0
LWPOLYLINE
  5
84
330
1F
100
AcDbEntity
  8
0
 62
     7
100
AcDbPolyline
 90
        2
 70
   128
 43
0.0
 10
183.383087
 20
317.095402
 10
180.383065
 20
317.095402
  0
LWPOLYLINE
  5
85
330
1F
100
AcDbEntity
  8
0
 62
     7
100
AcDbPolyline
 90
        4
 70
   128
 43
0.0
 10
183.383087
 20
317.095402
 10
183.383087
 20
309.42873
 10
180.383065
 20
309.42873
 10
180.383065
 20
301.762057
  0
LWPOLYLINE
  5
86
330
1F
100
AcDbEntity
  8
0
 62
     7
100
AcDbPolyline
 90
        2
 70
   128
 43
0.0
 10
183.383087
 20
301.762057
 10
180.383065
 20
301.762057
  0
LWPOLYLINE
  5
87
330
1F
100
AcDbEntity
  8
0
 62
     7
100
AcDbPolyline
 90
        4
 70
   128
 43
0.0
 10
183.383087
 20
301.762057
 10
183.383087
 20
294.095385
 10
180.383065
 20
294.095385
 10
180.383065
 20
289.428735
  0
LWPOLYLINE
  5
88
330
1F
100
AcDbEntity
  8
0
 62
     7
100
AcDbPolyline
 90
        4
 70
   128
 43
0.0
 10
60.282707
 20
332.18789
 10
60.282707
 20
324.521217
 10
63.27967
 20
324.521217
 10
63.27967
 20
316.854545
  0
LWPOLYLINE
  5
89
330
1F
100
AcDbEntity
  8
0
 62
     7
100
AcDbPolyline
 90
        2
 70
   128
 43
0.0
 10
60.282707
 20
316.854545
 10
63.27967
 20
316.854545
  0
LWPOLYLINE
  5
8A
330
1F
100
AcDbEntity
  8
0
 62
     7
100
AcDbPolyline
 90
        4
 70
   128
 43
0.0
 10
60.282707
 20
316.854545
 10
60.282707
 20
309.187872
 10
63.27967
 20
309.187872
 10
63.27967
 20
301.521235
  0
LWPOLYLINE
  5
8B
330
1F
100
AcDbEntity
  8
0
 62
     7
100
AcDbPolyline
 90
        2
 70
   128
 43
0.0
 10
60.282707
 20
301.521235
 10
63.27967
 20
301.521235
  0
LWPOLYLINE
  5
8C
330
1F
100
AcDbEntity
  8
0
 62
     7
100
AcDbPolyline
 90
        4
 70
   128
 43
0.0
 10
60.282707
 20
301.521235
 10
60.282707
 20
293.854562
 10
63.27967
 20
293.854562
 10
63.27967
 20
289.187877
  0
LWPOLYLINE
  5
8D
330
1F
100
AcDbEntity
  8
0
 62
     7
100
AcDbPolyline
 90
        4
 70
   128
 43
0.0
 10
8.281961
 20
401.187871
 10
8.281961
 20
393.521235
 10
11.278955
 20
393.521235
 10
11.278955
 20
385.854562
  0
LWPOLYLINE
  5
8E
330
1F
100
AcDbEntity
  8
0
 62
     7
100
AcDbPolyline
 90
        2
 70
   128
 43
0.0
 10
8.281961
 20
385.854562
 10
11.278955
 20
385.854562
  0
LWPOLYLINE
  5
8F
330
1F
100
AcDbEntity
  8
0
 62
     7
100
AcDbPolyline
 90
        4
 70
   128
 43
0.0
 10
8.281961
 20
385.854562
 10
8.281961
 20
378.18789
 10
11.278955
 20
378.18789
 10
11.278955
 20
370.521217
  0
LWPOLYLINE
  5
90
330
1F
100
AcDbEntity
  8
0
 62
     7
100
AcDbPolyline
 90
        2
 70
   128
 43
0.0
 10
8.281961
 20
370.521217
 10
11.278955
 20
370.521217
  0
LWPOLYLINE
  5
91
330
1F
100
AcDbEntity
  8
0
 62
     7
100
AcDbPolyline
 90
        4
 70
   128
 43
0.0
 10
8.281961
 20
370.521217
 10
8.281961
 20
362.854545
 10
11.278955
 20
362.854545
 10
11.278955
 20
355.187872
  0
LWPOLYLINE
  5
92
330
1F
100
AcDbEntity
  8
0
 62
     7
100
AcDbPolyline
 90
        2
 70
   128
 43
0.0
 10
8.281961
 20
355.187872
 10
11.278955
 20
355.187872
  0
LWPOLYLINE
  5
93
330
1F
100
AcDbEntity
  8
0
 62
     7
100
AcDbPolyline
 90
        4
 70
   128
 43
0.0
 10
8.281961
 20
355.187872
 10
8.281961
 20
347.521235
 10
11.278955
 20
347.521235
 10
11.278955
 20
339.854562
  0
LWPOLYLINE
  5
94
330
1F
100
AcDbEntity
  8
0
 62
     7
100
AcDbPolyline
 90
        2
 70
   128
 43
0.0
 10
8.281961
 20
339.854562
 10
11.278955
 20
339.854562
  0
LWPOLYLINE
  5
95
330
1F
100
AcDbEntity
  8
0
 62
     7
100
AcDbPolyline
 90
        4
 70
   128
 43
0.0
 10
8.281961
 20
339.854562
 10
8.281961
 20
332.18789
 10
11.278955
 20
332.18789
 10
11.278955
 20
324.521217
  0
LWPOLYLINE
  5
96
330
1F
100
AcDbEntity
  8
0
 62
     7
100
AcDbPolyline
 90
        2
 70
   128
 43
0.0
 10
8.281961
 20
324.521217
 10
11.278955
 20
324.521217
  0
LWPOLYLINE
  5
97
330
1F
100
AcDbEntity
  8
0
 62
     7
100
AcDbPolyline
 90
        4
 70
   128
 43
0.0
 10
8.281961
 20
324.521217
 10
8.281961
 20
316.854545
 10
11.278955
 20
316.854545
 10
11.278955
 20
309.187872
  0
LWPOLYLINE
  5
98
330
1F
100
AcDbEntity
  8
0
 62
     7
100
AcDbPolyline
 90
        2
 70
   128
 43
0.0
 10
8.281961
 20
309.187872
 10
11.278955
 20
309.187872
  0
LWPOLYLINE
  5
99
330
1F
100
AcDbEntity
  8
0
 62
     7
100
AcDbPolyline
 90
        4
 70
   128
 43
0.0
 10
8.281961
 20
309.187872
 10
8.281961
 20
301.521235
 10
11.278955
 20
301.521235
 10
11.278955
 20
293.854562
  0
LWPOLYLINE
  5
9A
330
1F
100
AcDbEntity
  8
0
 62
     7
100
AcDbPolyline
 90
        2
 70
   128
 43
0.0
 10
8.281961
 20
293.854562
 10
11.278955
 20
293.854562
  0
LWPOLYLINE
  5
9B
330
1F
100
AcDbEntity
  8
0
 62
     7
100
AcDbPolyline
 90
        2
 70
   128
 43
0.0
 10
8.281961
 20
293.854562
 10
8.281961
 20
289.187877
  0
LWPOLYLINE
  5
9C
330
1F
100
AcDbEntity
  8
0
 62
     7
100
AcDbPolyline
 90
        2
 70
   128
 43
0.0
 10
60.260339
 20
401.187871
 10
55.419591
 20
401.187871
  0
LWPOLYLINE
  5
9D
330
1F
100
AcDbEntity
  8
0
 62
     7
100
AcDbPolyline
 90
        2
 70
   128
 43
0.0
 10
55.419591
 20
398.187885
 10
55.419591
 20
401.187871
  0
LWPOLYLINE
  5
9E
330
1F
100
AcDbEntity
  8
0
 62
     7
100
AcDbPolyline
 90
        4
 70
   128
 43
0.0
 10
55.419591
 20
398.187885
 10
47.56809
 20
398.187885
 10
47.56809
 20
401.187871
 10
39.713707
 20
401.187871
  0
LWPOLYLINE
  5
9F
330
1F
100
AcDbEntity
  8
0
 62
     7
100
AcDbPolyline
 90
        2
 70
   128
 43
0.0
 10
39.713707
 20
398.187885
 10
39.713707
 20
401.187871
  0
LWPOLYLINE
  5
A0
330
1F
100
AcDbEntity
  8
0
 62
     7
100
AcDbPolyline
 90
        4
 70
   128
 43
0.0
 10
39.713707
 20
398.187885
 10
31.850797
 20
398.187885
 10
31.850797
 20
401.187871
 10
23.990729
 20
401.187871
  0
LWPOLYLINE
  5
A1
330
1F
100
AcDbEntity
  8
0
 62
     7
100
AcDbPolyline
 90
        2
 70
   128
 43
0.0
 10
23.990729
 20
398.187885
 10
23.990729
 20
401.187871
  0
LWPOLYLINE
  5
A2
330
1F
100
AcDbEntity
  8
0
 62
     7
100
AcDbPolyline
 90
        4
 70
   128
 43
0.0
 10
23.990729
 20
398.187885
 10
16.136345
 20
398.187885
 10
16.136345
 20
401.187871
 10
8.281961
 20
401.187871
  0
LWPOLYLINE
  5
A3
330
1F
100
AcDbEntity
  8
0
 62
     7
100
AcDbPolyline
 90
        2
 70
   128
 43
0.0
 10
63.27967
 20
289.187877
 10
55.419591
 20
289.187877
  0
LWPOLYLINE
  5
A4
330
1F
100
AcDbEntity
  8
0
 62
     7
100
AcDbPolyline
 90
        2
 70
   128
 43
0.0
 10
55.419591
 20
286.18789
 10
55.419591
 20
289.187877
  0
LWPOLYLINE
  5
A5
330
1F
100
AcDbEntity
  8
0
 62
     7
100
AcDbPolyline
 90
        4
 70
   128
 43
0.0
 10
55.419591
 20
286.18789
 10
47.56809
 20
286.18789
 10
47.56809
 20
289.187877
 10
39.713707
 20
289.187877
  0
LWPOLYLINE
  5
A6
330
1F
100
AcDbEntity
  8
0
 62
     7
100
AcDbPolyline
 90
        2
 70
   128
 43
0.0
 10
39.713707
 20
286.18789
 10
39.713707
 20
289.187877
  0
LWPOLYLINE
  5
A7
330
1F
100
AcDbEntity
  8
0
 62
     7
100
AcDbPolyline
 90
        4
 70
   128
 43
0.0
 10
39.713707
 20
286.18789
 10
31.850797
 20
286.18789
 10
31.850797
 20
289.187877
 10
23.990729
 20
289.187877
  0
LWPOLYLINE
  5
A8
330
1F
100
AcDbEntity
  8
0
 62
     7
100
AcDbPolyline
 90
        2
 70
   128
 43
0.0
 10
23.990729
 20
286.18789
 10
23.990729
 20
289.187877
  0
LWPOLYLINE
  5
A9
330
1F
100
AcDbEntity
  8
0
 62
     7
100
AcDbPolyline
 90
        4
 70
   128
 43
0.0
 10
23.990729
 20
286.18789
 10
16.136345
 20
286.18789
 10
16.136345
 20
289.187877
 10
8.281961
 20
289.187877
  0
LINE
  5
AA
330
1F
100
AcDbEntity
  8
0
  6
ByBlock
100
AcDbLine
 10
60.260339
 20
401.187871
 30
0.0
 11
60.282707
 21
331.18789
 31
0.0
  0
LINE
  5
AB
330
1F
100
AcDbEntity
  8
0
  6
ByBlock
100
AcDbLine
 10
-5.770877
 20
336.681545
 30
0.0
 11
3.178124
 21
336.681545
 31
0.0
  0
LINE
  5
AC
330
1F
100
AcDbEntity
  8
0
  6
ByBlock
100
AcDbLine
 10
-5.770877
 20
336.681545
 30
0.0
 11
-5.770877
 21
321.681545
 31
0.0
  0
LINE
  5
AD
330
1F
100
AcDbEntity
  8
0
  6
ByBlock
100
AcDbLine
 10
-5.770877
 20
321.681545
 30
0.0
 11
-2.770877
 21
321.681545
 31
0.0
  0
LINE
  5
AE
330
1F
100
AcDbEntity
  8
0
  6
ByBlock
100
AcDbLine
 10
-2.770877
 20
321.681545
 30
0.0
 11
-2.770877
 21
324.681545
 31
0.0
  0
LINE
  5
AF
330
1F
100
AcDbEntity
  8
0
  6
ByBlock
100
AcDbLine
 10
-2.770877
 20
324.681545
 30
0.0
 11
0.229123
 21
324.681545
 31
0.0
  0
LINE
  5
B0
330
1F
100
AcDbEntity
  8
0
  6
ByBlock
100
AcDbLine
 10
0.229123
 20
324.681545
 30
0.0
 11
0.229123
 21
321.681545
 31
0.0
  0
LINE
  5
B1
330
1F
100
AcDbEntity
  8
0
  6
ByBlock
100
AcDbLine
 10
0.229123
 20
321.681545
 30
0.0
 11
3.178124
 21
321.675996
 31
-0.769515
  0
LINE
  5
B2
330
1F
100
AcDbEntity
  8
0
  6
ByBlock
100
AcDbLine
 10
-28.174409
 20
321.705394
 30
0.0
 11
-25.174409
 21
321.705394
 31
0.0
  0
LINE
  5
B3
330
1F
100
AcDbEntity
  8
0
  6
ByBlock
100
AcDbLine
 10
-25.174409
 20
321.705394
 30
0.0
 11
-25.174409
 21
324.705394
 31
0.0
  0
LINE
  5
B4
330
1F
100
AcDbEntity
  8
0
  6
ByBlock
100
AcDbLine
 10
-25.174409
 20
324.705394
 30
0.0
 11
-22.174409
 21
324.705394
 31
0.0
  0
LINE
  5
B5
330
1F
100
AcDbEntity
  8
0
  6
ByBlock
100
AcDbLine
 10
-22.174409
 20
324.705394
 30
0.0
 11
-22.174409
 21
321.705394
 31
0.0
  0
LINE
  5
B6
330
1F
100
AcDbEntity
  8
0
  6
ByBlock
100
AcDbLine
 10
-22.174409
 20
321.705394
 30
0.0
 11
-19.174409
 21
321.705394
 31
0.0
  0
LINE
  5
B7
330
1F
100
AcDbEntity
  8
0
  6
ByBlock
100
AcDbLine
 10
-19.174409
 20
321.705394
 30
0.0
 11
-19.174409
 21
324.705394
 31
0.0
  0
LINE
  5
B8
330
1F
100
AcDbEntity
  8
0
  6
ByBlock
100
AcDbLine
 10
-19.174409
 20
324.705394
 30
0.0
 11
-16.174409
 21
324.705394
 31
0.0
  0
LINE
  5
B9
330
1F
100
AcDbEntity
  8
0
  6
ByBlock
100
AcDbLine
 10
-16.174409
 20
324.705394
 30
0.0
 11
-16.174409
 21
321.705394
 31
0.0
  0
LINE
  5
BA
330
1F
100
AcDbEntity
  8
0
  6
ByBlock
100
AcDbLine
 10
-16.174409
 20
321.705394
 30
0.0
 11
-13.174409
 21
321.705394
 31
0.0
  0
LINE
  5
BB
330
1F
100
AcDbEntity
  8
0
  6
ByBlock
100
AcDbLine
 10
-34.174409
 20
342.705394
 30
0.0
 11
-34.174409
 21
321.705394
 31
0.0
  0
LINE
  5
BC
330
1F
100
AcDbEntity
  8
0
  6
ByBlock
100
AcDbLine
 10
-34.174409
 20
321.705394
 30
0.0
 11
-31.174409
 21
321.705394
 31
0.0
  0
LINE
  5
BD
330
1F
100
AcDbEntity
  8
0
  6
ByBlock
100
AcDbLine
 10
-31.174409
 20
321.705394
 30
0.0
 11
-31.174409
 21
324.705394
 31
0.0
  0
LINE
  5
BE
330
1F
100
AcDbEntity
  8
0
  6
ByBlock
100
AcDbLine
 10
-31.174409
 20
324.705394
 30
0.0
 11
-28.174409
 21
324.705394
 31
0.0
  0
LINE
  5
BF
330
1F
100
AcDbEntity
  8
0
  6
ByBlock
100
AcDbLine
 10
-28.174409
 20
324.705394
 30
0.0
 11
-28.174409
 21
321.705394
 31
0.0
  0
LINE
  5
C0
330
1F
100
AcDbEntity
  8
0
  6
ByBlock
100
AcDbLine
 10
-13.174409
 20
321.705394
 30
0.0
 11
-13.174409
 21
327.705394
 31
0.0
  0
CIRCLE
  5
C1
330
1F
100
AcDbEntity
  8
0
  6
ByBlock
100
AcDbCircle
 10
-2.783915
 20
330.181545
 30
0.0
 40
1.3
  0
LINE
  5
C2
330
1F
100
AcDbEntity
  8
0
  6
ByBlock
100
AcDbLine
 10
-13.174409
 20
327.705394
 30
0.0
 11
-20.174409
 21
327.705394
 31
0.0
  0
CIRCLE
  5
C3
330
1F
100
AcDbEntity
  8
0
  6
ByBlock
100
AcDbCircle
 10
-26.135735
 20
339.712852
 30
0.0
 40
1.3
  0
LINE
  5
C4
330
1F
100
AcDbEntity
  8
0
  6
ByBlock
100
AcDbLine
 10
-16.783353
 20
357.718654
 30
0.0
 11
-16.783353
 21
354.718654
 31
0.0
  0
LINE
  5
C5
330
1F
100
AcDbEntity
  8
0
  6
ByBlock
100
AcDbLine
 10
-16.783353
 20
354.718654
 30
0.0
 11
-13.783353
 21
354.718654
 31
0.0
  0
LINE
  5
C6
330
1F
100
AcDbEntity
  8
0
  6
ByBlock
100
AcDbLine
 10
-34.783353
 20
391.127
 30
0.0
 11
-34.783353
 21
357.718654
 31
0.0
  0
CIRCLE
  5
C7
330
1F
100
AcDbEntity
  8
0
  6
ByBlock
100
AcDbCircle
 10
-31.317814
 20
387.688236
 30
0.0
 40
1.3
  0
LINE
  5
C8
330
1F
100
AcDbEntity
  8
0
  6
ByBlock
100
AcDbLine
 10
-34.174409
 20
342.705394
 30
0.0
 11
-20.174409
 21
342.705394
 31
0.0
  0
LINE
  5
C9
330
1F
100
AcDbEntity
  8
0
  6
ByBlock
100
AcDbLine
 10
-20.174409
 20
327.705394
 30
0.0
 11
-20.174409
 21
342.705394
 31
0.0
  0
LINE
  5
CA
330
1F
100
AcDbEntity
  8
0
  6
ByBlock
100
AcDbLine
 10
-34.783353
 20
391.127
 30
0.0
 11
-22.776148
 21
391.127
 31
0.0
  0
LINE
  5
CB
330
1F
100
AcDbEntity
  8
0
  6
ByBlock
100
AcDbLine
 10
-22.776148
 20
364.789504
 30
0.0
 11
-22.776148
 21
391.127
 31
0.0
  0
CIRCLE
  5
CC
330
1F
100
AcDbEntity
  8
0
  6
ByBlock
100
AcDbCircle
 10
-31.317814
 20
377.643773
 30
0.0
 40
1.3
  0
LINE
  5
CD
330
1F
100
AcDbEntity
  8
0
  6
ByBlock
100
AcDbLine
 10
-13.783353
 20
354.718654
 30
0.0
 11
-13.783353
 21
357.718654
 31
0.0
  0
LINE
  5
CE
330
1F
100
AcDbEntity
  8
0
  6
ByBlock
100
AcDbLine
 10
-13.783353
 20
357.718654
 30
0.0
 11
-10.783353
 21
357.718654
 31
0.0
  0
LINE
  5
CF
330
1F
100
AcDbEntity
  8
0
  6
ByBlock
100
AcDbLine
 10
-10.783353
 20
357.718654
 30
0.0
 11
-10.783353
 21
354.718654
 31
0.0
  0
LINE
  5
D0
330
1F
100
AcDbEntity
  8
0
  6
ByBlock
100
AcDbLine
 10
-10.783353
 20
354.718654
 30
0.0
 11
-7.783353
 21
354.718654
 31
0.0
  0
LINE
  5
D1
330
1F
100
AcDbEntity
  8
0
  6
ByBlock
100
AcDbLine
 10
-7.783353
 20
354.718654
 30
0.0
 11
-7.783353
 21
357.718654
 31
0.0
  0
LINE
  5
D2
330
1F
100
AcDbEntity
  8
0
  6
ByBlock
100
AcDbLine
 10
-7.783353
 20
357.718654
 30
0.0
 11
-4.783353
 21
357.718654
 31
0.0
  0
LINE
  5
D3
330
1F
100
AcDbEntity
  8
0
  6
ByBlock
100
AcDbLine
 10
-4.783353
 20
357.718654
 30
0.0
 11
-4.783353
 21
354.718654
 31
0.0
  0
LINE
  5
D4
330
1F
100
AcDbEntity
  8
0
  6
ByBlock
100
AcDbLine
 10
-4.783353
 20
354.718654
 30
0.0
 11
-1.783353
 21
354.718654
 31
0.0
  0
CIRCLE
  5
D5
330
1F
100
AcDbEntity
  8
0
  6
ByBlock
100
AcDbCircle
 10
235.168863
 20
360.512099
 30
0.0
 40
2.5
  0
LWPOLYLINE
  5
D6
330
1F
100
AcDbEntity
  8
0
 62
     7
100
AcDbPolyline
 90
        2
 70
   128
 43
0.0
 10
248.676539
 20
286.851487
 10
248.674988
 20
294.518123
  0
LWPOLYLINE
  5
D7
330
1F
100
AcDbEntity
  8
0
 62
     7
100
AcDbPolyline
 90
        2
 70
   128
 43
0.0
 10
245.674966
 20
294.517516
 10
248.674988
 20
294.518123
  0
LWPOLYLINE
  5
D8
330
1F
100
AcDbEntity
  8
0
 62
     7
100
AcDbPolyline
 90
        4
 70
   128
 43
0.0
 10
245.674966
 20
294.517516
 10
245.673416
 20
302.184189
 10
248.673437
 20
302.184795
 10
248.671887
 20
309.851467
  0
LWPOLYLINE
  5
D9
330
1F
100
AcDbEntity
  8
0
 62
     7
100
AcDbPolyline
 90
        2
 70
   128
 43
0.0
 10
245.671865
 20
309.85086
 10
248.671887
 20
309.851467
  0
LWPOLYLINE
  5
DA
330
1F
100
AcDbEntity
  8
0
 62
     7
100
AcDbPolyline
 90
        4
 70
   128
 43
0.0
 10
245.671865
 20
309.85086
 10
245.670314
 20
317.517533
 10
248.670336
 20
317.51814
 10
248.668785
 20
325.184812
  0
LWPOLYLINE
  5
DB
330
1F
100
AcDbEntity
  8
0
 62
     7
100
AcDbPolyline
 90
        2
 70
   128
 43
0.0
 10
245.668763
 20
325.184205
 10
248.668785
 20
325.184812
  0
LWPOLYLINE
  5
DC
330
1F
100
AcDbEntity
  8
0
 62
     7
100
AcDbPolyline
 90
        4
 70
   128
 43
0.0
 10
245.668763
 20
325.184205
 10
245.667212
 20
332.850878
 10
248.667234
 20
332.851485
 10
248.665683
 20
340.518122
  0
LWPOLYLINE
  5
DD
330
1F
100
AcDbEntity
  8
0
 62
     7
100
AcDbPolyline
 90
        2
 70
   128
 43
0.0
 10
245.665661
 20
340.517515
 10
248.665683
 20
340.518122
  0
LWPOLYLINE
  5
DE
330
1F
100
AcDbEntity
  8
0
 62
     7
100
AcDbPolyline
 90
        4
 70
   128
 43
0.0
 10
245.665661
 20
340.517515
 10
245.66411
 20
348.184188
 10
248.664132
 20
348.184795
 10
248.662581
 20
355.851466
  0
LWPOLYLINE
  5
DF
330
1F
100
AcDbEntity
  8
0
 62
     7
100
AcDbPolyline
 90
        2
 70
   128
 43
0.0
 10
245.662559
 20
355.850859
 10
248.662581
 20
355.851466
  0
LWPOLYLINE
  5
E0
330
1F
100
AcDbEntity
  8
0
 62
     7
100
AcDbPolyline
 90
        4
 70
   128
 43
0.0
 10
245.662559
 20
355.850859
 10
245.661008
 20
363.517532
 10
248.66103
 20
363.518139
 10
248.659479
 20
371.184811
  0
LWPOLYLINE
  5
E1
330
1F
100
AcDbEntity
  8
0
 62
     7
100
AcDbPolyline
 90
        2
 70
   128
 43
0.0
 10
245.659457
 20
371.184204
 10
248.659479
 20
371.184811
  0
LWPOLYLINE
  5
E2
330
1F
100
AcDbEntity
  8
0
 62
     7
100
AcDbPolyline
 90
        4
 70
   128
 43
0.0
 10
245.659457
 20
371.184204
 10
245.657906
 20
378.850877
 10
248.657928
 20
378.851484
 10
248.656377
 20
386.518121
  0
LWPOLYLINE
  5
E3
330
1F
100
AcDbEntity
  8
0
 62
     7
100
AcDbPolyline
 90
        2
 70
   128
 43
0.0
 10
245.656355
 20
386.517514
 10
248.656377
 20
386.518121
  0
LWPOLYLINE
  5
E4
330
1F
100
AcDbEntity
  8
0
 62
     7
100
AcDbPolyline
 90
        4
 70
   128
 43
0.0
 10
245.656355
 20
386.517514
 10
245.654804
 20
394.184187
 10
248.654826
 20
394.184794
 10
248.653882
 20
398.851478
  0
LWPOLYLINE
  5
E5
330
1F
100
AcDbEntity
  8
0
 62
     7
100
AcDbPolyline
 90
        4
 70
   128
 43
0.0
 10
193.676545
 20
286.84036
 10
193.674995
 20
294.506996
 10
196.67498
 20
294.507603
 10
196.67343
 20
302.174276
  0
LWPOLYLINE
  5
E6
330
1F
100
AcDbEntity
  8
0
 62
     7
100
AcDbPolyline
 90
        2
 70
   128
 43
0.0
 10
193.673444
 20
302.173669
 10
196.67343
 20
302.174276
  0
LWPOLYLINE
  5
E7
330
1F
100
AcDbEntity
  8
0
 62
     7
100
AcDbPolyline
 90
        4
 70
   128
 43
0.0
 10
193.673444
 20
302.173669
 10
193.671893
 20
309.840341
 10
196.671879
 20
309.840948
 10
196.670328
 20
317.507621
  0
LWPOLYLINE
  5
E8
330
1F
100
AcDbEntity
  8
0
 62
     7
100
AcDbPolyline
 90
        2
 70
   128
 43
0.0
 10
193.670342
 20
317.507014
 10
196.670328
 20
317.507621
  0
LWPOLYLINE
  5
E9
330
1F
100
AcDbEntity
  8
0
 62
     7
100
AcDbPolyline
 90
        4
 70
   128
 43
0.0
 10
193.670342
 20
317.507014
 10
193.668791
 20
325.173686
 10
196.668777
 20
325.174293
 10
196.669401
 20
398.848474
  0
LWPOLYLINE
  5
EA
330
1F
100
AcDbEntity
  8
0
 62
     7
100
AcDbPolyline
 90
        2
 70
   128
 43
0.0
 10
248.676539
 20
286.851487
 10
240.819403
 20
286.849897
  0
LWPOLYLINE
  5
EB
330
1F
100
AcDbEntity
  8
0
 62
     7
100
AcDbPolyline
 90
        2
 70
   128
 43
0.0
 10
240.818796
 20
289.849883
 10
240.819403
 20
286.849897
  0
LWPOLYLINE
  5
EC
330
1F
100
AcDbEntity
  8
0
 62
     7
100
AcDbPolyline
 90
        4
 70
   128
 43
0.0
 10
240.818796
 20
289.849883
 10
232.961624
 20
289.848294
 10
232.962231
 20
286.848308
 10
225.105093
 20
286.846718
  0
LWPOLYLINE
  5
ED
330
1F
100
AcDbEntity
  8
0
 62
     7
100
AcDbPolyline
 90
        2
 70
   128
 43
0.0
 10
225.104486
 20
289.846704
 10
225.105093
 20
286.846718
  0
LWPOLYLINE
  5
EE
330
1F
100
AcDbEntity
  8
0
 62
     7
100
AcDbPolyline
 90
        4
 70
   128
 43
0.0
 10
225.104486
 20
289.846704
 10
217.247349
 20
289.845115
 10
217.247956
 20
286.845129
 10
209.390818
 20
286.843539
  0
LWPOLYLINE
  5
EF
330
1F
100
AcDbEntity
  8
0
 62
     7
100
AcDbPolyline
 90
        2
 70
   128
 43
0.0
 10
209.390211
 20
289.843525
 10
209.390818
 20
286.843539
  0
LWPOLYLINE
  5
F0
330
1F
100
AcDbEntity
  8
0
 62
     7
100
AcDbPolyline
 90
        4
 70
   128
 43
0.0
 10
209.390211
 20
289.843525
 10
201.533074
 20
289.841936
 10
201.533681
 20
286.84195
 10
193.676545
 20
286.84036
  0
LWPOLYLINE
  5
F1
330
1F
100
AcDbEntity
  8
0
 62
     7
100
AcDbPolyline
 90
        2
 70
   128
 43
0.0
 10
248.653882
 20
398.851478
 10
240.796745
 20
398.849889
  0
LWPOLYLINE
  5
F2
330
1F
100
AcDbEntity
  8
0
 62
     7
100
AcDbPolyline
 90
        2
 70
   128
 43
0.0
 10
240.796138
 20
401.849876
 10
240.796745
 20
398.849889
  0
LWPOLYLINE
  5
F3
330
1F
100
AcDbEntity
  8
0
 62
     7
100
AcDbPolyline
 90
        4
 70
   128
 43
0.0
 10
240.796138
 20
401.849876
 10
232.938967
 20
401.848286
 10
232.939573
 20
398.8483
 10
225.082436
 20
398.84671
  0
LWPOLYLINE
  5
F4
330
1F
100
AcDbEntity
  8
0
 62
     7
100
AcDbPolyline
 90
        2
 70
   128
 43
0.0
 10
225.081829
 20
401.846697
 10
225.082436
 20
398.84671
  0
LWPOLYLINE
  5
F5
330
1F
100
AcDbEntity
  8
0
 62
     7
100
AcDbPolyline
 90
        4
 70
   128
 43
0.0
 10
225.081829
 20
401.846697
 10
217.224692
 20
401.845108
 10
217.225299
 20
398.845121
 10
209.368161
 20
398.843531
  0
LWPOLYLINE
  5
F6
330
1F
100
AcDbEntity
  8
0
 62
     7
100
AcDbPolyline
 90
        2
 70
   128
 43
0.0
 10
209.367554
 20
401.843518
 10
209.368161
 20
398.843531
  0
LWPOLYLINE
  5
F7
330
1F
100
AcDbEntity
  8
0
 62
     7
100
AcDbPolyline
 90
        4
 70
   128
 43
0.0
 10
209.367554
 20
401.843518
 10
201.510417
 20
401.841929
 10
201.511024
 20
398.841942
 10
196.669401
 20
398.848474
  0
LINE
  5
F8
330
1F
100
AcDbEntity
  8
0
  6
ByBlock
100
AcDbLine
 10
257.413528
 20
342.85631
 30
0.0
 11
257.413528
 21
334.073526
 31
0.0
  0
LINE
  5
F9
330
1F
100
AcDbEntity
  8
0
  6
ByBlock
100
AcDbLine
 10
257.413528
 20
342.85631
 30
0.0
 11
297.413528
 21
342.85631
 31
0.0
  0
LINE
  5
FA
330
1F
100
AcDbEntity
  8
0
  6
ByBlock
100
AcDbLine
 10
257.413528
 20
334.073526
 30
0.0
 11
297.413528
 21
334.069478
 31
0.0
  0
CIRCLE
  5
FB
330
1F
100
AcDbEntity
  8
0
  6
ByBlock
100
AcDbCircle
 10
263.863441
 20
338.473808
 30
0.0
 40
2.2
  0
LINE
  5
FC
330
1F
100
AcDbEntity
  8
0
  6
ByBlock
100
AcDbLine
 10
261.749732
 20
306.109873
 30
0.0
 11
261.749732
 21
297.358219
 31
0.0
  0
LINE
  5
FD
330
1F
100
AcDbEntity
  8
0
  6
ByBlock
100
AcDbLine
 10
261.749732
 20
306.109873
 30
0.0
 11
278.749732
 21
306.109873
 31
0.0
  0
LINE
  5
FE
330
1F
100
AcDbEntity
  8
0
  6
ByBlock
100
AcDbLine
 10
261.749732
 20
297.358219
 30
0.0
 11
291.749732
 21
297.358219
 31
0.0
  0
CIRCLE
  5
FF
330
1F
100
AcDbEntity
  8
0
  6
ByBlock
100
AcDbCircle
 10
265.714882
 20
301.732668
 30
0.0
 40
2.1
  0
LINE
  5
100
330
1F
100
AcDbEntity
  8
0
  6
ByBlock
100
AcDbLine
 10
278.749732
 20
306.109873
 30
0.0
 11
278.749732
 21
321.636314
 31
0.0
  0
LINE
  5
101
330
1F
100
AcDbEntity
  8
0
  6
ByBlock
100
AcDbLine
 10
278.749732
 20
321.636314
 30
0.0
 11
291.749732
 21
321.636314
 31
0.0
  0
LINE
  5
102
330
1F
100
AcDbEntity
  8
0
  6
ByBlock
100
AcDbLine
 10
291.749732
 20
321.636314
 30
0.0
 11
291.749732
 21
297.358219
 31
0.0
  0
ARC
  5
103
330
1F
100
AcDbEntity
  8
0
  6
ByBlock
100
AcDbCircle
 10
295.98283
 20
338.463147
 30
0.0
 40
4.620257679489958
100
AcDbArc
 50
288.038602
 51
71.961398
  0
LINE
  5
104
330
1F
100
AcDbEntity
  8
0
  6
ByBlock
100
AcDbLine
 10
263.326199
 20
355.529833
 30
0.0
 11
263.326199
 21
352.529833
 31
0.0
  0
LINE
  5
105
330
1F
100
AcDbEntity
  8
0
  6
ByBlock
100
AcDbLine
 10
263.326199
 20
352.529833
 30
0.0
 11
266.326199
 21
352.529833
 31
0.0
  0
LINE
  5
106
330
1F
100
AcDbEntity
  8
0
  6
ByBlock
100
AcDbLine
 10
266.326199
 20
352.529833
 30
0.0
 11
266.326199
 21
355.529833
 31
0.0
  0
LINE
  5
107
330
1F
100
AcDbEntity
  8
0
  6
ByBlock
100
AcDbLine
 10
266.326199
 20
355.529833
 30
0.0
 11
269.326199
 21
355.529833
 31
0.0
  0
LINE
  5
108
330
1F
100
AcDbEntity
  8
0
  6
ByBlock
100
AcDbLine
 10
269.326199
 20
355.529833
 30
0.0
 11
269.326199
 21
352.529833
 31
0.0
  0
LINE
  5
109
330
1F
100
AcDbEntity
  8
0
  6
ByBlock
100
AcDbLine
 10
269.326199
 20
352.529833
 30
0.0
 11
272.326199
 21
352.529833
 31
0.0
  0
LINE
  5
10A
330
1F
100
AcDbEntity
  8
0
  6
ByBlock
100
AcDbLine
 10
269.339291
 20
388.938179
 30
0.0
 11
269.339291
 21
360.529833
 31
0.0
  0
CIRCLE
  5
10B
330
1F
100
AcDbEntity
  8
0
  6
ByBlock
100
AcDbCircle
 10
272.80483
 20
385.499415
 30
0.0
 40
1.3
  0
LINE
  5
10C
330
1F
100
AcDbEntity
  8
0
  6
ByBlock
100
AcDbLine
 10
269.339291
 20
388.938179
 30
0.0
 11
281.346496
 21
388.938179
 31
0.0
  0
CIRCLE
  5
10D
330
1F
100
AcDbEntity
  8
0
  6
ByBlock
100
AcDbCircle
 10
272.80483
 20
375.537147
 30
0.0
 40
1.3
  0
LINE
  5
10E
330
1F
100
AcDbEntity
  8
0
  6
ByBlock
100
AcDbLine
 10
272.326199
 20
352.529833
 30
0.0
 11
272.326199
 21
355.529833
 31
0.0
  0
LINE
  5
10F
330
1F
100
AcDbEntity
  8
0
  6
ByBlock
100
AcDbLine
 10
272.326199
 20
355.529833
 30
0.0
 11
275.326199
 21
355.529833
 31
0.0
  0
LINE
  5
110
330
1F
100
AcDbEntity
  8
0
  6
ByBlock
100
AcDbLine
 10
275.326199
 20
355.529833
 30
0.0
 11
275.326199
 21
352.529833
 31
0.0
  0
LINE
  5
111
330
1F
100
AcDbEntity
  8
0
  6
ByBlock
100
AcDbLine
 10
275.326199
 20
352.529833
 30
0.0
 11
278.326199
 21
352.529833
 31
0.0
  0
LINE
  5
112
330
1F
100
AcDbEntity
  8
0
  6
ByBlock
100
AcDbLine
 10
278.326199
 20
352.529833
 30
0.0
 11
278.326199
 21
355.529833
 31
0.0
  0
LINE
  5
113
330
1F
100
AcDbEntity
  8
0
  6
ByBlock
100
AcDbLine
 10
263.252772
 20
355.529833
 30
0.0
 11
260.252772
 21
355.529833
 31
0.0
  0
LINE
  5
114
330
1F
100
AcDbEntity
  8
0
  6
ByBlock
100
AcDbLine
 10
278.326199
 20
355.529833
 30
0.0
 11
281.326199
 21
355.529833
 31
0.0
  0
LINE
  5
115
330
1F
100
AcDbEntity
  8
0
  6
ByBlock
100
AcDbLine
 10
260.252772
 20
355.529833
 30
0.0
 11
260.252772
 21
352.529833
 31
0.0
  0
LINE
  5
116
330
1F
100
AcDbEntity
  8
0
  6
ByBlock
100
AcDbLine
 10
260.252772
 20
352.529833
 30
0.0
 11
257.252772
 21
352.529833
 31
0.0
  0
LINE
  5
117
330
1F
100
AcDbEntity
  8
0
  6
ByBlock
100
AcDbLine
 10
257.252772
 20
352.529833
 30
0.0
 11
257.256674
 21
360.529833
 31
0.0
  0
LINE
  5
118
330
1F
100
AcDbEntity
  8
0
  6
ByBlock
100
AcDbLine
 10
257.256674
 20
360.529833
 30
0.0
 11
269.339291
 21
360.529833
 31
0.0
  0
LINE
  5
119
330
1F
100
AcDbEntity
  8
0
  6
ByBlock
100
AcDbLine
 10
95.460766
 20
369.412012
 30
-172.334274
 11
98.538273
 21
369.412012
 31
-172.334274
  0
LINE
  5
11A
330
1F
100
AcDbEntity
  8
0
  6
ByBlock
100
AcDbLine
 10
98.538273
 20
369.412012
 30
-172.334274
 11
98.538273
 21
372.412012
 31
-172.334274
  0
LINE
  5
11B
330
1F
100
AcDbEntity
  8
0
  6
ByBlock
100
AcDbLine
 10
98.538273
 20
372.412012
 30
-172.334274
 11
95.460766
 21
372.412012
 31
-172.334274
  0
LINE
  5
11C
330
1F
100
AcDbEntity
  8
0
  6
ByBlock
100
AcDbLine
 10
95.460766
 20
372.412012
 30
-172.334274
 11
95.460766
 21
369.412012
 31
-172.334274
  0
LINE
  5
11D
330
1F
100
AcDbEntity
  8
0
  6
ByBlock
100
AcDbLine
 10
95.460766
 20
375.412012
 30
-172.334274
 11
98.538273
 21
375.412012
 31
-172.334274
  0
LINE
  5
11E
330
1F
100
AcDbEntity
  8
0
  6
ByBlock
100
AcDbLine
 10
98.538273
 20
375.412012
 30
-172.334274
 11
98.538273
 21
378.412012
 31
-172.334274
  0
LINE
  5
11F
330
1F
100
AcDbEntity
  8
0
  6
ByBlock
100
AcDbLine
 10
98.538273
 20
378.412012
 30
-172.334274
 11
95.460766
 21
378.412012
 31
-172.334274
  0
LINE
  5
120
330
1F
100
AcDbEntity
  8
0
  6
ByBlock
100
AcDbLine
 10
95.460766
 20
378.412012
 30
-172.334274
 11
95.460766
 21
375.412012
 31
-172.334274
  0
LINE
  5
121
330
1F
100
AcDbEntity
  8
0
  6
ByBlock
100
AcDbLine
 10
95.460766
 20
381.412012
 30
-172.334274
 11
98.538273
 21
381.412012
 31
-172.334274
  0
LINE
  5
122
330
1F
100
AcDbEntity
  8
0
  6
ByBlock
100
AcDbLine
 10
98.538273
 20
381.412012
 30
-172.334274
 11
98.538273
 21
384.412012
 31
-172.334274
  0
LINE
  5
123
330
1F
100
AcDbEntity
  8
0
  6
ByBlock
100
AcDbLine
 10
98.538273
 20
384.412012
 30
-172.334274
 11
95.460766
 21
384.412012
 31
-172.334274
  0
LINE
  5
124
330
1F
100
AcDbEntity
  8
0
  6
ByBlock
100
AcDbLine
 10
95.460766
 20
384.412012
 30
-172.334274
 11
95.460766
 21
381.412012
 31
-172.334274
  0
LINE
  5
125
330
1F
100
AcDbEntity
  8
0
  6
ByBlock
100
AcDbLine
 10
98.538273
 20
387.412012
 30
-172.334274
 11
98.538273
 21
390.412012
 31
-172.334274
  0
LINE
  5
126
330
1F
100
AcDbEntity
  8
0
  6
ByBlock
100
AcDbLine
 10
98.538273
 20
390.412012
 30
-172.334274
 11
95.460766
 21
390.412012
 31
-172.334274
  0
LINE
  5
127
330
1F
100
AcDbEntity
  8
0
  6
ByBlock
100
AcDbLine
 10
95.460766
 20
390.412012
 30
-172.334274
 11
95.460766
 21
387.412012
 31
-172.334274
  0
LINE
  5
128
330
1F
100
AcDbEntity
  8
0
  6
ByBlock
100
AcDbLine
 10
95.460766
 20
387.412012
 30
-172.334274
 11
98.538273
 21
387.412012
 31
-172.334274
  0
LINE
  5
129
330
1F
100
AcDbEntity
  8
0
  6
ByBlock
100
AcDbLine
 10
113.332997
 20
319.026179
 30
0.0
 11
116.410504
 21
319.026179
 31
0.0
  0
LINE
  5
12A
330
1F
100
AcDbEntity
  8
0
  6
ByBlock
100
AcDbLine
 10
116.410504
 20
319.026179
 30
0.0
 11
116.410504
 21
322.026179
 31
0.0
  0
LINE
  5
12B
330
1F
100
AcDbEntity
  8
0
  6
ByBlock
100
AcDbLine
 10
116.410504
 20
322.026179
 30
0.0
 11
113.332997
 21
322.026179
 31
0.0
  0
LINE
  5
12C
330
1F
100
AcDbEntity
  8
0
  6
ByBlock
100
AcDbLine
 10
113.332997
 20
322.026179
 30
0.0
 11
113.332997
 21
319.026179
 31
0.0
  0
LINE
  5
12D
330
1F
100
AcDbEntity
  8
0
  6
ByBlock
100
AcDbLine
 10
113.332997
 20
325.026179
 30
0.0
 11
116.410504
 21
325.026179
 31
0.0
  0
LINE
  5
12E
330
1F
100
AcDbEntity
  8
0
  6
ByBlock
100
AcDbLine
 10
116.410504
 20
325.026179
 30
0.0
 11
116.410504
 21
328.026179
 31
0.0
  0
LINE
  5
12F
330
1F
100
AcDbEntity
  8
0
  6
ByBlock
100
AcDbLine
 10
116.410504
 20
328.026179
 30
0.0
 11
113.332997
 21
328.026179
 31
0.0
  0
LINE
  5
130
330
1F
100
AcDbEntity
  8
0
  6
ByBlock
100
AcDbLine
 10
113.332997
 20
328.026179
 30
0.0
 11
113.332997
 21
325.026179
 31
0.0
  0
LINE
  5
131
330
1F
100
AcDbEntity
  8
0
  6
ByBlock
100
AcDbLine
 10
113.332997
 20
331.026179
 30
0.0
 11
116.410504
 21
331.026179
 31
0.0
  0
LINE
  5
132
330
1F
100
AcDbEntity
  8
0
  6
ByBlock
100
AcDbLine
 10
116.410504
 20
331.026179
 30
0.0
 11
116.410504
 21
334.026179
 31
0.0
  0
LINE
  5
133
330
1F
100
AcDbEntity
  8
0
  6
ByBlock
100
AcDbLine
 10
116.410504
 20
334.026179
 30
0.0
 11
113.332997
 21
334.026179
 31
0.0
  0
LINE
  5
134
330
1F
100
AcDbEntity
  8
0
  6
ByBlock
100
AcDbLine
 10
113.332997
 20
334.026179
 30
0.0
 11
113.332997
 21
331.026179
 31
0.0
  0
LINE
  5
135
330
1F
100
AcDbEntity
  8
0
  6
ByBlock
100
AcDbLine
 10
116.410504
 20
337.026179
 30
0.0
 11
116.410504
 21
340.026179
 31
0.0
  0
LINE
  5
136
330
1F
100
AcDbEntity
  8
0
  6
ByBlock
100
AcDbLine
 10
116.410504
 20
340.026179
 30
0.0
 11
113.332997
 21
340.026179
 31
0.0
  0
LINE
  5
137
330
1F
100
AcDbEntity
  8
0
  6
ByBlock
100
AcDbLine
 10
113.332997
 20
340.026179
 30
0.0
 11
113.332997
 21
337.026179
 31
0.0
  0
LINE
  5
138
330
1F
100
AcDbEntity
  8
0
  6
ByBlock
100
AcDbLine
 10
113.332997
 20
337.026179
 30
0.0
 11
116.410504
 21
337.026179
 31
0.0
  0
LINE
  5
139
330
1F
100
AcDbEntity
  8
0
  6
ByBlock
100
AcDbLine
 10
155.283057
 20
370.42873
 30
0.0
 11
155.283057
 21
373.42873
 31
0.0
  0
LINE
  5
13A
330
1F
100
AcDbEntity
  8
0
  6
ByBlock
100
AcDbLine
 10
155.283057
 20
373.42873
 30
0.0
 11
152.20555
 21
373.42873
 31
0.0
  0
LINE
  5
13B
330
1F
100
AcDbEntity
  8
0
  6
ByBlock
100
AcDbLine
 10
152.20555
 20
373.42873
 30
0.0
 11
152.20555
 21
370.42873
 31
0.0
  0
LINE
  5
13C
330
1F
100
AcDbEntity
  8
0
  6
ByBlock
100
AcDbLine
 10
155.283057
 20
376.42873
 30
0.0
 11
155.283057
 21
379.42873
 31
0.0
  0
LINE
  5
13D
330
1F
100
AcDbEntity
  8
0
  6
ByBlock
100
AcDbLine
 10
155.283057
 20
379.42873
 30
0.0
 11
152.20555
 21
379.42873
 31
0.0
  0
LINE
  5
13E
330
1F
100
AcDbEntity
  8
0
  6
ByBlock
100
AcDbLine
 10
152.20555
 20
379.42873
 30
0.0
 11
152.20555
 21
376.42873
 31
0.0
  0
LINE
  5
13F
330
1F
100
AcDbEntity
  8
0
  6
ByBlock
100
AcDbLine
 10
155.283057
 20
364.42873
 30
0.0
 11
155.283057
 21
367.42873
 31
0.0
  0
LINE
  5
140
330
1F
100
AcDbEntity
  8
0
  6
ByBlock
100
AcDbLine
 10
155.283057
 20
367.42873
 30
12.0
 11
152.20555
 21
367.42873
 31
12.0
  0
LINE
  5
141
330
1F
100
AcDbEntity
  8
0
  6
ByBlock
100
AcDbLine
 10
152.20555
 20
367.42873
 30
0.0
 11
152.20555
 21
364.42873
 31
0.0
  0
LINE
  5
142
330
1F
100
AcDbEntity
  8
0
  6
ByBlock
100
AcDbLine
 10
152.20555
 20
376.42873
 30
0.0
 11
155.283057
 21
376.42873
 31
0.0
  0
LINE
  5
143
330
1F
100
AcDbEntity
  8
0
  6
ByBlock
100
AcDbLine
 10
152.20555
 20
364.42873
 30
0.0
 11
155.283057
 21
364.42873
 31
0.0
  0
LINE
  5
144
330
1F
100
AcDbEntity
  8
0
  6
ByBlock
100
AcDbLine
 10
155.283057
 20
370.42873
 30
12.0
 11
152.20555
 21
370.42873
 31
12.0
  0
LINE
  5
145
330
1F
100
AcDbEntity
  8
0
  6
ByBlock
100
AcDbLine
 10
155.283057
 20
296.428744
 30
0.0
 11
155.283057
 21
299.428744
 31
0.0
  0
LINE
  5
146
330
1F
100
AcDbEntity
  8
0
  6
ByBlock
100
AcDbLine
 10
155.283057
 20
299.428744
 30
0.0
 11
152.20555
 21
299.428744
 31
0.0
  0
LINE
  5
147
330
1F
100
AcDbEntity
  8
0
  6
ByBlock
100
AcDbLine
 10
152.20555
 20
299.428744
 30
0.0
 11
152.20555
 21
296.428744
 31
0.0
  0
LINE
  5
148
330
1F
100
AcDbEntity
  8
0
  6
ByBlock
100
AcDbLine
 10
155.283057
 20
302.428744
 30
0.0
 11
155.283057
 21
305.428744
 31
0.0
  0
LINE
  5
149
330
1F
100
AcDbEntity
  8
0
  6
ByBlock
100
AcDbLine
 10
155.283057
 20
305.428744
 30
0.0
 11
152.20555
 21
305.428744
 31
0.0
  0
LINE
  5
14A
330
1F
100
AcDbEntity
  8
0
  6
ByBlock
100
AcDbLine
 10
152.20555
 20
305.428744
 30
0.0
 11
152.20555
 21
302.428744
 31
0.0
  0
LINE
  5
14B
330
1F
100
AcDbEntity
  8
0
  6
ByBlock
100
AcDbLine
 10
155.283057
 20
308.428744
 30
0.0
 11
155.283057
 21
311.428744
 31
0.0
  0
LINE
  5
14C
330
1F
100
AcDbEntity
  8
0
  6
ByBlock
100
AcDbLine
 10
155.283057
 20
311.428744
 30
0.0
 11
152.20555
 21
311.428744
 31
0.0
  0
LINE
  5
14D
330
1F
100
AcDbEntity
  8
0
  6
ByBlock
100
AcDbLine
 10
152.20555
 20
311.428744
 30
0.0
 11
152.20555
 21
308.428744
 31
0.0
  0
LINE
  5
14E
330
1F
100
AcDbEntity
  8
0
  6
ByBlock
100
AcDbLine
 10
152.20555
 20
302.428744
 30
0.0
 11
155.283057
 21
302.428744
 31
0.0
  0
LINE
  5
14F
330
1F
100
AcDbEntity
  8
0
  6
ByBlock
100
AcDbLine
 10
152.20555
 20
308.428744
 30
0.0
 11
155.283057
 21
308.428744
 31
0.0
  0
LINE
  5
150
330
1F
100
AcDbEntity
  8
0
  6
ByBlock
100
AcDbLine
 10
155.283057
 20
314.428744
 30
0.0
 11
155.283057
 21
317.428744
 31
0.0
  0
LINE
  5
151
330
1F
100
AcDbEntity
  8
0
  6
ByBlock
100
AcDbLine
 10
155.283057
 20
317.428744
 30
0.0
 11
152.20555
 21
317.428744
 31
0.0
  0
LINE
  5
152
330
1F
100
AcDbEntity
  8
0
  6
ByBlock
100
AcDbLine
 10
152.20555
 20
317.428744
 30
0.0
 11
152.20555
 21
314.428744
 31
0.0
  0
LINE
  5
153
330
1F
100
AcDbEntity
  8
0
  6
ByBlock
100
AcDbLine
 10
152.20555
 20
314.428744
 30
0.0
 11
155.283057
 21
314.428744
 31
0.0
  0
LINE
  5
154
330
1F
100
AcDbEntity
  8
0
  6
ByBlock
100
AcDbLine
 10
152.20555
 20
296.428744
 30
0.0
 11
155.283057
 21
296.428744
 31
0.0
  0
LINE
  5
155
330
1F
100
AcDbEntity
  8
0
  6
ByBlock
100
AcDbLine
 10
155.283057
 20
358.42873
 30
0.0
 11
155.283057
 21
361.42873
 31
0.0
  0
LINE
  5
156
330
1F
100
AcDbEntity
  8
0
  6
ByBlock
100
AcDbLine
 10
155.283057
 20
361.42873
 30
0.0
 11
152.20555
 21
361.42873
 31
0.0
  0
LINE
  5
157
330
1F
100
AcDbEntity
  8
0
  6
ByBlock
100
AcDbLine
 10
152.20555
 20
361.42873
 30
0.0
 11
152.20555
 21
358.42873
 31
0.0
  0
LINE
  5
158
330
1F
100
AcDbEntity
  8
0
  6
ByBlock
100
AcDbLine
 10
155.283057
 20
358.42873
 30
12.0
 11
152.20555
 21
358.42873
 31
12.0
  0
CIRCLE
  5
159
330
1F
100
AcDbEntity
  8
0
  6
ByBlock
100
AcDbCircle
 10
295.48983
 20
470.269007
 30
-0.632264
 40
1.3
  0
CIRCLE
  5
15A
330
1F
100
AcDbEntity
  8
0
  6
ByBlock
100
AcDbCircle
 10
278.989834
 20
470.258833
 30
-0.632264
 40
1.3
  0
CIRCLE
  5
15B
330
1F
100
AcDbEntity
  8
0
  6
ByBlock
100
AcDbCircle
 10
217.194938
 20
470.269007
 30
0.0
 40
1.3
  0
CIRCLE
  5
15C
330
1F
100
AcDbEntity
  8
0
  6
ByBlock
100
AcDbCircle
 10
233.694938
 20
470.269007
 30
0.0
 40
1.3
  0
LINE
  5
15D
330
1F
100
AcDbEntity
  8
0
  6
ByBlock
100
AcDbLine
 10
201.78983
 20
473.281835
 30
0.0
 11
201.78983
 21
406.781835
 31
0.0
  0
LINE
  5
15E
330
1F
100
AcDbEntity
  8
0
  6
ByBlock
100
AcDbLine
 10
306.78983
 20
406.781835
 30
0.0
 11
306.78983
 21
473.281835
 31
0.0
  0
LINE
  5
15F
330
1F
100
AcDbEntity
  8
0
  6
ByBlock
100
AcDbLine
 10
-22.783353
 20
357.718654
 30
0.0
 11
-34.783353
 21
357.718654
 31
0.0
  0
LWPOLYLINE
  5
160
330
1F
100
AcDbEntity
  8
0
 62
     7
100
AcDbPolyline
 90
        2
 70
   128
 43
0.0
 10
71.835105
 20
417.195867
 10
66.758174
 20
417.195867
  0
LWPOLYLINE
  5
161
330
1F
100
AcDbEntity
  8
0
 62
     7
100
AcDbPolyline
 90
        2
 70
   128
 43
0.0
 10
66.758174
 20
414.195845
 10
66.758174
 20
417.195867
  0
LWPOLYLINE
  5
162
330
1F
100
AcDbEntity
  8
0
 62
     7
100
AcDbPolyline
 90
        4
 70
   128
 43
0.0
 10
66.758174
 20
414.195845
 10
58.681256
 20
414.195845
 10
58.681256
 20
417.195867
 10
50.604339
 20
417.195867
  0
LWPOLYLINE
  5
163
330
1F
100
AcDbEntity
  8
0
 62
     7
100
AcDbPolyline
 90
        2
 70
   128
 43
0.0
 10
50.604339
 20
414.195845
 10
50.604339
 20
417.195867
  0
LWPOLYLINE
  5
164
330
1F
100
AcDbEntity
  8
0
 62
     7
100
AcDbPolyline
 90
        4
 70
   128
 43
0.0
 10
50.604339
 20
414.195845
 10
42.52742
 20
414.195845
 10
42.52742
 20
417.195867
 10
34.450502
 20
417.195867
  0
LWPOLYLINE
  5
165
330
1F
100
AcDbEntity
  8
0
 62
     7
100
AcDbPolyline
 90
        2
 70
   128
 43
0.0
 10
34.450502
 20
414.195845
 10
34.450502
 20
417.195867
  0
LWPOLYLINE
  5
166
330
1F
100
AcDbEntity
  8
0
 62
     7
100
AcDbPolyline
 90
        4
 70
   128
 43
0.0
 10
34.450502
 20
414.195845
 10
26.37355
 20
414.195845
 10
26.37355
 20
417.195867
 10
18.296631
 20
417.195867
  0
LWPOLYLINE
  5
167
330
1F
100
AcDbEntity
  8
0
 62
     7
100
AcDbPolyline
 90
        2
 70
   128
 43
0.0
 10
18.296631
 20
414.195845
 10
18.296631
 20
417.195867
  0
LWPOLYLINE
  5
168
330
1F
100
AcDbEntity
  8
0
 62
     7
100
AcDbPolyline
 90
        4
 70
   128
 43
0.0
 10
18.296631
 20
414.195845
 10
10.219714
 20
414.195845
 10
10.219714
 20
417.195867
 10
2.142796
 20
417.195867
  0
LWPOLYLINE
  5
169
330
1F
100
AcDbEntity
  8
0
 62
     7
100
AcDbPolyline
 90
        2
 70
   128
 43
0.0
 10
2.142796
 20
414.195845
 10
2.142796
 20
417.195867
  0
LWPOLYLINE
  5
16A
330
1F
100
AcDbEntity
  8
0
 62
     7
100
AcDbPolyline
 90
        4
 70
   128
 43
0.0
 10
2.142796
 20
414.195845
 10
-5.934121
 20
414.195845
 10
-5.934121
 20
417.195867
 10
-14.011039
 20
417.195867
  0
LWPOLYLINE
  5
16B
330
1F
100
AcDbEntity
  8
0
 62
     7
100
AcDbPolyline
 90
        2
 70
   128
 43
0.0
 10
-14.011039
 20
414.195845
 10
-14.011039
 20
417.195867
  0
LWPOLYLINE
  5
16C
330
1F
100
AcDbEntity
  8
0
 62
     7
100
AcDbPolyline
 90
        4
 70
   128
 43
0.0
 10
-14.011039
 20
414.195845
 10
-22.087958
 20
414.195845
 10
-22.087958
 20
417.195867
 10
-27.164888
 20
417.195867
  0
LWPOLYLINE
  5
16D
330
1F
100
AcDbEntity
  8
0
 62
     7
100
AcDbPolyline
 90
        2
 70
   128
 43
0.0
 10
71.835105
 20
452.529031
 10
74.835091
 20
452.529031
  0
LWPOLYLINE
  5
16E
330
1F
100
AcDbEntity
  8
0
 62
     7
100
AcDbPolyline
 90
        4
 70
   128
 43
0.0
 10
71.835105
 20
452.529031
 10
71.835105
 20
444.862464
 10
74.835091
 20
444.862464
 10
74.835091
 20
437.195897
  0
LWPOLYLINE
  5
16F
330
1F
100
AcDbEntity
  8
0
 62
     7
100
AcDbPolyline
 90
        2
 70
   128
 43
0.0
 10
71.835105
 20
437.195897
 10
74.835091
 20
437.195897
  0
LWPOLYLINE
  5
170
330
1F
100
AcDbEntity
  8
0
 62
     7
100
AcDbPolyline
 90
        4
 70
   128
 43
0.0
 10
71.835105
 20
437.195897
 10
71.835105
 20
429.528979
 10
74.835091
 20
429.528979
 10
74.835091
 20
421.862411
  0
LWPOLYLINE
  5
171
330
1F
100
AcDbEntity
  8
0
 62
     7
100
AcDbPolyline
 90
        2
 70
   128
 43
0.0
 10
71.835105
 20
421.862411
 10
74.835091
 20
421.862411
  0
LWPOLYLINE
  5
172
330
1F
100
AcDbEntity
  8
0
 62
     7
100
AcDbPolyline
 90
        2
 70
   128
 43
0.0
 10
71.835105
 20
421.862411
 10
71.835105
 20
417.195867
  0
LWPOLYLINE
  5
173
330
1F
100
AcDbEntity
  8
0
 62
     7
100
AcDbPolyline
 90
        2
 70
   128
 43
0.0
 10
-30.16491
 20
444.862464
 10
-27.164888
 20
444.862464
  0
LWPOLYLINE
  5
174
330
1F
100
AcDbEntity
  8
0
 62
     7
100
AcDbPolyline
 90
        4
 70
   128
 43
0.0
 10
-30.16491
 20
444.862464
 10
-30.16491
 20
437.195897
 10
-27.164888
 20
437.195897
 10
-27.164888
 20
429.528979
  0
LWPOLYLINE
  5
175
330
1F
100
AcDbEntity
  8
0
 62
     7
100
AcDbPolyline
 90
        2
 70
   128
 43
0.0
 10
-30.16491
 20
429.528979
 10
-27.164888
 20
429.528979
  0
LWPOLYLINE
  5
176
330
1F
100
AcDbEntity
  8
0
 62
     7
100
AcDbPolyline
 90
        4
 70
   128
 43
0.0
 10
-30.16491
 20
429.528979
 10
-30.16491
 20
421.862411
 10
-27.164888
 20
421.862411
 10
-27.164888
 20
417.195867
  0
LINE
  5
177
330
1F
100
AcDbEntity
  8
0
  6
ByBlock
100
AcDbLine
 10
74.835091
 20
459.195845
 30
0.0
 11
-30.16491
 21
459.195845
 31
0.0
  0
LINE
  5
178
330
1F
100
AcDbEntity
  8
0
  6
ByBlock
100
AcDbLine
 10
74.835091
 20
452.529031
 30
0.0
 11
74.835091
 21
459.195845
 31
0.0
  0
LINE
  5
179
330
1F
100
AcDbEntity
  8
0
  6
ByBlock
100
AcDbLine
 10
-27.164888
 20
444.862464
 30
0.0
 11
-27.164888
 21
452.529031
 31
0.0
  0
LINE
  5
17A
330
1F
100
AcDbEntity
  8
0
  6
ByBlock
100
AcDbLine
 10
-27.164888
 20
452.529031
 30
0.0
 11
-30.16491
 21
452.529031
 31
0.0
  0
LINE
  5
17B
330
1F
100
AcDbEntity
  8
0
  6
ByBlock
100
AcDbLine
 10
-30.16491
 20
452.529031
 30
0.0
 11
-30.16491
 21
459.195845
 31
0.0
  0
CIRCLE
  5
17C
330
1F
100
AcDbEntity
  8
0
  6
ByBlock
100
AcDbCircle
 10
13.796745
 20
444.58297
 30
0.0
 40
3.25
  0
LWPOLYLINE
  5
17D
330
1F
100
AcDbEntity
  8
0
  6
ByBlock
100
AcDbPolyline
 90
        5
 70
   129
 43
0.0
 10
30.796745
 20
449.323378
 10
30.796745
 20
452.323378
 10
27.796745
 20
452.323378
 10
27.796745
 20
449.323378
 10
30.796745
 20
449.323378
  0
LWPOLYLINE
  5
17E
330
1F
100
AcDbEntity
  8
0
  6
ByBlock
100
AcDbPolyline
 90
        5
 70
   129
 43
0.0
 10
24.796745
 20
449.323378
 10
24.796745
 20
452.323378
 10
21.796745
 20
452.323378
 10
21.796745
 20
449.323378
 10
24.796745
 20
449.323378
  0
LINE
  5
17F
330
1F
100
AcDbEntity
  8
0
  6
ByBlock
100
AcDbLine
 10
-22.57401
 20
294.671853
 30
0.0
 11
-22.57401
 21
291.671853
 31
0.0
  0
LINE
  5
180
330
1F
100
AcDbEntity
  8
0
  6
ByBlock
100
AcDbLine
 10
-22.57401
 20
291.671853
 30
0.0
 11
-19.57401
 21
291.671853
 31
0.0
  0
LINE
  5
181
330
1F
100
AcDbEntity
  8
0
  6
ByBlock
100
AcDbLine
 10
-19.57401
 20
291.671853
 30
0.0
 11
-19.57401
 21
294.671853
 31
0.0
  0
LINE
  5
182
330
1F
100
AcDbEntity
  8
0
  6
ByBlock
100
AcDbLine
 10
-19.57401
 20
294.671853
 30
0.0
 11
-16.57401
 21
294.671853
 31
0.0
  0
LINE
  5
183
330
1F
100
AcDbEntity
  8
0
  6
ByBlock
100
AcDbLine
 10
-16.57401
 20
294.671853
 30
0.0
 11
-16.57401
 21
291.671853
 31
0.0
  0
LINE
  5
184
330
1F
100
AcDbEntity
  8
0
  6
ByBlock
100
AcDbLine
 10
-16.57401
 20
291.671853
 30
0.0
 11
-13.57401
 21
291.671853
 31
0.0
  0
LINE
  5
185
330
1F
100
AcDbEntity
  8
0
  6
ByBlock
100
AcDbLine
 10
-13.57401
 20
291.671853
 30
0.0
 11
-13.57401
 21
294.671853
 31
0.0
  0
LINE
  5
186
330
1F
100
AcDbEntity
  8
0
  6
ByBlock
100
AcDbLine
 10
-13.57401
 20
294.671853
 30
0.0
 11
-10.57401
 21
294.671853
 31
0.0
  0
LINE
  5
187
330
1F
100
AcDbEntity
  8
0
  6
ByBlock
100
AcDbLine
 10
-10.57401
 20
294.671853
 30
0.0
 11
-10.57401
 21
291.671853
 31
0.0
  0
LINE
  5
188
330
1F
100
AcDbEntity
  8
0
  6
ByBlock
100
AcDbLine
 10
-10.57401
 20
291.671853
 30
0.0
 11
-7.57401
 21
291.671853
 31
0.0
  0
LINE
  5
189
330
1F
100
AcDbEntity
  8
0
  6
ByBlock
100
AcDbLine
 10
-7.57401
 20
291.671853
 30
0.0
 11
-7.57401
 21
294.671853
 31
0.0
  0
LINE
  5
18A
330
1F
100
AcDbEntity
  8
0
  6
ByBlock
100
AcDbLine
 10
-22.57401
 20
294.671853
 30
0.0
 11
-25.57401
 21
294.671853
 31
0.0
  0
LINE
  5
18B
330
1F
100
AcDbEntity
  8
0
  6
ByBlock
100
AcDbLine
 10
-25.57401
 20
294.671853
 30
0.0
 11
-25.57401
 21
291.671853
 31
0.0
  0
LINE
  5
18C
330
1F
100
AcDbEntity
  8
0
  6
ByBlock
100
AcDbLine
 10
-25.57401
 20
291.671853
 30
0.0
 11
-28.57401
 21
291.671853
 31
0.0
  0
LINE
  5
18D
330
1F
100
AcDbEntity
  8
0
  6
ByBlock
100
AcDbLine
 10
-28.57401
 20
291.671853
 30
0.0
 11
-28.57401
 21
294.671853
 31
0.0
  0
LINE
  5
18E
330
1F
100
AcDbEntity
  8
0
  6
ByBlock
100
AcDbLine
 10
-28.57401
 20
294.671853
 30
0.0
 11
-34.57401
 21
294.671853
 31
0.0
  0
LINE
  5
18F
330
1F
100
AcDbEntity
  8
0
  6
ByBlock
100
AcDbLine
 10
-7.57401
 20
294.671853
 30
0.0
 11
-2.233854
 21
294.671853
 31
0.0
  0
LINE
  5
190
330
1F
100
AcDbEntity
  8
0
  6
ByBlock
100
AcDbLine
 10
-2.233854
 20
294.671853
 30
0.0
 11
-2.233854
 21
314.671853
 31
0.0
  0
LINE
  5
191
330
1F
100
AcDbEntity
  8
0
  6
ByBlock
100
AcDbLine
 10
-2.233854
 20
314.671853
 30
0.0
 11
-34.57401
 21
314.671853
 31
0.0
  0
LINE
  5
192
330
1F
100
AcDbEntity
  8
0
  6
ByBlock
100
AcDbLine
 10
-34.57401
 20
294.671853
 30
0.0
 11
-34.57401
 21
314.671853
 31
0.0
  0
LWPOLYLINE
  5
193
330
1F
100
AcDbEntity
  8
0
 62
     7
100
AcDbPolyline
 90
        2
 70
   128
 43
0.0
 10
78.904988
 20
278.203964
 10
86.981906
 20
278.203964
  0
LWPOLYLINE
  5
194
330
1F
100
AcDbEntity
  8
0
 62
     7
100
AcDbPolyline
 90
        2
 70
   128
 43
0.0
 10
86.981906
 20
275.203941
 10
86.981906
 20
278.203964
  0
LWPOLYLINE
  5
195
330
1F
100
AcDbEntity
  8
0
 62
     7
100
AcDbPolyline
 90
        4
 70
   128
 43
0.0
 10
86.981906
 20
275.203941
 10
95.058823
 20
275.203941
 10
95.058823
 20
278.203964
 10
103.135741
 20
278.203964
  0
LWPOLYLINE
  5
196
330
1F
100
AcDbEntity
  8
0
 62
     7
100
AcDbPolyline
 90
        2
 70
   128
 43
0.0
 10
103.135741
 20
275.203941
 10
103.135741
 20
278.203964
  0
LWPOLYLINE
  5
197
330
1F
100
AcDbEntity
  8
0
 62
     7
100
AcDbPolyline
 90
        4
 70
   128
 43
0.0
 10
103.135741
 20
275.203941
 10
111.21266
 20
275.203941
 10
111.21266
 20
278.203964
 10
119.289577
 20
278.203964
  0
LWPOLYLINE
  5
198
330
1F
100
AcDbEntity
  8
0
 62
     7
100
AcDbPolyline
 90
        2
 70
   128
 43
0.0
 10
119.289577
 20
275.203941
 10
119.289577
 20
278.203964
  0
LWPOLYLINE
  5
199
330
1F
100
AcDbEntity
  8
0
 62
     7
100
AcDbPolyline
 90
        4
 70
   128
 43
0.0
 10
119.289577
 20
275.203941
 10
127.36653
 20
275.203941
 10
127.36653
 20
278.203964
 10
135.443448
 20
278.203964
  0
LWPOLYLINE
  5
19A
330
1F
100
AcDbEntity
  8
0
 62
     7
100
AcDbPolyline
 90
        2
 70
   128
 43
0.0
 10
135.443448
 20
275.203941
 10
135.443448
 20
278.203964
  0
LWPOLYLINE
  5
19B
330
1F
100
AcDbEntity
  8
0
 62
     7
100
AcDbPolyline
 90
        4
 70
   128
 43
0.0
 10
135.443448
 20
275.203941
 10
143.520366
 20
275.203941
 10
143.520366
 20
278.203964
 10
151.597283
 20
278.203964
  0
LWPOLYLINE
  5
19C
330
1F
100
AcDbEntity
  8
0
 62
     7
100
AcDbPolyline
 90
        2
 70
   128
 43
0.0
 10
151.597283
 20
275.203941
 10
151.597283
 20
278.203964
  0
LWPOLYLINE
  5
19D
330
1F
100
AcDbEntity
  8
0
 62
     7
100
AcDbPolyline
 90
        4
 70
   128
 43
0.0
 10
151.597283
 20
275.203941
 10
159.674201
 20
275.203941
 10
159.674201
 20
278.203964
 10
167.751118
 20
278.203964
  0
LWPOLYLINE
  5
19E
330
1F
100
AcDbEntity
  8
0
 62
     7
100
AcDbPolyline
 90
        2
 70
   128
 43
0.0
 10
167.751118
 20
275.203941
 10
167.751118
 20
278.203964
  0
LWPOLYLINE
  5
19F
330
1F
100
AcDbEntity
  8
0
 62
     7
100
AcDbPolyline
 90
        4
 70
   128
 43
0.0
 10
167.751118
 20
275.203941
 10
175.828037
 20
275.203941
 10
175.828037
 20
278.203964
 10
180.904967
 20
278.203964
  0
LWPOLYLINE
  5
1A0
330
1F
100
AcDbEntity
  8
0
 62
     7
100
AcDbPolyline
 90
        4
 70
   128
 43
0.0
 10
78.904988
 20
223.203969
 10
86.981906
 20
223.203969
 10
86.981906
 20
226.203955
 10
95.058823
 20
226.203955
  0
LWPOLYLINE
  5
1A1
330
1F
100
AcDbEntity
  8
0
 62
     7
100
AcDbPolyline
 90
        2
 70
   128
 43
0.0
 10
95.058823
 20
223.203969
 10
95.058823
 20
226.203955
  0
LWPOLYLINE
  5
1A2
330
1F
100
AcDbEntity
  8
0
 62
     7
100
AcDbPolyline
 90
        4
 70
   128
 43
0.0
 10
95.058823
 20
223.203969
 10
103.135741
 20
223.203969
 10
103.135741
 20
226.203955
 10
111.21266
 20
226.203955
  0
LWPOLYLINE
  5
1A3
330
1F
100
AcDbEntity
  8
0
 62
     7
100
AcDbPolyline
 90
        2
 70
   128
 43
0.0
 10
111.21266
 20
223.203969
 10
111.21266
 20
226.203955
  0
LWPOLYLINE
  5
1A4
330
1F
100
AcDbEntity
  8
0
 62
     7
100
AcDbPolyline
 90
        4
 70
   128
 43
0.0
 10
111.21266
 20
223.203969
 10
119.289577
 20
223.203969
 10
119.289577
 20
226.203955
 10
127.36653
 20
226.203955
  0
LWPOLYLINE
  5
1A5
330
1F
100
AcDbEntity
  8
0
 62
     7
100
AcDbPolyline
 90
        2
 70
   128
 43
0.0
 10
127.36653
 20
223.203969
 10
127.36653
 20
226.203955
  0
LWPOLYLINE
  5
1A6
330
1F
100
AcDbEntity
  8
0
 62
     7
100
AcDbPolyline
 90
        4
 70
   128
 43
0.0
 10
127.36653
 20
223.203969
 10
135.443448
 20
223.203969
 10
135.443448
 20
226.203955
 10
143.520366
 20
226.203955
  0
LWPOLYLINE
  5
1A7
330
1F
100
AcDbEntity
  8
0
 62
     7
100
AcDbPolyline
 90
        2
 70
   128
 43
0.0
 10
143.520366
 20
223.203969
 10
143.520366
 20
226.203955
  0
LWPOLYLINE
  5
1A8
330
1F
100
AcDbEntity
  8
0
 62
     7
100
AcDbPolyline
 90
        4
 70
   128
 43
0.0
 10
143.520366
 20
223.203969
 10
151.597283
 20
223.203969
 10
151.597283
 20
226.203955
 10
159.674201
 20
226.203955
  0
LWPOLYLINE
  5
1A9
330
1F
100
AcDbEntity
  8
0
 62
     7
100
AcDbPolyline
 90
        2
 70
   128
 43
0.0
 10
159.674201
 20
223.203969
 10
159.674201
 20
226.203955
  0
LWPOLYLINE
  5
1AA
330
1F
100
AcDbEntity
  8
0
 62
     7
100
AcDbPolyline
 90
        4
 70
   128
 43
0.0
 10
159.674201
 20
223.203969
 10
167.751118
 20
223.203969
 10
167.751118
 20
226.203955
 10
175.828037
 20
226.203955
  0
LWPOLYLINE
  5
1AB
330
1F
100
AcDbEntity
  8
0
 62
     7
100
AcDbPolyline
 90
        2
 70
   128
 43
0.0
 10
175.828037
 20
223.203969
 10
175.828037
 20
226.203955
  0
LWPOLYLINE
  5
1AC
330
1F
100
AcDbEntity
  8
0
 62
     7
100
AcDbPolyline
 90
        2
 70
   128
 43
0.0
 10
175.828037
 20
223.203969
 10
180.904967
 20
223.203969
  0
LWPOLYLINE
  5
1AD
330
1F
100
AcDbEntity
  8
0
 62
     7
100
AcDbPolyline
 90
        2
 70
   128
 43
0.0
 10
78.904988
 20
278.203964
 10
78.904988
 20
270.346826
  0
LWPOLYLINE
  5
1AE
330
1F
100
AcDbEntity
  8
0
 62
     7
100
AcDbPolyline
 90
        2
 70
   128
 43
0.0
 10
81.904975
 20
270.346826
 10
78.904988
 20
270.346826
  0
LWPOLYLINE
  5
1AF
330
1F
100
AcDbEntity
  8
0
 62
     7
100
AcDbPolyline
 90
        4
 70
   128
 43
0.0
 10
81.904975
 20
270.346826
 10
81.904975
 20
262.489654
 10
78.904988
 20
262.489654
 10
78.904988
 20
254.632518
  0
LWPOLYLINE
  5
1B0
330
1F
100
AcDbEntity
  8
0
 62
     7
100
AcDbPolyline
 90
        2
 70
   128
 43
0.0
 10
81.904975
 20
254.632518
 10
78.904988
 20
254.632518
  0
LWPOLYLINE
  5
1B1
330
1F
100
AcDbEntity
  8
0
 62
     7
100
AcDbPolyline
 90
        4
 70
   128
 43
0.0
 10
81.904975
 20
254.632518
 10
81.904975
 20
246.77538
 10
78.904988
 20
246.77538
 10
78.904988
 20
238.918243
  0
LWPOLYLINE
  5
1B2
330
1F
100
AcDbEntity
  8
0
 62
     7
100
AcDbPolyline
 90
        2
 70
   128
 43
0.0
 10
81.904975
 20
238.918243
 10
78.904988
 20
238.918243
  0
LWPOLYLINE
  5
1B3
330
1F
100
AcDbEntity
  8
0
 62
     7
100
AcDbPolyline
 90
        4
 70
   128
 43
0.0
 10
81.904975
 20
238.918243
 10
81.904975
 20
231.061105
 10
78.904988
 20
231.061105
 10
78.904988
 20
223.203969
  0
LWPOLYLINE
  5
1B4
330
1F
100
AcDbEntity
  8
0
 62
     7
100
AcDbPolyline
 90
        2
 70
   128
 43
0.0
 10
180.904967
 20
278.203964
 10
180.904967
 20
270.346826
  0
LWPOLYLINE
  5
1B5
330
1F
100
AcDbEntity
  8
0
 62
     7
100
AcDbPolyline
 90
        2
 70
   128
 43
0.0
 10
183.90499
 20
270.346826
 10
180.904967
 20
270.346826
  0
LWPOLYLINE
  5
1B6
330
1F
100
AcDbEntity
  8
0
 62
     7
100
AcDbPolyline
 90
        4
 70
   128
 43
0.0
 10
183.90499
 20
270.346826
 10
183.90499
 20
262.489654
 10
180.904967
 20
262.489654
 10
180.904967
 20
254.632518
  0
LWPOLYLINE
  5
1B7
330
1F
100
AcDbEntity
  8
0
 62
     7
100
AcDbPolyline
 90
        2
 70
   128
 43
0.0
 10
183.90499
 20
254.632518
 10
180.904967
 20
254.632518
  0
LWPOLYLINE
  5
1B8
330
1F
100
AcDbEntity
  8
0
 62
     7
100
AcDbPolyline
 90
        4
 70
   128
 43
0.0
 10
183.90499
 20
254.632518
 10
183.90499
 20
246.77538
 10
180.904967
 20
246.77538
 10
180.904967
 20
238.918243
  0
LWPOLYLINE
  5
1B9
330
1F
100
AcDbEntity
  8
0
 62
     7
100
AcDbPolyline
 90
        2
 70
   128
 43
0.0
 10
183.90499
 20
238.918243
 10
180.904967
 20
238.918243
  0
LWPOLYLINE
  5
1BA
330
1F
100
AcDbEntity
  8
0
 62
     7
100
AcDbPolyline
 90
        4
 70
   128
 43
0.0
 10
183.90499
 20
238.918243
 10
183.90499
 20
231.061105
 10
180.904967
 20
231.061105
 10
180.904967
 20
223.203969
  0
LWPOLYLINE
  5
1BB
330
1F
100
AcDbEntity
  8
0
 62
     7
100
AcDbPolyline
 90
        2
 70
   128
 43
0.0
 10
81.393566
 20
409.06035
 10
89.470484
 20
409.06035
  0
LWPOLYLINE
  5
1BC
330
1F
100
AcDbEntity
  8
0
 62
     7
100
AcDbPolyline
 90
        2
 70
   128
 43
0.0
 10
89.470484
 20
412.060347
 10
89.470484
 20
409.06035
  0
LWPOLYLINE
  5
1BD
330
1F
100
AcDbEntity
  8
0
 62
     7
100
AcDbPolyline
 90
        4
 70
   128
 43
0.0
 10
89.470484
 20
412.060347
 10
97.547401
 20
412.060347
 10
97.547401
 20
409.06035
 10
105.624319
 20
409.06035
  0
LWPOLYLINE
  5
1BE
330
1F
100
AcDbEntity
  8
0
 62
     7
100
AcDbPolyline
 90
        2
 70
   128
 43
0.0
 10
105.624319
 20
412.060347
 10
105.624319
 20
409.06035
  0
LWPOLYLINE
  5
1BF
330
1F
100
AcDbEntity
  8
0
 62
     7
100
AcDbPolyline
 90
        4
 70
   128
 43
0.0
 10
105.624319
 20
412.060347
 10
113.701237
 20
412.060347
 10
113.701237
 20
409.06035
 10
121.778155
 20
409.06035
  0
LWPOLYLINE
  5
1C0
330
1F
100
AcDbEntity
  8
0
 62
     7
100
AcDbPolyline
 90
        2
 70
   128
 43
0.0
 10
121.778155
 20
412.060347
 10
121.778155
 20
409.06035
  0
LWPOLYLINE
  5
1C1
330
1F
100
AcDbEntity
  8
0
 62
     7
100
AcDbPolyline
 90
        4
 70
   128
 43
0.0
 10
121.778155
 20
412.060347
 10
129.855107
 20
412.060347
 10
129.855107
 20
409.06035
 10
137.932026
 20
409.06035
  0
LWPOLYLINE
  5
1C2
330
1F
100
AcDbEntity
  8
0
 62
     7
100
AcDbPolyline
 90
        2
 70
   128
 43
0.0
 10
137.932026
 20
412.060347
 10
137.932026
 20
409.06035
  0
LWPOLYLINE
  5
1C3
330
1F
100
AcDbEntity
  8
0
 62
     7
100
AcDbPolyline
 90
        4
 70
   128
 43
0.0
 10
137.932026
 20
412.060347
 10
146.008944
 20
412.060347
 10
146.008944
 20
409.06035
 10
154.085861
 20
409.06035
  0
LWPOLYLINE
  5
1C4
330
1F
100
AcDbEntity
  8
0
 62
     7
100
AcDbPolyline
 90
        2
 70
   128
 43
0.0
 10
154.085861
 20
412.060347
 10
154.085861
 20
409.06035
  0
LWPOLYLINE
  5
1C5
330
1F
100
AcDbEntity
  8
0
 62
     7
100
AcDbPolyline
 90
        4
 70
   128
 43
0.0
 10
154.085861
 20
412.060347
 10
162.162778
 20
412.060347
 10
162.162778
 20
409.06035
 10
170.239696
 20
409.06035
  0
LWPOLYLINE
  5
1C6
330
1F
100
AcDbEntity
  8
0
 62
     7
100
AcDbPolyline
 90
        2
 70
   128
 43
0.0
 10
170.239696
 20
412.060347
 10
170.239696
 20
409.06035
  0
LWPOLYLINE
  5
1C7
330
1F
100
AcDbEntity
  8
0
 62
     7
100
AcDbPolyline
 90
        4
 70
   128
 43
0.0
 10
170.239696
 20
412.060347
 10
178.316615
 20
412.060347
 10
178.316615
 20
409.06035
 10
183.393545
 20
409.06035
  0
LWPOLYLINE
  5
1C8
330
1F
100
AcDbEntity
  8
0
 62
     7
100
AcDbPolyline
 90
        2
 70
   128
 43
0.0
 10
81.393566
 20
409.06035
 10
81.393566
 20
416.917491
  0
LWPOLYLINE
  5
1C9
330
1F
100
AcDbEntity
  8
0
 62
     7
100
AcDbPolyline
 90
        2
 70
   128
 43
0.0
 10
84.393552
 20
416.917491
 10
81.393566
 20
416.917491
  0
LWPOLYLINE
  5
1CA
330
1F
100
AcDbEntity
  8
0
 62
     7
100
AcDbPolyline
 90
        4
 70
   128
 43
0.0
 10
84.393552
 20
416.917491
 10
84.393552
 20
424.774635
 10
81.393566
 20
424.774635
 10
81.393566
 20
432.631776
  0
LWPOLYLINE
  5
1CB
330
1F
100
AcDbEntity
  8
0
 62
     7
100
AcDbPolyline
 90
        2
 70
   128
 43
0.0
 10
84.393552
 20
432.631776
 10
81.393566
 20
432.631776
  0
LWPOLYLINE
  5
1CC
330
1F
100
AcDbEntity
  8
0
 62
     7
100
AcDbPolyline
 90
        4
 70
   128
 43
0.0
 10
84.393552
 20
432.631776
 10
84.393552
 20
440.488913
 10
81.393566
 20
440.488913
 10
81.393566
 20
448.34605
  0
LWPOLYLINE
  5
1CD
330
1F
100
AcDbEntity
  8
0
 62
     7
100
AcDbPolyline
 90
        2
 70
   128
 43
0.0
 10
84.393552
 20
448.34605
 10
81.393566
 20
448.34605
  0
LWPOLYLINE
  5
1CE
330
1F
100
AcDbEntity
  8
0
 62
     7
100
AcDbPolyline
 90
        4
 70
   128
 43
0.0
 10
84.393552
 20
448.34605
 10
84.393552
 20
456.203222
 10
81.393566
 20
456.203222
 10
81.393566
 20
460.99052
  0
LWPOLYLINE
  5
1CF
330
1F
100
AcDbEntity
  8
0
 62
     7
100
AcDbPolyline
 90
        2
 70
   128
 43
0.0
 10
183.393545
 20
409.06035
 10
183.393545
 20
416.917491
  0
LWPOLYLINE
  5
1D0
330
1F
100
AcDbEntity
  8
0
 62
     7
100
AcDbPolyline
 90
        2
 70
   128
 43
0.0
 10
186.393567
 20
416.917491
 10
183.393545
 20
416.917491
  0
LWPOLYLINE
  5
1D1
330
1F
100
AcDbEntity
  8
0
 62
     7
100
AcDbPolyline
 90
        4
 70
   128
 43
0.0
 10
186.393567
 20
416.917491
 10
186.393567
 20
424.774635
 10
183.393545
 20
424.774635
 10
183.393545
 20
432.631776
  0
LWPOLYLINE
  5
1D2
330
1F
100
AcDbEntity
  8
0
 62
     7
100
AcDbPolyline
 90
        2
 70
   128
 43
0.0
 10
186.393567
 20
432.631776
 10
183.393545
 20
432.631776
  0
LWPOLYLINE
  5
1D3
330
1F
100
AcDbEntity
  8
0
 62
     7
100
AcDbPolyline
 90
        4
 70
   128
 43
0.0
 10
186.393567
 20
432.631776
 10
186.393567
 20
440.488913
 10
183.393545
 20
440.488913
 10
183.393545
 20
448.34605
  0
LWPOLYLINE
  5
1D4
330
1F
100
AcDbEntity
  8
0
 62
     7
100
AcDbPolyline
 90
        2
 70
   128
 43
0.0
 10
186.393567
 20
448.34605
 10
183.393545
 20
448.34605
  0
LWPOLYLINE
  5
1D5
330
1F
100
AcDbEntity
  8
0
 62
     7
100
AcDbPolyline
 90
        4
 70
   128
 43
0.0
 10
186.393567
 20
448.34605
 10
186.393567
 20
456.203222
 10
183.393545
 20
456.203222
 10
183.392683
 20
460.988335
  0
LINE
  5
1D6
330
1F
100
AcDbEntity
  8
0
  6
ByBlock
100
AcDbLine
 10
201.78983
 20
473.281835
 30
0.0
 11
306.78983
 21
473.281835
 31
0.0
  0
CIRCLE
  5
1D7
330
1F
100
AcDbEntity
  8
0
  6
ByBlock
100
AcDbCircle
 10
175.140948
 20
457.952456
 30
-23.943072
 40
1.3
  0
CIRCLE
  5
1D8
330
1F
100
AcDbEntity
  8
0
  6
ByBlock
100
AcDbCircle
 10
158.640951
 20
457.942282
 30
-23.943072
 40
1.3
  0
CIRCLE
  5
1D9
330
1F
100
AcDbEntity
  8
0
  6
ByBlock
100
AcDbCircle
 10
96.512733
 20
457.752456
 30
0.0
 40
1.5
  0
CIRCLE
  5
1DA
330
1F
100
AcDbEntity
  8
0
  6
ByBlock
100
AcDbCircle
 10
113.012733
 20
457.931823
 30
0.0
 40
1.3
  0
CIRCLE
  5
1DB
330
1F
100
AcDbEntity
  8
0
  6
ByBlock
100
AcDbCircle
 10
94.953203
 20
417.948813
 30
0.0
 40
1.3
  0
CIRCLE
  5
1DC
330
1F
100
AcDbEntity
  8
0
  6
ByBlock
100
AcDbCircle
 10
94.974375
 20
433.977151
 30
0.0
 40
1.3
  0
CIRCLE
  5
1DD
330
1F
100
AcDbEntity
  8
0
  6
ByBlock
100
AcDbCircle
 10
94.965875
 20
426.611658
 30
0.0
 40
3.0
  0
LINE
  5
1DE
330
1F
100
AcDbEntity
  8
0
  6
ByBlock
100
AcDbLine
 10
201.78983
 20
406.781835
 30
0.0
 11
306.78983
 21
406.781835
 31
0.0
  0
LINE
  5
1DF
330
1F
100
AcDbEntity
  8
0
  6
ByBlock
100
AcDbLine
 10
183.392683
 20
460.988335
 30
0.0
 11
81.393566
 21
460.99052
 31
0.0
  0
ARC
  5
1E0
330
1F
100
AcDbEntity
  8
0
  6
ByBlock
100
AcDbCircle
 10
55.661302
 20
241.868854
 30
0.0
 40
8.784957106814185
100
AcDbArc
 50
117.700639
 51
12.442412
  0
LINE
  5
1E1
330
1F
100
AcDbEntity
  8
0
  6
ByBlock
100
AcDbLine
 10
51.577597
 20
249.646954
 30
0.0
 11
50.329199
 21
252.322094
 31
0.0
  0
LINE
  5
1E2
330
1F
100
AcDbEntity
  8
0
  6
ByBlock
100
AcDbLine
 10
50.329199
 20
252.322094
 30
0.0
 11
48.902458
 21
254.997234
 31
0.0
  0
LINE
  5
1E3
330
1F
100
AcDbEntity
  8
0
  6
ByBlock
100
AcDbLine
 10
48.902458
 20
254.997234
 30
0.0
 11
47.475717
 21
256.959003
 31
0.0
  0
LINE
  5
1E4
330
1F
100
AcDbEntity
  8
0
  6
ByBlock
100
AcDbLine
 10
47.475717
 20
256.959003
 30
0.0
 11
44.443891
 21
259.812485
 31
0.0
  0
LINE
  5
1E5
330
1F
100
AcDbEntity
  8
0
  6
ByBlock
100
AcDbLine
 10
44.443891
 20
259.812485
 30
0.0
 11
40.698696
 21
261.595912
 31
0.0
  0
LINE
  5
1E6
330
1F
100
AcDbEntity
  8
0
  6
ByBlock
100
AcDbLine
 10
40.698696
 20
261.595912
 30
0.0
 11
37.845213
 21
262.665968
 31
0.0
  0
LINE
  5
1E7
330
1F
100
AcDbEntity
  8
0
  6
ByBlock
100
AcDbLine
 10
37.845213
 20
262.665968
 30
0.0
 11
34.456703
 21
263.022653
 31
0.0
  0
LINE
  5
1E8
330
1F
100
AcDbEntity
  8
0
  6
ByBlock
100
AcDbLine
 10
34.456703
 20
263.022653
 30
0.0
 11
30.533165
 21
262.665968
 31
0.0
  0
LINE
  5
1E9
330
1F
100
AcDbEntity
  8
0
  6
ByBlock
100
AcDbLine
 10
30.533165
 20
262.665968
 30
0.0
 11
27.144654
 21
261.595912
 31
0.0
  0
LINE
  5
1EA
330
1F
100
AcDbEntity
  8
0
  6
ByBlock
100
AcDbLine
 10
27.144654
 20
261.595912
 30
0.0
 11
23.934486
 21
259.812485
 31
0.0
  0
LINE
  5
1EB
330
1F
100
AcDbEntity
  8
0
  6
ByBlock
100
AcDbLine
 10
23.934486
 20
259.812485
 30
0.0
 11
20.90266
 21
256.602317
 31
0.0
  0
LINE
  5
1EC
330
1F
100
AcDbEntity
  8
0
  6
ByBlock
100
AcDbLine
 10
20.90266
 20
256.602317
 30
0.0
 11
18.405863
 21
252.322094
 31
0.0
  0
LINE
  5
1ED
330
1F
100
AcDbEntity
  8
0
  6
ByBlock
100
AcDbLine
 10
18.405863
 20
252.322094
 30
0.0
 11
17.157464
 21
248.933583
 31
0.0
  0
LINE
  5
1EE
330
1F
100
AcDbEntity
  8
0
  6
ByBlock
100
AcDbLine
 10
17.157464
 20
248.933583
 30
0.0
 11
16.800779
 21
243.583303
 31
0.0
  0
LINE
  5
1EF
330
1F
100
AcDbEntity
  8
0
  6
ByBlock
100
AcDbLine
 10
16.800779
 20
243.583303
 30
0.0
 11
17.51415
 21
240.551478
 31
0.0
  0
LINE
  5
1F0
330
1F
100
AcDbEntity
  8
0
  6
ByBlock
100
AcDbLine
 10
17.51415
 20
240.551478
 30
0.0
 11
15.195695
 21
238.946393
 31
0.0
  0
LINE
  5
1F1
330
1F
100
AcDbEntity
  8
0
  6
ByBlock
100
AcDbLine
 10
15.195695
 20
238.946393
 30
0.0
 11
14.303982
 21
240.729821
 31
0.0
  0
LINE
  5
1F2
330
1F
100
AcDbEntity
  8
0
  6
ByBlock
100
AcDbLine
 10
14.303982
 20
240.729821
 30
0.0
 11
14.125639
 21
245.723415
 31
0.0
  0
LINE
  5
1F3
330
1F
100
AcDbEntity
  8
0
  6
ByBlock
100
AcDbLine
 10
14.125639
 20
245.723415
 30
0.0
 11
14.303982
 21
250.181982
 31
0.0
  0
LINE
  5
1F4
330
1F
100
AcDbEntity
  8
0
  6
ByBlock
100
AcDbLine
 10
14.303982
 20
250.181982
 30
0.0
 11
15.909066
 21
255.710605
 31
0.0
  0
LINE
  5
1F5
330
1F
100
AcDbEntity
  8
0
  6
ByBlock
100
AcDbLine
 10
15.909066
 20
255.710605
 30
0.0
 11
18.762548
 21
260.525856
 31
0.0
  0
LINE
  5
1F6
330
1F
100
AcDbEntity
  8
0
  6
ByBlock
100
AcDbLine
 10
18.762548
 20
260.525856
 30
0.0
 11
21.794374
 21
263.557682
 31
0.0
  0
LINE
  5
1F7
330
1F
100
AcDbEntity
  8
0
  6
ByBlock
100
AcDbLine
 10
21.794374
 20
263.557682
 30
0.0
 11
26.609626
 21
267.302877
 31
0.0
  0
LINE
  5
1F8
330
1F
100
AcDbEntity
  8
0
  6
ByBlock
100
AcDbLine
 10
26.609626
 20
267.302877
 30
0.0
 11
29.998135
 21
269.086304
 31
0.0
  0
LINE
  5
1F9
330
1F
100
AcDbEntity
  8
0
  6
ByBlock
100
AcDbLine
 10
29.998135
 20
269.086304
 30
0.0
 11
35.170073
 21
270.334702
 31
0.0
  0
LINE
  5
1FA
330
1F
100
AcDbEntity
  8
0
  6
ByBlock
100
AcDbLine
 10
35.170073
 20
270.334702
 30
0.0
 11
41.05538
 21
270.691387
 31
0.0
  0
LINE
  5
1FB
330
1F
100
AcDbEntity
  8
0
  6
ByBlock
100
AcDbLine
 10
41.05538
 20
270.691387
 30
0.0
 11
45.69229
 21
269.799674
 31
0.0
  0
LINE
  5
1FC
330
1F
100
AcDbEntity
  8
0
  6
ByBlock
100
AcDbLine
 10
45.69229
 20
269.799674
 30
0.0
 11
48.724116
 21
268.551276
 31
0.0
  0
LINE
  5
1FD
330
1F
100
AcDbEntity
  8
0
  6
ByBlock
100
AcDbLine
 10
48.724116
 20
268.551276
 30
0.0
 11
52.112625
 21
266.946192
 31
0.0
  0
LINE
  5
1FE
330
1F
100
AcDbEntity
  8
0
  6
ByBlock
100
AcDbLine
 10
52.112625
 20
266.946192
 30
0.0
 11
55.679479
 21
264.271052
 31
0.0
  0
LINE
  5
1FF
330
1F
100
AcDbEntity
  8
0
  6
ByBlock
100
AcDbLine
 10
55.679479
 20
264.271052
 30
0.0
 11
59.781361
 21
259.634143
 31
0.0
  0
LINE
  5
200
330
1F
100
AcDbEntity
  8
0
  6
ByBlock
100
AcDbLine
 10
59.781361
 20
259.634143
 30
0.0
 11
62.456501
 21
254.997234
 31
0.0
  0
LINE
  5
201
330
1F
100
AcDbEntity
  8
0
  6
ByBlock
100
AcDbLine
 10
62.456501
 20
254.997234
 30
0.0
 11
64.239927
 21
249.111926
 31
0.0
  0
LINE
  5
202
330
1F
100
AcDbEntity
  8
0
  6
ByBlock
100
AcDbLine
 10
64.239927
 20
249.111926
 30
0.0
 11
64.239927
 21
243.761646
 31
0.0
  0
CIRCLE
  5
203
330
1F
100
AcDbEntity
  8
0
  6
ByBlock
100
AcDbCircle
 10
55.534534
 20
242.201413
 30
0.0
 40
3.0
  0
LINE
  5
204
330
1F
100
AcDbEntity
  8
0
  6
ByBlock
100
AcDbLine
 10
3.178124
 20
321.675996
 30
-0.769515
 11
3.178124
 21
336.681545
 31
0.0
  0
LINE
  5
205
330
1F
100
AcDbEntity
  8
0
  6
ByBlock
100
AcDbLine
 10
281.346496
 20
388.938179
 30
0.0
 11
281.326199
 21
355.529833
 31
0.0
  0
LINE
  5
206
330
1F
100
AcDbEntity
  8
0
  6
ByBlock
100
AcDbLine
 10
-22.776148
 20
364.789504
 30
0.0
 11
-1.780843
 21
364.795917
 31
0.0
  0
LINE
  5
207
330
1F
100
AcDbEntity
  8
0
  6
ByBlock
100
AcDbLine
 10
-22.783353
 20
354.718654
 30
0.0
 11
-19.783353
 21
354.718654
 31
0.0
  0
LINE
  5
208
330
1F
100
AcDbEntity
  8
0
  6
ByBlock
100
AcDbLine
 10
-19.783353
 20
357.718654
 30
0.0
 11
-16.783353
 21
357.718654
 31
0.0
  0
LINE
  5
209
330
1F
100
AcDbEntity
  8
0
  6
ByBlock
100
AcDbLine
 10
-19.783353
 20
354.718654
 30
0.0
 11
-19.783353
 21
357.718654
 31
0.0
  0
LINE
  5
20A
330
1F
100
AcDbEntity
  8
0
  6
ByBlock
100
AcDbLine
 10
-22.783353
 20
357.718654
 30
0.0
 11
-22.783353
 21
354.718654
 31
0.0
  0
LINE
  5
20B
330
1F
100
AcDbEntity
  8
0
  6
ByBlock
100
AcDbLine
 10
-1.783353
 20
354.718654
 30
0.0
 11
-1.780843
 21
364.795917
 31
0.0
  0
ENDSEC
  0
SECTION
  2
OBJECTS
  0
DICTIONARY
  5
C
330
0
100
AcDbDictionary
281
     1
  3
ACAD_GROUP
350
D
  3
ACAD_LAYOUT
350
1A
  3
ACAD_MLEADERSTYLE
350
20D
  3
ACAD_MLINESTYLE
350
17
  3
ACAD_PLOTSETTINGS
350
19
  3
ACAD_PLOTSTYLENAME
350
E
  3
ACAD_TABLESTYLE
350
20C
  3
ACAD_VISUALSTYLE
350
2A
  3
AcDbVariableDictionary
350
20E
  3
DWGPROPS
350
211
  0
DICTIONARY
  5
D
102
{ACAD_REACTORS
330
C
102
}
330
C
100
AcDbDictionary
281
     1
  0
DICTIONARY
  5
1A
102
{ACAD_REACTORS
330
C
102
}
330
C
100
AcDbDictionary
281
     1
  3
Layout1
350
1E
  3
Layout2
350
26
  3
Model
350
22
  0
DICTIONARY
  5
20D
102
{ACAD_REACTORS
330
C
102
}
330
C
100
AcDbDictionary
281
     1
  0
DICTIONARY
  5
17
102
{ACAD_REACTORS
330
C
102
}
330
C
100
AcDbDictionary
281
     1
  3
Standard
350
18
  0
DICTIONARY
  5
19
102
{ACAD_REACTORS
330
C
102
}
330
C
100
AcDbDictionary
281
     1
  0
ACDBDICTIONARYWDFLT
  5
E
102
{ACAD_REACTORS
330
C
102
}
330
C
100
AcDbDictionary
281
     1
  3
Normal
350
F
100
AcDbDictionaryWithDefault
340
F
  0
DICTIONARY
  5
20C
102
{ACAD_REACTORS
330
C
102
}
330
C
100
AcDbDictionary
281
     1
  0
DICTIONARY
  5
2A
102
{ACAD_REACTORS
330
C
102
}
330
C
100
AcDbDictionary
281
     1
  3
2dWireframe
350
2F
  3
3D Hidden
350
31
  3
3dWireframe
350
30
  3
Basic
350
32
  3
Brighten
350
36
  3
ColorChange
350
3A
  3
Conceptual
350
34
  3
Dim
350
35
  3
Facepattern
350
39
  3
Flat
350
2B
  3
FlatWithEdges
350
2C
  3
Gouraud
350
2D
  3
GouraudWithEdges
350
2E
  3
Linepattern
350
38
  3
Realistic
350
33
  3
Thicken
350
37
  0
DICTIONARY
  5
20E
102
{ACAD_REACTORS
330
C
102
}
330
C
100
AcDbDictionary
281
     1
  3
PSOLHEIGHT
350
210
  3
PSOLWIDTH
350
20F
  0
XRECORD
  5
211
102
{ACAD_REACTORS
330
C
102
}
330
C
100
AcDbXrecord
280
     1
  1
DWGPROPS COOKIE
  2

  3

  4

  6
File was created by VeCAD
  7

  8

  9

300
=
301
=
302
=
303
=
304
=
305
=
306
=
307
=
308
=
309
=
 40
0.0
 41
2457609.847531
 42
2457609.847531
  1

 90
        0
  0
LAYOUT
  5
1E
102
{ACAD_REACTORS
330
1A
102
}
330
1A
100
AcDbPlotSettings
  1

  2
none_device
  4

  6

 40
0.0
 41
0.0
 42
0.0
 43
0.0
 44
0.0
 45
0.0
 46
0.0
 47
0.0
 48
0.0
 49
0.0
140
0.0
141
0.0
142
1.0
143
1.0
 70
   688
 72
     0
 73
     0
 74
     5
  7

 75
    16
147
1.0
148
0.0
149
0.0
100
AcDbLayout
  1
Layout1
 70
     1
 71
     1
 10
0.0
 20
0.0
 11
420.0
 21
297.0
 12
0.0
 22
0.0
 32
0.0
 14
1.000000E+20
 24
1.000000E+20
 34
1.000000E+20
 15
-1.000000E+20
 25
-1.000000E+20
 35
-1.000000E+20
146
0.0
 13
0.0
 23
0.0
 33
0.0
 16
1.0
 26
0.0
 36
0.0
 17
0.0
 27
1.0
 37
0.0
 76
     0
330
1B
  0
LAYOUT
  5
26
102
{ACAD_REACTORS
330
1A
102
}
330
1A
100
AcDbPlotSettings
  1

  2
none_device
  4

  6

 40
0.0
 41
0.0
 42
0.0
 43
0.0
 44
0.0
 45
0.0
 46
0.0
 47
0.0
 48
0.0
 49
0.0
140
0.0
141
0.0
142
1.0
143
1.0
 70
   688
 72
     0
 73
     0
 74
     5
  7

 75
    16
147
1.0
148
0.0
149
0.0
100
AcDbLayout
  1
Layout2
 70
     1
 71
     2
 10
0.0
 20
0.0
 11
0.0
 21
0.0
 12
0.0
 22
0.0
 32
0.0
 14
0.0
 24
0.0
 34
0.0
 15
0.0
 25
0.0
 35
0.0
146
0.0
 13
0.0
 23
0.0
 33
0.0
 16
1.0
 26
0.0
 36
0.0
 17
0.0
 27
1.0
 37
0.0
 76
     0
330
23
  0
LAYOUT
  5
22
102
{ACAD_REACTORS
330
1A
102
}
330
1A
100
AcDbPlotSettings
  1

  2
none_device
  4

  6

 40
0.0
 41
0.0
 42
0.0
 43
0.0
 44
0.0
 45
0.0
 46
0.0
 47
0.0
 48
0.0
 49
0.0
140
0.0
141
0.0
142
1.0
143
1.0
 70
  1712
 72
     0
 73
     0
 74
     0
  7

 75
     0
147
1.0
148
0.0
149
0.0
100
AcDbLayout
  1
Model
 70
     1
 71
     0
 10
0.0
 20
0.0
 11
420.0
 21
297.0
 12
0.0
 22
0.0
 32
0.0
 14
1.000000E+20
 24
1.000000E+20
 34
1.000000E+20
 15
-1.000000E+20
 25
-1.000000E+20
 35
-1.000000E+20
146
0.0
 13
0.0
 23
0.0
 33
0.0
 16
1.0
 26
0.0
 36
0.0
 17
0.0
 27
1.0
 37
0.0
 76
     0
330
1F
331
29
  0
MLINESTYLE
  5
18
102
{ACAD_REACTORS
330
17
102
}
330
17
100
AcDbMlineStyle
  2
Standard
 70
     0
  3

 62
   256
 51
90.0
 52
90.0
 71
     2
 49
1.0
 62
   256
  6
BYLAYER
 49
-1.0
 62
   256
  6
BYLAYER
  0
ACDBPLACEHOLDER
  5
F
102
{ACAD_REACTORS
330
E
102
}
330
E
  0
VISUALSTYLE
  5
2F
102
{ACAD_REACTORS
330
2A
102
}
330
2A
100
AcDbVisualStyle
  2
2dWireframe
 70
     4
 71
     0
 72
     2
 73
     0
 90
        0
 40
-0.6
 41
-30.0
 62
     5
 63
     7
 74
     1
 91
        4
 64
     7
 65
   257
 75
     1
175
     1
 42
1.0
 92
        0
 66
   257
 43
1.0
 76
     1
 77
     6
 78
     2
 67
     7
 79
     5
170
     0
171
     0
290
     0
174
     0
 93
        1
 44
0.0
173
     0
291
     0
 45
0.0
1001
ACAD
1000
AcDbSavedByObjectVersion
1070
     0
  0
VISUALSTYLE
  5
31
102
{ACAD_REACTORS
330
2A
102
}
330
2A
100
AcDbVisualStyle
  2
3D Hidden
 70
     6
 71
     1
 72
     2
 73
     2
 90
        0
 40
-0.6
 41
-30.0
 62
     5
 63
     7
 74
     2
 91
        2
 64
     7
 65
   257
 75
     2
175
     1
 42
40.0
 92
        0
 66
   257
 43
1.0
 76
     1
 77
     6
 78
     2
 67
     7
 79
     3
170
     0
171
     0
290
     0
174
     0
 93
        1
 44
0.0
173
     0
291
     0
 45
0.0
1001
ACAD
1000
AcDbSavedByObjectVersion
1070
     0
  0
VISUALSTYLE
  5
30
102
{ACAD_REACTORS
330
2A
102
}
330
2A
100
AcDbVisualStyle
  2
3dWireframe
 70
     5
 71
     0
 72
     2
 73
     0
 90
        0
 40
-0.6
 41
-30.0
 62
     5
 63
     7
 74
     1
 91
        4
 64
     7
 65
   257
 75
     1
175
     1
 42
1.0
 92
        0
 66
   257
 43
1.0
 76
     1
 77
     6
 78
     2
 67
     7
 79
     5
170
     0
171
     0
290
     0
174
     0
 93
        1
 44
0.0
173
     0
291
     0
 45
0.0
1001
ACAD
1000
AcDbSavedByObjectVersion
1070
     0
  0
VISUALSTYLE
  5
32
102
{ACAD_REACTORS
330
2A
102
}
330
2A
100
AcDbVisualStyle
  2
Basic
 70
     7
 71
     1
 72
     0
 73
     1
 90
        0
 40
-0.6
 41
-30.0
 62
     5
 63
     7
 74
     0
 91
        4
 64
     7
 65
   257
 75
     1
175
     1
 42
1.0
 92
        8
 66
     7
 43
1.0
 76
     1
 77
     6
 78
     2
 67
     7
 79
     5
170
     0
171
     0
290
     0
174
     0
 93
        1
 44
0.0
173
     0
291
     1
 45
0.0
1001
ACAD
1000
AcDbSavedByObjectVersion
1070
     0
  0
VISUALSTYLE
  5
36
102
{ACAD_REACTORS
330
2A
102
}
330
2A
100
AcDbVisualStyle
  2
Brighten
 70
    12
 71
     2
 72
     2
 73
     0
 90
        0
 40
-0.6
 41
-30.0
 62
     5
 63
     7
 74
     1
 91
        4
 64
     7
 65
   257
 75
     1
175
     1
 42
1.0
 92
        8
 66
     7
 43
1.0
 76
     1
 77
     6
 78
     2
 67
     7
 79
     5
170
     0
171
     0
290
     0
174
     0
 93
        1
 44
50.0
173
     0
291
     1
 45
0.0
1001
ACAD
1000
AcDbSavedByObjectVersion
1070
     0
  0
VISUALSTYLE
  5
3A
102
{ACAD_REACTORS
330
2A
102
}
330
2A
100
AcDbVisualStyle
  2
ColorChange
 70
    16
 71
     2
 72
     2
 73
     3
 90
        0
 40
-0.6
 41
-30.0
 62
     5
 63
     8
 74
     1
 91
        4
 64
     7
 65
   257
 75
     1
175
     1
 42
1.0
 92
        8
 66
     8
 43
1.0
 76
     1
 77
     6
 78
     2
 67
     7
 79
     5
170
     0
171
     0
290
     0
174
     0
 93
        1
 44
0.0
173
     0
291
     1
 45
0.0
1001
ACAD
1000
AcDbSavedByObjectVersion
1070
     0
  0
VISUALSTYLE
  5
34
102
{ACAD_REACTORS
330
2A
102
}
330
2A
100
AcDbVisualStyle
  2
Conceptual
 70
     9
 71
     3
 72
     2
 73
     0
 90
        0
 40
-0.6
 41
-30.0
 62
     5
 63
     7
 74
     2
 91
        2
 64
     7
 65
   257
 75
     1
175
     1
 42
40.0
 92
        8
 66
     7
 43
1.0
 76
     1
 77
     6
 78
     2
 67
     7
 79
     3
170
     0
171
     0
290
     0
174
     0
 93
        1
 44
0.0
173
     0
291
     0
 45
0.0
1001
ACAD
1000
AcDbSavedByObjectVersion
1070
     0
  0
VISUALSTYLE
  5
35
102
{ACAD_REACTORS
330
2A
102
}
330
2A
100
AcDbVisualStyle
  2
Dim
 70
    11
 71
     2
 72
     2
 73
     0
 90
        0
 40
-0.6
 41
-30.0
 62
     5
 63
     7
 74
     1
 91
        4
 64
     7
 65
   257
 75
     1
175
     1
 42
1.0
 92
        8
 66
     7
 43
1.0
 76
     1
 77
     6
 78
     2
 67
     7
 79
     5
170
     0
171
     0
290
     0
174
     0
 93
        1
 44
-50.0
173
     0
291
     1
 45
0.0
1001
ACAD
1000
AcDbSavedByObjectVersion
1070
     0
  0
VISUALSTYLE
  5
39
102
{ACAD_REACTORS
330
2A
102
}
330
2A
100
AcDbVisualStyle
  2
Facepattern
 70
    15
 71
     2
 72
     2
 73
     0
 90
        0
 40
-0.6
 41
-30.0
 62
     5
 63
     7
 74
     1
 91
        4
 64
     7
 65
   257
 75
     1
175
     1
 42
1.0
 92
        8
 66
     7
 43
1.0
 76
     1
 77
     6
 78
     2
 67
     7
 79
     5
170
     0
171
     0
290
     0
174
     0
 93
        1
 44
0.0
173
     0
291
     1
 45
0.0
1001
ACAD
1000
AcDbSavedByObjectVersion
1070
     0
  0
VISUALSTYLE
  5
2B
102
{ACAD_REACTORS
330
2A
102
}
330
2A
100
AcDbVisualStyle
  2
Flat
 70
     0
 71
     2
 72
     1
 73
     1
 90
        2
 40
-0.6
 41
30.0
 62
     5
 63
     7
 74
     0
 91
        4
 64
     7
 65
   257
 75
     1
175
     1
 42
1.0
 92
        8
 66
     7
 43
1.0
 76
     1
 77
     6
 78
     2
 67
     7
 79
     5
170
     0
171
     0
290
     0
174
     0
 93
       13
 44
0.0
173
     0
291
     1
 45
0.0
1001
ACAD
1000
AcDbSavedByObjectVersion
1070
     0
  0
VISUALSTYLE
  5
2C
102
{ACAD_REACTORS
330
2A
102
}
330
2A
100
AcDbVisualStyle
  2
FlatWithEdges
 70
     1
 71
     2
 72
     1
 73
     1
 90
        2
 40
-0.6
 41
30.0
 62
     5
 63
     7
 74
     1
 91
        4
 64
     7
 65
   257
 75
     1
175
     1
 42
1.0
 92
        0
 66
   257
 43
1.0
 76
     1
 77
     6
 78
     2
 67
     7
 79
     5
170
     0
171
     0
290
     0
174
     0
 93
       13
 44
0.0
173
     0
291
     1
 45
0.0
1001
ACAD
1000
AcDbSavedByObjectVersion
1070
     0
  0
VISUALSTYLE
  5
2D
102
{ACAD_REACTORS
330
2A
102
}
330
2A
100
AcDbVisualStyle
  2
Gouraud
 70
     2
 71
     2
 72
     2
 73
     1
 90
        2
 40
-0.6
 41
30.0
 62
     5
 63
     7
 74
     0
 91
        4
 64
     7
 65
   257
 75
     1
175
     1
 42
1.0
 92
        0
 66
     7
 43
1.0
 76
     1
 77
     6
 78
     2
 67
     7
 79
     5
170
     0
171
     0
290
     0
174
     0
 93
       13
 44
0.0
173
     0
291
     1
 45
0.0
1001
ACAD
1000
AcDbSavedByObjectVersion
1070
     0
  0
VISUALSTYLE
  5
2E
102
{ACAD_REACTORS
330
2A
102
}
330
2A
100
AcDbVisualStyle
  2
GouraudWithEdges
 70
     3
 71
     2
 72
     2
 73
     1
 90
        2
 40
-0.6
 41
30.0
 62
     5
 63
     7
 74
     1
 91
        4
 64
     7
 65
   257
 75
     1
175
     1
 42
1.0
 92
        0
 66
   257
 43
1.0
 76
     1
 77
     6
 78
     2
 67
     7
 79
     5
170
     0
171
     0
290
     0
174
     0
 93
       13
 44
0.0
173
     0
291
     1
 45
0.0
1001
ACAD
1000
AcDbSavedByObjectVersion
1070
     0
  0
VISUALSTYLE
  5
38
102
{ACAD_REACTORS
330
2A
102
}
330
2A
100
AcDbVisualStyle
  2
Linepattern
 70
    14
 71
     2
 72
     2
 73
     0
 90
        0
 40
-0.6
 41
-30.0
 62
     5
 63
     7
 74
     1
 91
        4
 64
     7
 65
   257
 75
     7
175
     7
 42
1.0
 92
        8
 66
     7
 43
1.0
 76
     1
 77
     6
 78
     2
 67
     7
 79
     5
170
     0
171
     0
290
     0
174
     0
 93
        1
 44
0.0
173
     0
291
     1
 45
0.0
1001
ACAD
1000
AcDbSavedByObjectVersion
1070
     0
  0
VISUALSTYLE
  5
33
102
{ACAD_REACTORS
330
2A
102
}
330
2A
100
AcDbVisualStyle
  2
Realistic
 70
     8
 71
     2
 72
     2
 73
     0
 90
        0
 40
-0.6
 41
-30.0
 62
     5
 63
     7
 74
     1
 91
        0
 64
     7
 65
   257
 75
     1
175
     1
 42
1.0
 92
        8
 66
     8
 43
1.0
 76
     1
 77
     6
 78
     2
 67
     7
 79
     5
170
     0
171
     0
290
     0
174
     0
 93
       13
 44
0.0
173
     0
291
     0
 45
0.0
1001
ACAD
1000
AcDbSavedByObjectVersion
1070
     0
  0
VISUALSTYLE
  5
37
102
{ACAD_REACTORS
330
2A
102
}
330
2A
100
AcDbVisualStyle
  2
Thicken
 70
    13
 71
     2
 72
     2
 73
     0
 90
        0
 40
-0.6
 41
-30.0
 62
     5
 63
     7
 74
     1
 91
        4
 64
     7
 65
   257
 75
     1
175
     1
 42
1.0
 92
       12
 66
     7
 43
1.0
 76
     1
 77
     6
 78
     2
 67
     7
 79
     5
170
     0
171
     0
290
     0
174
     0
 93
        1
 44
0.0
173
     0
291
     1
 45
0.0
1001
ACAD
1000
AcDbSavedByObjectVersion
1070
     0
  0
DICTIONARYVAR
  5
210
102
{ACAD_REACTORS
330
20E
102
}
330
20E
100
DictionaryVariables
280
     0
  1
80.000000
  0
DICTIONARYVAR
  5
20F
102
{ACAD_REACTORS
330
20E
102
}
330
20E
100
DictionaryVariables
280
     0
  1
5.000000
  0
ENDSEC
  0
SECTION
  2
THUMBNAILIMAGE
 90
    39460
310
28000000B4000000490000000100180000000000FC99000011170000111700000000000000000000000000000000000000000000000000000000000000000000000000000000000000000000000000000000000000000000000000000000000000000000000000000000000000000000000000000000000000000000000000
310
00000000000000000000000000000000000000000000000000000000000000000000000000000000000000000000000000000000000000000000000000000000000000000000000000000000000000000000000000000000000000000000000000000000000000000000000000000000000000000000000000000000000000
310
00000000000000000000000000000000000000000000000000000000000000000000000000000000000000000000000000000000000000000000000000000000000000000000000000000000000000000000000000000000000000000000000000000000000000000000000000000000000000000000000000000000000000
310
00000000000000000000000000000000000000000000000000000000000000000000000000000000000000000000000000000000000000000000000000000000000000000000000000000000000000000000000000000000000000000000000000000000000000000000000000000000000000000000000000000000000000
310
00000000000000000000000000000000000000000000000000000000000000000000000000000000000000000000000000000000000000000000000000000000000000000000000000000000000000000000000000000000000000000000000000000000000000000000000000000000000000000000000000000000000000
310
00000000000000000000000000000000000000000000000000000000000000000000000000000000000000000000000000000000000000000000000000000000000000000000000000000000000000000000000000000000000000000000000000000000000000000000000000000000000000000000000000000000000000
310
00000000000000000000000000000000000000000000000000000000000000000000000000FFFFFFFFFFFFFFFFFF000000FFFFFFFFFFFFFFFFFFFFFFFF000000FFFFFFFFFFFFFFFFFF000000000000FFFFFFFFFFFFFFFFFF000000FFFFFFFFFFFFFFFFFF000000000000FFFFFFFFFFFFFFFFFF000000FFFFFF000000000000
310
00000000000000000000000000000000000000000000000000000000000000000000000000000000000000000000000000000000000000000000000000000000000000000000000000000000000000000000000000000000000000000000000000000000000000000000000000000000000000000000000000000000000000
310
00000000000000000000000000000000000000000000000000000000000000000000000000000000000000000000000000000000000000000000000000000000000000000000000000000000000000000000000000000000000000000000000000000000000000000000000000000000000000000000000000000000000000
310
00000000000000000000000000000000000000000000000000000000000000000000000000000000000000000000000000000000000000000000000000000000000000000000000000000000000000000000000000000000000000000000000000000000000000000000000000000000000000000000000000000000000000
310
000000000000000000000000000000000000000000000000000000000000000000000000000000000000000000000000000000000000000000000000000000000000000000FFFFFF000000FFFFFFFFFFFF000000000000000000FFFFFFFFFFFF000000000000FFFFFFFFFFFFFFFFFF000000000000FFFFFFFFFFFF00000000
310
0000FFFFFFFFFFFFFFFFFF000000000000FFFFFFFFFFFF000000000000FFFFFF0000000000000000000000000000000000000000000000000000000000000000000000000000000000000000000000000000000000000000000000000000000000000000000000000000000000000000000000000000000000000000000000
310
00000000000000000000000000000000000000000000000000000000000000000000000000000000000000000000000000000000000000000000000000000000000000000000000000000000000000000000000000000000000000000000000000000000000000000000000000000000000000000000000000000000000000
310
00000000000000000000000000000000000000000000000000000000000000000000000000000000000000000000000000000000000000000000000000000000000000000000000000000000000000000000000000000000000000000000000000000000000000000000000000000000000000000000000000000000000000
310
0000000000000000000000000000000000000000000000000000000000000000000000000000000000000000000000000000000000000000000000000000000000000000000000000000000000000000000000000000000000000000000000000000000000FFFFFFFFFFFF0000000000000000000000000000000000000000
310
00000000000000000000000000000000000000000000000000000000000000000000000000000000000000000000000000000000000000000000000000FFFFFFFFFFFF000000000000000000000000000000000000000000000000000000000000000000000000000000000000000000000000000000000000000000000000
310
00000000000000000000000000000000000000000000000000000000000000000000000000000000000000000000000000000000000000000000000000000000000000000000000000000000000000000000000000000000000000000000000000000000000000000000000000000000000000000000000000000000000000
310
00000000000000000000000000000000000000000000000000000000000000000000000000000000000000000000000000000000000000000000000000000000000000000000000000000000000000000000000000000000000000000000000000000000000000000000000000000000000000000000000000000000000000
310
00000000000000000000000000000000000000000000000000000000000000000000000000000000000000000000000000000000000000000000000000000000000000000000000000000000000000000000000000000000000000000000000000000000000000000000000000FFFFFFFFFFFFFFFFFFFFFFFF000000000000
310
000000000000000000FFFFFF000000000000000000000000000000000000000000000000000000000000000000000000000000000000000000000000000000000000000000000000000000000000000000000000000000000000000000000000FFFFFF00000000000000000000000000000000000000000000000000000000
310
00000000000000000000000000000000000000000000000000000000000000000000000000000000000000000000000000000000000000000000000000000000000000000000000000000000000000000000000000000000000000000000000000000000000000000000000000000000000000000000000000000000000000
310
00000000000000000000000000000000000000000000000000000000000000000000000000000000000000000000000000000000000000000000000000000000000000000000000000000000000000000000000000000000000000000000000000000000000000000000000000000000000000000000000000000000000000
310
00000000000000000000000000000000000000000000000000000000000000000000000000000000000000000000000000000000000000000000000000000000000000000000000000000000000000000000000000000000000000000000000000000000000000000000000000000000000000000000000000000000000000
310
0000000000000000000000FFFFFFFFFFFF000000000000FFFFFFFFFFFF000000000000000000000000FFFFFF0000000000000000000000000000000000000000000000000000000000000000000000000000000000000000000000000000000000000000000000000000000000000000000000000000000000000000000000
310
00FFFFFF000000000000000000000000000000000000000000000000000000000000000000000000000000000000000000000000000000000000000000000000000000000000000000000000000000000000000000000000000000000000000000000000000000000000000000000000000000000000000000000000000000
310
00000000000000000000000000000000000000000000000000000000000000000000000000000000000000000000000000000000000000000000000000000000000000000000000000000000000000000000000000000000000000000000000000000000000000000000000000000000000000000000000000000000000000
310
00000000000000000000000000000000000000000000000000000000000000000000000000000000000000000000000000000000000000000000000000000000000000000000000000000000000000000000000000000000000000000000000000000000000000000000000000000000000000000000000000000000000000
310
00000000000000000000000000000000FFFFFF000000000000000000000000000000000000000000000000FFFFFFFFFFFF000000000000000000FFFFFF000000000000000000FFFFFFFFFFFF000000000000000000000000000000000000000000000000000000000000000000000000000000000000000000000000000000
310
000000000000000000000000000000000000000000000000000000000000FFFFFFFFFFFF00000000000000000000000000000000000000000000000000000000000000000000000000000000000000000000000000000000000000000000000000000000000000000000000000000000000000000000000000000000000000
310
00000000000000000000000000000000000000000000000000000000000000000000000000000000000000000000000000000000000000000000000000000000000000000000000000000000000000000000000000000000000000000000000000000000000000000000000000000000000000000000000000000000000000
310
00000000000000000000000000000000000000000000000000000000000000000000000000000000000000000000000000000000000000000000000000000000000000000000000000000000000000000000000000000000000000000000000000000000000000000000000000000000000000000000000000000000000000
310
000000000000000000000000000000000000000000000000000000000000000000000000000000000000000000000000FFFFFF000000000000000000000000000000000000000000000000FFFFFF000000000000000000000000FFFFFF000000000000000000FFFFFF00000000000000000000000000000000000000000000
310
0000000000000000000000000000000000000000000000000000000000000000000000000000000000000000000000000000000000000000000000000000FFFFFF0000000000000000000000000000000000000000000000000000000000000000000000000000000000000000000000000000000000000000000000000000
310
00000000000000000000000000000000000000000000000000000000000000000000000000000000000000000000000000000000000000000000000000000000000000000000000000000000000000000000000000000000000000000000000000000000000000000000000000000000000000000000000000000000000000
310
00000000000000000000000000000000000000000000000000000000000000000000000000000000000000000000000000000000000000000000000000000000000000000000000000000000000000000000000000000000000000000000000000000000000000000000000000000000000000000000000000000000000000
310
0000000000000000000000000000000000000000000000000000000000000000000000000000000000000000000000000000000000000000000000000000000000000000000000000000000000000000FFFFFF000000000000000000000000000000000000000000000000FFFFFFFFFFFF0000000000000000000000000000
310
00000000000000FFFFFFFFFFFF000000000000000000000000000000000000000000000000000000000000000000000000000000000000000000000000000000000000000000000000000000000000000000000000000000000000000000FFFFFFFFFFFF000000000000000000000000000000000000000000000000000000
310
00000000000000000000000000000000000000000000000000000000000000000000000000000000000000000000000000000000000000000000000000000000000000000000000000000000000000000000000000000000000000000000000000000000000000000000000000000000000000000000000000000000000000
310
00000000000000000000000000000000000000000000000000000000000000000000000000000000000000000000000000000000000000000000000000000000000000000000000000000000000000000000000000000000000000000000000000000000000000000000000000000000000000000000000000000000000000
310
00000000000000000000000000000000000000000000000000000000000000000000000000000000000000000000000000000000000000000000000000000000000000000000000000000000000000000000000000000000000000000000000000000000000000000000000000000000FFFFFFFFFFFF000000000000000000
310
000000000000000000000000FFFFFFFFFFFF000000000000FFFFFF000000000000000000000000000000FFFFFF00000000000000000000000000000000000000000000000000000000000000000000000000000000000000000000000000000000000000000000000000000000000000000000000000000000000000000000
310
0000FFFFFF0000000000000000000000000000000000000000000000000000000000000000000000000000000000000000000000000000000000000000000000000000000000000000000000000000000000000000000000000000000000000000000000000000000000000000000000000000000000000000000000000000
310
00000000000000000000000000000000000000000000000000000000000000000000000000000000000000000000000000000000000000000000000000000000000000000000000000000000000000000000000000000000000000000000000000000000000000000000000000000000000000000000000000000000000000
310
00000000000000000000000000000000000000000000000000000000000000000000000000000000000000000000000000000000000000000000000000000000000000000000000000000000000000000000000000000000000000000000000000000000000000000000000000000000000000000000000000000000000000
310
0000000000000000000000000000000000FFFFFF000000000000000000000000000000000000000000000000FFFFFF000000000000000000FFFFFF000000000000000000000000FFFFFFFFFFFF0000000000000000000000000000000000000000000000000000000000000000000000000000000000000000000000000000
310
00000000000000000000000000000000000000000000000000000000000000FFFFFFFFFFFF000000000000000000000000000000000000000000000000000000000000000000000000000000000000000000000000000000000000000000000000000000000000000000000000000000000000000000000000000000000000
310
00000000000000000000000000000000000000000000000000000000000000000000000000000000000000000000000000000000000000000000000000000000000000000000000000000000000000000000000000000000000000000000000000000000000000000000000000000000000000000000000000000000000000
310
00000000000000000000000000000000000000000000000000000000000000000000000000000000000000000000000000000000000000000000000000000000000000000000000000000000000000000000000000000000000000000000000000000000000000000000000000000000000000000000000000000000000000
310
00000000000000000000000000000000000000000000000000000000000000000000000000000000000000000000000000000000000000FFFFFF000000000000000000000000000000FFFFFF000000000000000000000000000000000000000000000000000000FFFFFF000000000000000000000000000000000000000000
310
000000000000000000000000000000000000000000000000000000000000000000000000000000000000000000000000000000000000000000000000000000FFFFFF00000000000000000000000000000000000000000000000000000000000000000000000000000000000000000000000000000000000000000000000000
310
00000000000000000000000000000000000000000000000000000000000000000000000000000000000000000000000000000000000000000000000000000000000000000000000000000000000000000000000000000000000000000000000000000000000000000000000000000000000000000000000000000000000000
310
00000000000000000000000000000000000000000000000000000000000000000000000000000000000000000000000000000000000000000000000000000000000000000000000000000000000000000000000000000000000000000000000000000000000000000000000000000000000000000000000000000000000000
310
000000000000000000000000000000000000000000000000000000000000000000000000000000000000000000000000000000000000000000000000000000000000000000000000000000000000000000000000FFFFFFFFFFFFFFFFFFFFFFFFFFFFFFFFFFFFFFFFFF000000000000000000FFFFFF00000000000000000000
310
0000000000000000FFFFFFFFFFFF000000000000000000000000000000000000000000000000000000000000000000000000000000000000000000000000000000000000000000000000000000000000000000000000000000000000000000FFFFFFFFFFFF0000000000000000000000000000000000000000000000000000
310
00000000000000000000000000000000000000000000000000000000000000000000000000000000000000000000000000000000000000000000000000000000000000000000000000000000000000000000000000000000000000000000000000000000000000000000000000000000000000000000000000000000000000
310
00000000000000000000000000000000000000000000000000000000000000000000000000000000000000000000000000000000000000000000000000000000000000000000000000000000000000000000000000000000000000000000000000000000000000000000000000000000000000000000000000000000000000
310
0000000000000000000000000000000000000000000000000000000000000000000000000000000000000000000000000000000000000000000000000000000000000000000000000000000000000000000000000000000000000000000000000000000000000000000000000000000000000000000000FFFFFF0000000000
310
00000000000000000000000000000000FFFFFF000000000000000000000000000000000000000000000000FFFFFF000000000000000000000000000000000000000000000000000000000000000000000000000000000000000000000000000000000000000000000000000000000000000000000000000000000000000000
310
000000FFFFFF00000000000000000000000000000000000000000000000000000000000000000000000000000000000000000000000000000000000000000000000000000000000000000000000000000000000000000000000000000000000000000000000000000000000000000000000000000000000000000000000000
310
00000000000000000000000000000000000000000000000000000000000000000000000000000000000000000000000000000000000000000000000000000000000000000000000000000000000000000000000000000000000000000000000000000000000000000000000000000000000000000000000000000000000000
310
00000000000000000000000000000000000000000000000000000000000000000000000000000000000000000000000000000000000000000000000000000000000000000000000000000000000000000000000000000000000000000000000000000000000000000000000000000000000000000000000000000000000000
310
000000000000000000000000000000000000000000000000000000FFFFFFFFFFFF000000000000FFFFFF000000FFFFFF000000000000000000000000000000000000000000000000000000FFFFFF00000000000000000000000000000000000000000000000000000000000000000000000000000000000000000000000000
310
0000000000000000000000000000000000000000000000000000000000000000000000FFFFFF0000000000000000000000000000000000000000000000000000000000000000000000000000000000000000000000000000000000000000000000000000000000000000000000000000000000000000000000000000000000
310
00000000000000000000000000000000000000000000000000000000000000000000000000000000000000000000000000000000000000000000000000000000000000000000000000000000000000000000000000000000000000000000000000000000000000000000000000000000000000000000000000000000000000
310
00000000000000000000000000000000000000000000000000000000000000000000000000000000000000000000000000000000000000000000000000000000000000000000000000000000000000000000000000000000000000000000000000000000000000000000000000000000000000000000000000000000000000
310
0000000000000000000000000000000000000000000000000000000000000000000000000000000000000000000000000000000000000000000000000000000000000000FFFFFF000000000000000000000000000000000000000000000000000000000000000000FFFFFFFFFFFF0000000000000000000000000000000000
310
00000000000000000000000000000000000000000000000000000000000000000000000000000000000000000000000000000000000000000000000000000000FFFFFFFFFFFF000000000000000000000000000000000000000000000000000000000000000000000000000000000000000000000000000000000000000000
310
00000000000000000000000000000000000000000000000000000000000000000000000000000000000000000000000000000000000000000000000000000000000000000000000000000000000000000000000000000000000000000000000000000000000000000000000000000000000000000000000000000000000000
310
00000000000000000000000000000000000000000000000000000000000000000000000000000000000000000000000000000000000000000000000000000000000000000000000000000000000000000000000000000000000000000000000000000000000000000000000000000000000000000000000000000000000000
310
00000000000000000000000000000000000000000000000000000000000000000000000000000000000000000000000000000000000000000000000000000000000000000000000000000000000000000000000000000000000000000000000000000000000000000000000000000000000000000000000000000000000000
310
000000000000000000FFFFFF000000FFFFFFFFFFFFFFFFFF000000000000FFFFFFFFFFFFFFFFFF000000FFFFFFFFFFFFFFFFFFFFFFFF000000FFFFFFFFFFFFFFFFFF000000FFFFFFFFFFFFFFFFFFFFFFFF000000FFFFFFFFFFFFFFFFFF000000FFFFFF00000000000000000000000000000000000000000000000000000000
310
00000000000000000000000000000000000000000000000000000000000000000000000000000000000000000000000000000000000000000000000000000000000000000000000000000000000000000000000000000000000000000000000000000000000000000000000000000000000000000000000000000000000000
310
00000000000000000000000000000000000000000000000000000000000000000000000000000000000000000000000000000000000000000000000000000000000000000000000000000000000000000000000000000000000000000000000000000000000000000000000000000000000000000000000000000000000000
310
00000000000000000000000000000000000000000000000000000000000000000000000000000000000000000000000000000000000000000000000000000000000000000000000000000000000000000000000000000000000000000000000000000000000000000000000000000000000000000000000000000000000000
310
0000000000000000000000000000000000000000000000000000000000000000000000000000000000FFFFFFFFFFFF000000000000FFFFFFFFFFFFFFFFFF000000000000FFFFFFFFFFFF000000000000000000FFFFFFFFFFFF000000000000FFFFFFFFFFFF000000000000000000FFFFFFFFFFFF000000000000FFFFFFFFFF
310
FFFFFFFF000000000000000000000000000000000000000000000000000000000000000000000000000000000000000000000000000000000000000000000000000000000000000000000000000000000000000000000000000000000000000000000000000000000000000000000000000000000000000000000000000000
310
00000000000000000000000000000000000000000000000000000000000000000000000000000000000000000000000000000000000000000000000000000000000000000000000000000000000000000000000000000000000000000000000000000000000000000000000000000000000000000000000000000000000000
310
00000000000000000000000000000000000000000000000000000000000000000000000000000000000000000000000000000000000000000000000000000000000000000000000000000000000000000000000000000000000000000000000000000000000000000000000000000000000000000000000000000000000000
310
00000000000000000000000000000000000000000000000000000000000000000000000000000000000000000000000000000000000000000000000000000000000000000000000000000000000000000000000000000000000000000000000000000000000000000000000000000000000000000000000000000000000000
310
00000000000000000000000000000000000000000000000000000000000000000000000000000000000000000000000000000000000000000000000000000000000000000000000000000000000000000000000000000000000000000000000000000000000000000000000000000000000000000000000000000000000000
310
00000000000000000000000000000000000000000000000000000000000000000000000000000000000000000000000000000000000000000000000000000000000000000000000000000000000000000000000000000000000000000000000000000000000000000000000000000000000000000000000000000000000000
310
00000000000000000000000000000000000000000000000000000000000000000000000000000000000000000000000000000000000000000000000000000000000000000000000000000000000000000000000000000000000000000000000000000000000000000000000000000000000000000000000000000000000000
310
000000000000000000000000000000000000000000000000000000000000000000000000000000000000000000000000000000FFFFFFFFFFFFFFFFFF000000000000FFFFFFFFFFFFFFFFFF000000FFFFFFFFFFFFFFFFFF000000000000000000000000000000000000000000000000FFFFFFFFFFFFFFFFFF000000000000FF
310
FFFFFFFFFFFFFFFF000000FFFFFFFFFFFFFFFFFF000000000000FFFFFFFFFFFFFFFFFF000000FFFFFFFFFFFFFFFFFFFFFFFF000000FFFFFFFFFFFFFFFFFF000000000000000000000000FFFFFFFFFFFFFFFFFF000000000000FFFFFFFFFFFFFFFFFF000000FFFFFFFFFFFFFFFFFF000000000000FFFFFFFFFFFFFFFFFF0000
310
00000000000000000000000000000000000000000000000000000000000000000000000000000000000000000000000000000000000000000000000000000000000000000000000000000000000000000000000000000000000000000000000000000000000000000000000000000000000000000000000000000000000000
310
00000000000000000000000000000000000000000000000000000000000000000000000000000000000000000000000000000000000000000000000000000000000000000000000000000000000000000000000000000000000000000000000000000000000000000000000000000000000000000000000000000000000000
310
0000000000000000000000000000000000000000000000000000000000000000000000000000000000000000000000000000000000000000000000000000000000000000000000000000000000FFFFFFFFFFFFFFFFFF000000000000FFFFFFFFFFFFFFFFFF000000000000FFFFFFFFFFFF000000000000FFFFFFFFFFFFFFFF
310
FF000000000000000000000000FFFFFF000000000000FFFFFFFFFFFFFFFFFF000000000000FFFFFFFFFFFF000000000000FFFFFFFFFFFFFFFFFF000000000000FFFFFFFFFFFF000000000000000000FFFFFFFFFFFF000000000000FFFFFFFFFFFF000000000000000000FFFFFF000000FFFFFFFFFFFFFFFFFFFFFFFF000000
310
FFFFFFFFFFFFFFFFFF000000FFFFFFFFFFFFFFFFFFFFFFFF000000FFFFFF00000000000000000000000000000000000000000000000000000000000000000000000000000000000000000000000000000000000000000000000000000000000000000000000000000000000000000000000000000000000000000000000000
310
00000000000000000000000000000000000000000000000000000000000000000000000000000000000000000000000000000000000000000000000000000000000000000000000000000000000000000000000000000000000000000000000000000000000000000000000000000000000000000000000000000000000000
310
00000000000000000000000000000000000000000000000000000000000000000000000000000000000000000000000000000000000000000000000000000000000000000000000000FFFFFF000000FFFFFFFFFFFFFFFFFFFFFFFFFFFFFFFFFFFFFFFFFFFFFFFF000000000000FFFFFF000000000000000000000000000000
310
000000000000000000000000000000000000000000000000000000FFFFFFFFFFFF000000000000000000FFFFFF00000000000000000000000000000000000000000000000000000000000000000000000000000000000000000000000000000000000000000000000000000000000000000000000000000000000000000000
310
0000FFFFFF000000000000FFFFFFFFFFFF000000000000000000000000000000000000000000000000000000000000000000000000000000FFFFFF0000000000000000000000000000000000000000000000000000000000000000000000000000000000000000000000000000000000000000000000000000000000000000
310
00000000000000000000000000000000000000000000000000000000000000000000000000000000000000000000000000000000000000000000000000000000000000000000000000000000000000000000000000000000000000000000000000000000000000000000000000000000000000000000000000000000000000
310
000000000000000000000000000000000000000000000000000000000000000000000000000000000000000000000000000000000000000000000000000000000000000000000000000000000000000000000000000000000000000000000000000000000000000000FFFFFF00000000000000000000000000000000000000
310
0000000000FFFFFF000000000000000000FFFFFF000000000000000000000000000000000000000000000000000000000000000000000000000000FFFFFF000000000000000000000000FFFFFF0000000000000000000000000000000000000000000000000000000000000000000000000000000000000000000000000000
310
00000000000000000000FFFFFF000000000000000000000000000000000000000000FFFFFF000000000000000000FFFFFF000000000000000000000000000000000000000000000000000000000000000000000000000000FFFFFF000000000000000000FFFFFFFFFFFFFFFFFFFFFFFFFFFFFFFFFFFFFFFFFFFFFFFFFFFFFF
310
00000000000000000000000000000000000000000000000000000000000000000000000000000000000000000000000000000000000000000000000000000000000000000000000000000000000000000000000000000000000000000000000000000000000000000000000000000000000000000000000000000000000000
310
00000000000000000000000000000000000000000000000000000000000000000000000000000000000000000000000000000000000000000000000000000000000000000000000000000000000000000000000000000000000000000000000000000000000000000000000000000000000000000000000000000000000000
310
00000000000000000000FFFFFF000000000000000000000000000000000000000000000000FFFFFF000000000000FFFFFFFFFFFF000000000000000000000000000000000000000000000000000000000000000000000000000000FFFFFF000000000000000000000000FFFFFFFFFFFF000000000000000000000000000000
310
000000000000000000000000000000000000000000000000000000000000000000000000000000000000FFFFFF000000000000000000000000000000000000000000FFFFFF000000000000000000FFFFFF000000000000000000000000000000000000000000000000000000000000000000000000000000FFFFFF00000000
310
0000000000FFFFFFFFFFFF000000000000000000000000000000000000000000FFFFFF0000000000000000000000000000000000000000000000000000000000000000000000000000000000000000000000000000000000000000000000000000000000000000000000000000000000000000000000000000000000000000
310
00000000000000000000000000000000000000000000000000000000000000000000000000000000000000000000000000000000000000000000000000000000000000000000000000000000000000000000000000000000000000000000000000000000000000000000000000000000000000000000000000000000000000
310
000000000000000000000000000000000000000000000000000000000000000000000000000000000000FFFFFF000000000000000000000000000000000000000000000000FFFFFF000000000000FFFFFF000000000000000000000000000000000000000000000000000000000000000000000000000000000000000000FF
310
FFFF000000000000000000000000FFFFFF000000000000000000000000000000000000000000000000000000000000000000000000000000000000000000000000000000000000000000FFFFFF000000000000000000000000000000000000000000FFFFFF000000000000FFFFFF0000000000000000000000000000000000
310
00000000000000000000000000000000000000000000000000FFFFFFFFFFFF000000000000FFFFFF000000000000000000000000000000000000000000000000FFFFFF000000000000000000000000000000000000000000000000000000000000000000000000000000000000000000000000000000000000000000000000
310
00000000000000000000000000000000000000000000000000000000000000000000000000000000000000000000000000000000000000000000000000000000000000000000000000000000000000000000000000000000000000000000000000000000000000000000000000000000000000000000000000000000000000
310
0000000000000000000000000000000000000000000000000000000000000000000000000000000000000000000000000000000000000000000000000000000000000000000000000000FFFFFF000000000000000000000000000000000000000000000000FFFFFF000000000000FFFFFF0000000000000000000000000000
310
00000000000000000000000000000000000000000000000000000000FFFFFFFFFFFF000000000000000000000000FFFFFF000000000000000000000000000000000000000000000000000000000000000000000000000000000000000000000000000000000000000000FFFFFF000000000000000000000000000000000000
310
000000FFFFFF000000000000FFFFFF000000000000000000000000000000000000000000000000000000000000000000000000000000000000000000FFFFFF000000000000FFFFFFFFFFFFFFFFFFFFFFFFFFFFFFFFFFFF000000000000000000FFFFFF00000000000000000000000000000000000000000000000000000000
310
00000000000000000000000000000000000000000000000000000000000000000000000000000000000000000000000000000000000000000000000000000000000000000000000000000000000000000000000000000000000000000000000000000000000000000000000000000000000000000000000000000000000000
310
00000000000000000000000000000000000000000000000000000000000000000000000000000000000000000000000000000000000000000000000000000000000000000000000000000000000000000000000000000000000000000000000000000000000000000000FFFFFF000000000000000000000000000000000000
310
000000000000FFFFFF000000000000000000FFFFFF000000000000000000000000000000000000000000000000000000000000000000000000000000FFFFFF000000000000000000000000FFFFFFFFFFFF00000000000000000000000000000000000000000000000000000000000000000000000000000000000000000000
310
0000000000000000000000FFFFFF000000000000000000000000000000000000000000FFFFFF000000000000FFFFFFFFFFFF000000000000000000000000000000000000000000000000000000000000000000000000000000FFFFFF000000000000000000000000000000000000000000000000FFFFFF0000000000000000
310
00FFFFFF000000000000000000000000000000000000000000000000000000000000000000000000000000000000000000000000000000000000000000000000000000000000000000000000000000000000000000000000000000000000000000000000000000000000000000000000000000000000000000000000000000
310
00000000000000000000000000000000000000000000000000000000000000000000000000000000000000000000000000000000000000000000000000000000000000000000000000000000000000000000000000000000000000000000000000000000000000000000000000000000000000000000000000000000000000
310
0000000000000000000000000000FFFFFFFFFFFFFFFFFFFFFFFFFFFFFFFFFFFFFFFFFFFFFFFFFFFFFF000000000000000000FFFFFF000000000000000000000000000000000000000000000000000000000000000000000000000000FFFFFF000000000000000000000000FFFFFF0000000000000000000000000000000000
310
00000000000000000000000000000000000000000000000000000000000000000000000000000000000000FFFFFF000000000000000000000000000000000000000000FFFFFF000000000000000000FFFFFF000000000000000000000000000000000000000000000000000000000000000000000000000000FFFFFF000000
310
000000000000000000000000000000000000000000FFFFFF000000000000000000FFFFFF00000000000000000000000000000000000000000000000000000000000000000000000000000000000000000000000000000000000000000000000000000000000000000000000000000000000000000000000000000000000000
310
00000000000000000000000000000000000000000000000000000000000000000000000000000000000000000000000000000000000000000000000000000000000000000000000000000000000000000000000000000000000000000000000000000000000000000000000000000000000000000000000000000000000000
310
00000000000000000000000000000000000000000000000000000000000000000000000000000000000000000000000000000000000000000000000000000000000000000000000000000000000000FFFFFFFFFFFF000000000000000000000000000000000000000000000000000000000000000000000000000000FFFFFF
310
000000000000000000000000FFFFFFFFFFFF000000000000000000000000000000000000000000000000FFFFFF000000000000000000000000000000000000000000000000000000000000FFFFFF000000000000000000000000000000000000000000FFFFFF000000000000FFFFFF00000000000000000000000000000000
310
0000000000000000000000000000000000000000000000000000FFFFFFFFFFFF000000000000000000000000000000000000000000FFFFFF000000000000000000FFFFFF0000000000000000000000000000000000000000000000000000000000000000000000000000000000000000000000000000000000000000000000
310
00000000000000000000000000000000000000000000000000000000000000000000000000000000000000000000000000000000000000000000000000000000000000000000000000000000000000000000000000000000000000000000000000000000000000000000000000000000000000000000000000000000000000
310
000000000000000000000000000000000000000000000000000000000000000000000000000000000000000000000000000000000000000000000000000000000000000000000000000000FFFFFFFFFFFFFFFFFFFFFFFFFFFFFFFFFFFFFFFFFF000000FFFFFFFFFFFFFFFFFFFFFFFFFFFFFF00000000000000000000000000
310
0000000000000000000000000000000000000000000000000000000000000000FFFFFF000000000000000000000000FFFFFF000000000000000000000000000000000000000000000000FFFFFF0000000000000000000000000000000000000000000000000000000000000000000000000000000000000000000000000000
310
00000000FFFFFF000000000000FFFFFF000000000000000000000000000000000000000000000000000000000000000000000000000000000000000000FFFFFF000000000000000000000000000000000000000000FFFFFFFFFFFFFFFFFFFFFFFFFFFFFF000000000000000000000000000000000000000000000000000000
310
00000000000000000000000000000000000000000000000000000000000000000000000000000000000000000000000000000000000000000000000000000000000000000000000000000000000000000000000000000000000000000000000000000000000000000000000000000000000000000000000000000000000000
310
0000000000000000000000000000000000000000000000000000000000000000000000000000000000000000000000000000000000000000000000000000000000000000000000000000000000000000000000000000000000000000000000000000000000000000000000FFFFFFFFFFFF000000FFFFFFFFFFFF0000000000
310
00000000FFFFFFFFFFFF000000FFFFFFFFFFFF000000000000000000000000000000000000000000000000000000000000000000000000000000000000FFFFFFFFFFFF000000000000000000FFFFFFFFFFFF000000000000000000000000000000000000000000000000FFFFFF000000000000000000000000000000000000
310
000000000000000000000000000000000000000000000000000000000000000000000000FFFFFF000000000000FFFFFFFFFFFF000000000000000000000000000000000000000000000000000000000000000000000000000000FFFFFF00000000000000000000000000000000000000000000000000000000000000000000
310
00000000000000000000000000000000000000000000000000000000000000000000000000000000000000000000000000000000000000000000000000000000000000000000000000000000000000000000000000000000000000000000000000000000000000000000000000000000000000000000000000000000000000
310
00000000000000000000000000000000000000000000000000000000000000000000000000000000000000000000000000000000000000000000000000000000000000000000000000000000000000000000000000000000000000000000000000000000000000000000000000000000000000000000000000000000000000
310
000000000000000000000000FFFFFF000000000000000000FFFFFF000000000000000000FFFFFFFFFFFF000000FFFFFF000000FFFFFF000000000000000000000000000000000000000000000000000000000000000000000000000000FFFFFF000000000000000000000000FFFFFF00000000000000000000000000000000
310
0000000000000000000000FFFFFF000000000000000000000000000000000000000000000000000000000000000000000000000000000000000000000000000000000000FFFFFF000000000000000000FFFFFF000000000000000000000000000000000000000000000000000000000000000000000000000000FFFFFF0000
310
00000000000000000000000000000000000000000000000000000000000000000000000000000000000000000000000000000000000000000000000000000000000000000000000000000000000000000000000000000000000000000000000000000000000000000000000000000000000000000000000000000000000000
310
00000000000000000000000000000000000000000000000000000000000000000000000000000000000000000000000000000000000000000000000000000000000000000000000000000000000000000000000000000000000000000000000000000000000000000000000000000000000000000000000000000000000000
310
0000000000000000000000000000000000000000000000000000000000000000000000000000000000000000FFFFFF000000000000000000FFFFFF000000000000000000FFFFFF000000000000FFFFFFFFFFFFFFFFFF000000000000000000000000000000000000000000000000000000000000000000000000000000FFFF
310
FF000000000000000000000000FFFFFFFFFFFF000000000000000000000000000000000000000000000000FFFFFF000000000000000000000000000000000000000000000000000000000000000000000000000000000000000000000000000000000000FFFFFF000000000000000000FFFFFF000000000000000000000000
310
000000000000000000000000000000000000000000000000000000FFFFFFFFFFFF00000000000000000000000000000000000000000000000000000000000000000000000000000000000000000000000000000000000000000000000000000000000000000000000000000000000000000000000000000000000000000000
310
00000000000000000000000000000000000000000000000000000000000000000000000000000000000000000000000000000000000000000000000000000000000000000000000000000000000000000000000000000000000000000000000000000000000000000000000000000000000000000000000000000000000000
310
00000000000000000000000000000000000000000000000000000000000000000000000000000000000000000000000000000000000000000000000000000000000000000000000000000000FFFFFF000000000000000000FFFFFF000000000000000000FFFFFFFFFFFFFFFFFF000000FFFFFF000000000000000000000000
310
000000000000000000000000000000000000000000000000000000000000FFFFFF000000000000000000000000000000FFFFFF000000000000000000000000000000000000000000000000FFFFFF00000000000000000000000000000000000000000000000000000000000000000000000000000000000000000000000000
310
0000000000FFFFFF000000000000000000FFFFFF000000000000000000000000000000000000000000000000000000000000000000000000000000000000FFFFFF000000FFFFFFFFFFFFFFFFFFFFFFFFFFFFFFFFFFFFFFFFFFFFFFFFFFFFFFFFFFFFFFFFFFFFFFFFFFFFFF0000000000000000000000000000000000000000
310
00000000000000000000000000000000000000000000000000000000000000000000000000000000000000000000000000000000000000000000000000000000000000000000000000000000000000000000000000000000000000000000000000000000000000000000000000000000000000000000000000000000000000
310
000000000000000000000000000000000000000000000000000000000000000000000000000000000000000000000000000000000000000000000000000000000000000000000000000000000000000000000000000000000000000000000000000000000000000000000000FFFFFF000000FFFFFF000000FFFFFF00000000
310
0000000000000000000000000000000000FFFFFF000000000000000000000000000000000000000000000000000000000000000000000000000000000000FFFFFF000000000000000000000000FFFFFFFFFFFF000000000000000000000000000000000000000000000000FFFFFF0000000000000000000000000000000000
310
00000000000000000000000000000000000000000000000000000000000000000000000000FFFFFF000000000000000000FFFFFF000000000000000000000000000000000000000000000000000000000000000000000000000000FFFFFF000000000000FFFFFF000000000000000000000000000000000000000000000000
310
000000000000000000FFFFFF00000000000000000000000000000000000000000000000000000000000000000000000000000000000000000000000000000000000000000000000000000000000000000000000000000000000000000000000000000000000000000000000000000000000000000000000000000000000000
310
00000000000000000000000000000000000000000000000000000000000000000000000000000000000000000000000000000000000000000000000000000000000000000000000000000000000000000000000000000000000000000000000000000000000000000000000000000000000000000000000000000000000000
310
00000000000000000000000000FFFFFFFFFFFFFFFFFFFFFFFF000000000000000000000000000000000000000000000000000000FFFFFF000000000000000000000000000000000000000000000000000000000000000000000000000000FFFFFF000000000000000000000000FFFFFF000000000000000000000000000000
310
000000000000000000000000000000000000000000000000000000000000000000000000000000000000000000000000000000000000000000000000000000000000000000FFFFFF000000000000000000FFFFFF000000000000000000000000000000000000000000000000000000000000000000000000000000FFFFFF00
310
0000000000FFFFFFFFFFFFFFFFFFFFFFFFFFFFFFFFFFFFFFFFFFFFFFFFFFFFFFFFFFFFFFFFFF000000FFFFFF0000000000000000000000000000000000000000000000000000000000000000000000000000000000000000000000000000000000000000000000000000000000000000000000000000000000000000000000
310
00000000000000000000000000000000000000000000000000000000000000000000000000000000000000000000000000000000000000000000000000000000000000000000000000000000000000000000000000000000000000000000000000000000000000000000000000000000000000000000000000000000000000
310
000000000000000000000000000000000000000000000000000000000000000000000000000000000000000000000000000000000000000000000000000000000000000000000000000000000000000000FFFFFFFFFFFF000000000000000000000000000000000000000000000000000000000000000000000000000000FF
310
FFFF000000000000000000000000FFFFFFFFFFFF000000000000000000000000000000000000000000000000000000000000000000000000000000000000000000000000000000000000000000000000000000000000000000000000000000000000000000FFFFFF000000000000000000FFFFFF0000000000000000000000
310
00000000000000000000000000000000000000000000000000000000FFFFFFFFFFFF000000000000000000000000000000000000000000000000000000000000000000000000000000000000000000000000000000000000000000000000000000000000000000000000000000000000000000000000000000000000000000
310
00000000000000000000000000000000000000000000000000000000000000000000000000000000000000000000000000000000000000000000000000000000000000000000000000000000000000000000000000000000000000000000000000000000000000000000000000000000000000000000000000000000000000
310
0000000000000000000000000000000000000000000000000000000000000000000000000000000000000000000000000000000000000000000000000000000000000000000000000000000000000000000000000000000000000000000000000000000000000000000000000000000000FFFFFF0000000000000000000000
310
00000000000000000000000000000000000000000000000000000000000000FFFFFF000000000000000000000000000000FFFFFF000000000000000000000000000000000000000000000000000000000000000000000000000000000000000000000000000000000000000000000000000000000000000000000000000000
310
000000000000FFFFFF000000000000000000FFFFFF000000000000000000000000000000000000000000000000000000000000000000000000000000000000FFFFFF00000000000000000000000000000000000000000000000000000000000000000000000000000000000000000000000000000000000000000000000000
310
00000000000000000000000000000000000000000000000000000000000000000000000000000000000000000000000000000000000000000000000000000000000000000000000000000000000000000000000000000000000000000000000000000000000000000000000000000000000000000000000000000000000000
310
00000000000000000000000000000000000000000000000000000000000000000000000000000000000000000000000000000000000000000000000000000000000000000000000000000000000000000000000000000000000000000000000000000000000000000000000000000000000000000000FFFFFFFFFFFFFFFFFF
310
FFFFFFFFFFFFFFFFFFFFFFFF000000000000FFFFFF000000000000000000000000000000000000000000000000000000000000000000000000000000000000FFFFFF000000000000000000000000000000FFFFFF00000000000000000000000000000000000000000000000000000000000000000000000000000000000000
310
0000000000000000000000000000000000000000000000000000000000000000000000000000FFFFFF000000000000000000FFFFFF000000000000000000000000000000000000000000000000000000000000000000000000000000000000FFFFFF000000FFFFFFFFFFFFFFFFFFFFFFFFFFFFFFFFFFFFFFFFFF0000000000
310
00000000000000000000000000000000000000000000000000000000000000000000000000000000000000000000000000000000000000000000000000000000000000000000000000000000000000000000000000000000000000000000000000000000000000000000000000000000000000000000000000000000000000
310
00000000000000000000000000000000000000000000000000000000000000000000000000000000000000000000000000000000000000000000000000000000000000000000000000000000000000000000000000000000000000000000000000000000000000000000000000000000000000000000000000000000000000
310
0000000000000000000000000000000000FFFFFFFFFFFFFFFFFFFFFFFF000000FFFFFFFFFFFF000000FFFFFF000000000000000000FFFFFF000000000000000000000000000000000000000000000000000000000000000000000000000000FFFFFF000000000000000000000000FFFFFFFFFFFF0000000000000000000000
310
00000000000000000000000000000000000000000000000000000000000000000000000000000000000000000000FFFFFF000000000000000000000000000000000000000000FFFFFF000000000000000000FFFFFF000000000000000000000000000000000000000000000000000000FFFFFF000000000000000000FFFFFF
310
000000000000FFFFFFFFFFFF000000FFFFFFFFFFFF000000FFFFFF00000000000000000000000000000000000000000000000000000000000000000000000000000000000000000000000000000000000000000000000000000000000000000000000000000000000000000000000000000000000000000000000000000000
310
00000000000000000000000000000000000000000000000000000000000000000000000000000000000000000000000000000000000000000000000000000000000000000000000000000000000000000000000000000000000000000000000000000000000000000000000000000000000000000000000000000000000000
310
00000000000000000000000000000000000000000000000000000000000000000000000000000000000000000000FFFFFF000000000000000000000000000000000000000000000000FFFFFF000000000000000000FFFFFF000000000000000000000000000000000000000000000000000000000000000000000000000000
310
FFFFFF000000000000000000000000FFFFFF000000000000000000000000000000000000000000000000000000000000000000000000000000000000000000000000000000000000000000000000FFFFFF000000000000000000000000000000000000000000FFFFFF000000000000000000FFFFFF00000000000000000000
310
0000000000000000000000000000000000000000000000000000000000FFFFFF000000000000FFFFFFFFFFFFFFFFFFFFFFFF000000000000000000FFFFFF0000000000000000000000000000000000000000000000000000000000000000000000000000000000000000000000000000000000000000000000000000000000
310
00000000000000000000000000000000000000000000000000000000000000000000000000000000000000000000000000000000000000000000000000000000000000000000000000000000000000000000000000000000000000000000000000000000000000000000000000000000000000000000000000000000000000
310
000000000000000000000000000000000000000000000000000000000000000000000000000000000000000000000000000000000000000000000000000000000000000000000000000000000000FFFFFF000000000000FFFFFFFFFFFFFFFFFFFFFFFFFFFFFFFFFFFF000000000000000000FFFFFFFFFFFF00000000000000
310
0000000000000000000000000000000000000000000000000000000000000000FFFFFF000000000000000000000000FFFFFFFFFFFF000000000000000000000000000000000000000000000000000000000000000000000000000000000000000000000000000000000000000000FFFFFF0000000000000000000000000000
310
00000000000000FFFFFF000000000000000000FFFFFF000000000000000000000000000000000000000000000000000000000000000000000000000000FFFFFFFFFFFF000000000000000000000000000000FFFFFF000000000000FFFFFF000000000000000000000000000000000000000000000000000000000000000000
310
00000000000000000000000000000000000000000000000000000000000000000000000000000000000000000000000000000000000000000000000000000000000000000000000000000000000000000000000000000000000000000000000000000000000000000000000000000000000000000000000000000000000000
310
0000000000000000000000000000000000000000000000000000000000000000000000000000000000000000000000000000000000000000000000000000000000000000000000000000000000000000000000000000000000000000000000000000000000000000000000000000FFFFFF000000000000FFFFFF0000000000
310
00000000000000000000000000000000000000FFFFFF000000000000000000000000000000000000000000000000000000000000000000000000000000000000FFFFFF000000000000000000000000000000FFFFFF000000000000000000FFFFFF000000000000000000000000000000000000000000000000000000000000
310
000000000000000000000000000000FFFFFF000000000000000000000000000000000000000000FFFFFF000000000000000000FFFFFF000000000000000000000000000000000000000000000000000000000000000000000000000000000000FFFFFF000000000000000000000000000000FFFFFF000000000000FFFFFF00
310
00000000000000000000000000000000000000000000000000000000000000000000000000000000000000000000000000000000000000000000000000000000000000000000000000000000000000000000000000000000000000000000000000000000000000000000000000000000000000000000000000000000000000
310
00000000000000000000000000000000000000000000000000000000000000000000000000000000000000000000000000000000000000000000000000000000000000000000000000000000000000000000000000000000000000000000000000000000000000000000000000000000000000000000000000000000000000
310
000000000000000000000000000000FFFFFF000000000000FFFFFF000000000000000000000000000000000000000000000000FFFFFF000000000000000000000000000000000000000000000000000000000000000000000000000000000000FFFFFF000000000000000000000000FFFFFFFFFFFF000000000000000000FF
310
FFFF000000000000000000000000000000000000000000000000000000000000000000000000000000000000000000FFFFFF000000000000000000000000000000000000000000FFFFFF000000000000000000FFFFFF000000000000000000000000000000000000000000000000000000000000000000000000000000FFFF
310
FF000000000000000000000000000000000000FFFFFF000000000000FFFFFF000000000000000000000000000000000000000000000000000000000000000000000000000000000000000000000000000000000000000000000000000000000000000000000000000000000000000000000000000000000000000000000000
310
00000000000000000000000000000000000000000000000000000000000000000000000000000000000000000000000000000000000000000000000000000000000000000000000000000000000000000000000000000000000000000000000000000000000000000000000000000000000000000000000000000000000000
310
0000000000000000000000000000000000000000000000000000000000000000000000000000000000000000000000FFFFFF000000000000FFFFFF000000000000000000000000000000000000000000000000000000FFFFFF0000000000000000000000000000000000000000000000000000000000000000000000000000
310
00FFFFFF000000000000000000000000FFFFFF000000000000000000000000FFFFFF000000000000000000000000000000000000000000000000000000000000000000000000000000000000000000FFFFFF000000000000000000000000000000000000000000FFFFFF000000000000000000FFFFFF000000000000000000
310
000000000000000000000000000000000000000000000000000000000000FFFFFF000000000000000000000000000000000000FFFFFF000000000000FFFFFF00000000000000000000000000000000000000000000000000000000000000000000000000000000000000000000000000000000000000000000000000000000
310
00000000000000000000000000000000000000000000000000000000000000000000000000000000000000000000000000000000000000000000000000000000000000000000000000000000000000000000000000000000000000000000000000000000000000000000000000000000000000000000000000000000000000
310
00000000000000000000000000000000000000000000000000000000000000000000000000000000000000000000000000000000000000000000000000000000000000000000000000000000000000FFFFFF000000000000FFFFFF000000000000000000000000000000000000000000000000FFFFFFFFFFFF000000000000
310
000000000000000000000000000000000000000000000000000000000000000000FFFFFF000000000000000000000000FFFFFFFFFFFF000000000000000000FFFFFF000000000000000000000000000000000000000000000000000000000000000000000000000000000000000000FFFFFF00000000000000000000000000
310
0000000000000000FFFFFF000000000000000000FFFFFF000000000000000000000000000000000000000000000000000000000000000000000000000000FFFFFFFFFFFF000000000000000000000000000000FFFFFF000000000000FFFFFF0000000000000000000000000000000000000000000000000000000000000000
310
00000000000000000000000000000000000000000000000000000000000000000000000000000000000000000000000000000000000000000000000000000000000000000000000000000000000000000000000000000000000000000000000000000000000000000000000000000000000000000000000000000000000000
310
000000000000000000000000000000000000000000000000000000000000000000000000000000000000000000000000000000000000000000000000000000000000000000000000000000000000000000000000000000000000000000000000000000000000000000000000000000FFFFFF000000000000FFFFFF00000000
310
0000000000000000000000000000000000000000FFFFFF000000000000000000000000000000000000000000000000000000000000000000000000000000000000FFFFFF000000000000000000000000000000FFFFFF000000000000000000FFFFFF0000000000000000000000000000000000000000000000000000000000
310
00000000000000000000000000000000000000000000000000000000000000000000000000000000FFFFFF000000000000000000FFFFFF000000000000000000000000000000000000000000000000000000000000000000000000000000000000FFFFFF000000000000000000000000000000FFFFFF000000000000FFFFFF
310
00000000000000000000000000000000000000000000000000000000000000000000000000000000000000000000000000000000000000000000000000000000000000000000000000000000000000000000000000000000000000000000000000000000000000000000000000000000000000000000000000000000000000
310
00000000000000000000000000000000000000000000000000000000000000000000000000000000000000000000000000000000000000000000000000000000000000000000000000000000000000000000000000000000000000000000000000000000000000000000000000000000000000000000000000000000000000
310
00000000000000000000000000000000FFFFFF000000000000FFFFFF000000000000000000000000000000000000000000000000FFFFFF000000000000000000000000000000000000000000000000000000000000000000000000000000000000FFFFFF000000000000000000000000FFFFFFFFFFFF000000000000000000
310
FFFFFF000000000000000000000000000000000000000000000000000000000000000000000000000000000000000000000000000000000000000000000000000000000000000000FFFFFF000000000000000000FFFFFF000000000000000000000000000000000000000000000000000000000000000000000000000000FF
310
FFFF000000000000000000000000000000000000FFFFFF000000000000FFFFFF0000000000000000000000000000000000000000000000000000000000000000000000000000000000000000000000000000000000000000000000000000000000000000000000000000000000000000000000000000000000000000000000
310
00000000000000000000000000000000000000000000000000000000000000000000000000000000000000000000000000000000000000000000000000000000000000000000000000000000000000000000000000000000000000000000000000000000000000000000000000000000000000000000000000000000000000
310
000000000000000000000000000000000000000000000000000000000000000000000000000000000000000000000000FFFFFF000000000000FFFFFF000000000000000000000000000000000000000000000000000000FFFFFF00000000000000000000000000000000000000000000000000000000000000000000000000
310
0000FFFFFF000000000000000000000000FFFFFF000000000000000000000000FFFFFF000000000000000000000000000000000000000000000000000000000000000000000000000000000000000000000000000000000000000000000000000000000000000000FFFFFF000000000000000000FFFFFF0000000000000000
310
00000000000000000000000000000000000000000000000000000000000000FFFFFF000000000000000000000000000000000000FFFFFFFFFFFFFFFFFFFFFFFF000000000000000000000000000000000000000000000000000000000000000000000000000000000000000000000000000000000000000000000000000000
310
00000000000000000000000000000000000000000000000000000000000000000000000000000000000000000000000000000000000000000000000000000000000000000000000000000000000000000000000000000000000000000000000000000000000000000000000000000000000000000000000000000000000000
310
0000000000000000000000000000000000000000000000000000000000000000000000000000000000000000000000000000000000000000000000000000000000000000000000000000000000000000FFFFFFFFFFFFFFFFFF000000000000000000000000000000000000000000000000000000FFFFFFFFFFFF0000000000
310
00000000000000000000000000000000000000000000000000000000000000000000FFFFFF000000000000000000000000FFFFFFFFFFFF000000000000000000000000000000000000000000000000000000000000000000000000000000000000000000000000000000000000000000000000000000000000000000000000
310
000000000000000000FFFFFF000000000000000000FFFFFF000000000000000000000000000000000000000000000000000000000000000000000000000000FFFFFFFFFFFF00000000000000000000000000000000000000000000000000000000000000000000000000000000000000000000000000000000000000000000
310
00000000000000000000000000000000000000000000000000000000000000000000000000000000000000000000000000000000000000000000000000000000000000000000000000000000000000000000000000000000000000000000000000000000000000000000000000000000000000000000000000000000000000
310
00000000000000000000000000000000000000000000000000000000000000000000000000000000000000000000000000000000000000000000000000000000000000000000000000000000000000000000000000000000000000000000000000000000000000000000000000000000000000000000000000000000000000
310
000000000000000000000000000000000000000000FFFFFF000000000000000000000000000000000000000000000000000000000000000000000000000000000000FFFFFF000000000000000000000000000000FFFFFF00000000000000000000000000000000000000000000000000000000000000000000000000000000
310
0000000000000000000000000000000000000000000000000000000000000000000000000000000000000000000000000000000000FFFFFF000000000000000000000000000000000000000000000000000000000000000000000000000000000000FFFFFF0000000000000000000000000000000000000000000000000000
310
00000000000000000000000000000000000000000000000000000000000000000000000000000000000000000000000000000000000000000000000000000000000000000000000000000000000000000000000000000000000000000000000000000000000000000000000000000000000000000000000000000000000000
310
00000000000000000000000000000000000000000000000000000000000000000000000000000000000000000000000000000000000000000000000000000000000000000000000000000000000000000000000000000000000000000000000000000000000000000000000000000000000000000000000000000000000000
310
0000000000000000000000000000000000000000000000000000000000000000000000000000000000000000000000000000000000FFFFFFFFFFFFFFFFFFFFFFFFFFFFFFFFFFFFFFFFFFFFFFFFFFFFFFFFFFFFFFFFFFFFFFFFFFFFFFFFFFFF000000FFFFFF000000000000000000000000000000FFFFFFFFFFFFFFFFFFFFFF
310
FFFFFFFFFFFFFFFFFFFFFFFFFFFFFFFFFFFFFFFFFFFFFFFFFFFFFFFFFFFFFFFFFFFFFFFFFFFFFFFFFFFFFFFFFFFFFFFFFFFFFFFFFFFFFFFFFFFFFFFFFFFFFFFFFFFFFFFFFFFF000000000000000000000000000000000000FFFFFF000000000000FFFFFFFFFFFFFFFFFF000000FFFFFFFFFFFFFFFFFF000000000000FFFFFF
310
FFFFFFFFFFFF00000000000000000000000000000000000000000000000000000000000000000000000000000000000000000000000000000000000000000000000000000000000000000000000000000000000000000000000000000000000000000000000000000000000000000000000000000000000000000000000000
310
00000000000000000000000000000000000000000000000000000000000000000000000000000000000000000000000000000000000000000000000000000000000000000000000000000000000000000000000000000000000000000000000000000000000000000000000000000000000000000000000000000000000000
310
00000000000000000000000000000000000000000000000000000000000000000000000000000000000000000000000000000000000000000000000000000000000000000000000000000000000000000000000000000000000000000000000000000000000000000000000000000000000000000000000000000000000000
310
000000000000000000000000000000000000000000000000000000000000000000000000000000000000000000000000000000000000000000000000000000000000000000000000000000000000000000000000000000000000000000000000000000000000000000000000000000000000000000000000FFFFFFFFFFFFFF
310
FFFFFFFFFF000000FFFFFFFFFFFFFFFFFF000000FFFFFFFFFFFFFFFFFFFFFFFF0000000000000000000000000000000000000000000000000000000000000000000000000000000000000000000000000000000000000000000000000000000000000000000000000000000000000000000000000000000000000000000000
310
00000000000000000000000000000000000000000000000000000000000000000000000000000000000000000000000000000000000000000000000000000000000000000000000000000000000000000000000000000000000000000000000000000000000000000000000000000000000000000000000000000000000000
310
00000000000000000000000000000000000000000000000000000000000000000000000000000000000000000000000000000000000000000000000000000000000000000000000000000000000000000000000000000000000000000000000000000000000000000000000000000000000000000000000000000000000000
310
00000000000000000000000000000000000000000000000000000000000000000000000000000000000000000000000000000000000000000000000000000000000000000000000000000000000000000000000000000000000000000000000000000000000000000000000000000000000000000000000000000000000000
310
00000000000000000000000000000000000000000000000000000000FFFFFFFFFFFFFFFFFFFFFFFFFFFFFFFFFFFFFFFFFFFFFFFFFFFFFFFFFFFFFFFFFFFFFFFFFFFFFFFFFFFFFFFFFFFFFFFFFFFFFFFFFFFFFFFFFFFFFFFFFFFFFFFFFFFFFFFFFFFFFFFFFFFFFFFFFFFFFFFFFFFFFFFFFFFFFFFFFFFF000000000000000000
310
00000000000000000000000000000000000000000000000000000000000000000000000000000000000000000000000000000000000000000000000000000000000000000000000000000000000000000000000000000000000000000000000000000000000000000000000000000000000000000000000000000000000000
310
00000000000000000000000000000000000000000000000000000000000000000000000000000000000000000000000000000000000000000000000000000000000000000000000000000000000000000000000000000000000000000000000000000000000000000000000000000000000000000000000000000000000000
310
00000000000000000000000000000000000000000000000000000000000000000000000000000000000000000000000000000000000000000000000000000000000000000000000000000000000000000000000000FFFFFFFFFFFFFFFFFFFFFFFFFFFFFFFFFFFFFFFFFFFFFFFFFFFFFFFFFFFFFFFFFFFFFFFFFFFFFFFFFFFF
310
FFFFFFFFFFFFFFFFFFFFFFFFFFFFFFFFFFFFFFFFFFFFFFFFFFFFFFFFFFFFFFFFFFFFFFFFFFFFFFFFFFFFFFFFFF000000000000000000000000000000FFFFFF00000000000000000000000000000000000000000000000000000000000000000000000000000000000000000000000000000000000000000000000000000000
310
0000000000000000000000000000000000000000FFFFFF0000000000000000000000000000000000000000000000000000000000000000000000000000000000000000000000000000000000000000000000000000000000000000000000000000000000000000000000000000000000000000000000000000000000000000
310
00000000000000000000000000000000000000000000000000000000000000000000000000000000000000000000000000000000000000000000000000000000000000000000000000000000000000000000000000000000000000000000000000000000000000000000000000000000000000000000000000000000000000
310
000000000000000000000000000000000000000000000000000000FFFFFFFFFFFFFFFFFFFFFFFF000000FFFFFFFFFFFFFFFFFF000000000000FFFFFFFFFFFFFFFFFF000000FFFFFFFFFFFFFFFFFF000000000000FFFFFFFFFFFFFFFFFF000000FFFFFFFFFFFFFFFFFF000000000000000000000000FFFFFF00000000000000
310
0000000000000000000000000000000000000000000000000000000000000000000000000000000000000000000000000000000000000000000000000000000000000000000000000000FFFFFF000000000000000000000000000000FFFFFF0000000000000000000000000000000000000000000000000000000000000000
310
00000000000000000000000000000000000000000000000000000000000000000000000000000000000000000000000000000000FFFFFF000000000000000000000000000000000000000000000000000000000000000000000000000000000000000000000000000000000000000000000000000000000000000000000000
310
00000000000000000000000000000000000000000000000000000000000000000000000000000000000000000000000000000000000000000000000000000000000000000000000000000000000000000000000000000000000000000000000000000000000000000000000000000000000000000000000000000000000000
310
0000000000000000000000000000000000000000000000000000000000000000000000000000000000000000000000000000000000000000000000FFFFFF000000000000000000FFFFFFFFFFFF000000000000FFFFFFFFFFFFFFFFFF000000000000FFFFFFFFFFFF000000000000FFFFFFFFFFFFFFFFFF000000000000FFFF
310
FFFFFFFF000000FFFFFF000000FFFFFF000000000000FFFFFF000000000000FFFFFF000000000000000000000000000000000000000000000000000000000000000000000000000000000000000000000000000000000000000000000000000000000000000000000000FFFFFFFFFFFF000000000000000000000000FFFFFF
310
000000000000000000000000000000000000000000000000000000000000000000000000000000000000000000000000000000000000000000000000000000000000000000000000000000000000000000000000FFFFFF00000000000000000000000000000000000000000000000000000000000000000000000000000000
310
00000000000000000000000000000000000000000000000000000000000000000000000000000000000000000000000000000000000000000000000000000000000000000000000000000000000000000000000000000000000000000000000000000000000000000000000000000000000000000000000000000000000000
310
00000000000000000000000000000000000000000000000000000000000000000000000000000000000000000000000000000000000000000000000000000000000000000000000000000000000000000000000000FFFFFFFFFFFF000000000000000000000000000000000000000000000000000000000000000000000000
310
000000000000000000000000000000000000000000000000000000000000000000000000000000000000000000FFFFFF000000000000FFFFFF00000000000000000000000000000000000000000000000000000000000000000000000000000000000000000000000000000000000000000000000000000000000000000000
310
0000000000000000000000000000FFFFFF000000000000000000000000FFFFFF000000000000000000000000000000000000000000000000000000000000000000000000000000000000000000000000000000000000000000000000000000000000000000000000000000000000000000000000FFFFFF0000000000000000
310
00000000000000000000000000000000000000000000000000000000000000000000000000000000000000000000000000000000000000000000000000000000000000000000000000000000000000000000000000000000000000000000000000000000000000000000000000000000000000000000000000000000000000
310
000000000000000000000000000000000000000000000000000000000000000000000000000000000000000000000000000000000000000000000000000000000000000000000000000000000000000000000000000000000000000000000000000000000000000000000000000000000000000000FFFFFF00000000000000
310
0000000000000000000000000000000000000000000000000000000000000000000000000000000000000000000000000000000000000000000000000000000000000000000000000000000000000000FFFFFF000000FFFFFF000000000000FFFFFF0000000000000000000000000000000000000000000000000000000000
310
00000000000000000000000000000000000000000000000000000000000000000000000000000000000000FFFFFFFFFFFF000000000000000000000000FFFFFF000000000000000000000000000000000000000000000000000000000000000000000000000000000000000000000000000000000000000000000000000000
310
000000000000000000000000000000000000000000FFFFFF00000000000000000000000000000000000000000000000000000000000000000000000000000000000000000000000000000000000000000000000000000000000000000000000000000000000000000000000000000000000000000000000000000000000000
310
00000000000000000000000000000000000000000000000000000000000000000000000000000000000000000000000000000000000000000000000000000000000000000000000000000000000000000000000000000000000000000000000000000000000000000000000000000000000000000000000000000000000000
310
00000000000000000000000000000000000000000000FFFFFF000000000000000000000000000000000000000000000000000000000000000000000000000000000000000000000000000000000000000000000000000000000000000000000000000000000000000000000000FFFFFFFFFFFF000000FFFFFF000000000000
310
000000000000000000000000000000000000000000000000000000000000000000000000000000000000000000000000000000000000000000000000000000000000000000000000000000FFFFFF000000000000000000000000000000FFFFFF00000000000000000000000000000000000000000000000000000000000000
310
0000000000000000000000000000000000000000000000000000000000000000000000000000000000000000000000000000000000FFFFFF0000000000000000000000000000000000000000000000000000000000000000000000000000000000000000000000000000000000000000000000000000000000000000000000
310
00000000000000000000000000000000000000000000000000000000000000000000000000000000000000000000000000000000000000000000000000000000000000000000000000000000000000000000000000000000000000000000000000000000000000000000000000000000000000000000000000000000000000
310
000000000000000000000000000000000000000000000000000000000000000000000000000000000000000000000000000000000000000000FFFFFF00000000000000000000000000000000000000000000000000000000000000000000000000000000000000000000000000000000000000000000000000000000000000
310
0000000000000000000000000000FFFFFF000000000000FFFFFF000000000000FFFFFF000000000000000000000000000000000000000000000000000000000000000000000000000000000000000000000000000000000000000000000000000000000000000000000000FFFFFFFFFFFF000000000000000000000000FFFF
310
FF000000000000000000000000000000000000000000000000000000000000000000000000000000000000000000000000000000000000000000000000000000000000000000000000000000000000000000000000FFFFFF000000000000000000000000000000000000000000000000000000000000000000000000000000
310
00000000000000000000000000000000000000000000000000000000000000000000000000000000000000000000000000000000000000000000000000000000000000000000000000000000000000000000000000000000000000000000000000000000000000000000000000000000000000000000000000000000000000
310
0000000000000000000000000000000000000000000000000000000000000000000000000000000000000000000000000000000000000000000000000000000000000000000000000000000000000000000000000000000000FFFFFF0000000000000000000000000000000000000000000000000000000000000000000000
310
00000000000000000000000000000000000000000000000000000000000000000000000000000000000000000000FFFFFF000000000000FFFFFF000000000000000000000000000000000000000000000000000000000000000000000000000000000000000000000000000000000000000000000000000000000000000000
310
000000000000000000000000000000FFFFFF000000000000000000000000FFFFFF000000000000000000000000000000000000000000000000000000000000000000000000000000000000000000000000000000000000000000000000000000000000000000000000000000000000000000000000FFFFFF00000000000000
310
00000000000000000000000000000000000000000000000000000000000000000000000000000000000000000000000000000000000000000000000000000000000000000000000000000000000000000000000000000000000000000000000000000000000000000000000000000000000000000000000000000000000000
310
00000000000000000000000000000000000000000000000000000000000000000000000000000000000000000000000000000000000000000000000000000000000000000000000000000000000000000000000000000000000000000000000000000000000000000000000000000000000000000000FFFFFFFFFFFF000000
310
000000000000000000000000000000000000000000000000000000000000000000000000000000000000000000000000000000000000000000000000000000000000000000000000000000000000FFFFFF000000000000FFFFFF00000000000000000000000000000000000000000000000000000000000000000000000000
310
0000000000000000000000000000000000000000000000000000000000000000000000000000000000000000FFFFFFFFFFFF000000000000000000000000FFFFFF0000000000000000000000000000000000000000000000000000000000000000000000000000000000000000000000000000000000000000000000000000
310
00000000000000000000000000000000000000000000FFFFFF000000000000000000000000000000000000000000000000000000000000000000000000000000000000000000000000000000000000000000000000000000000000000000000000000000000000000000000000000000000000000000000000000000000000
310
00000000000000000000000000000000000000000000000000000000000000000000000000000000000000000000000000000000000000000000000000000000000000000000000000000000000000000000000000000000000000000000000000000000000000000000000000000000000000000000000000000000000000
310
0000000000000000000000000000000000000000000000FFFFFF000000000000000000000000000000000000000000000000000000000000000000FFFFFF000000000000000000000000000000000000000000000000000000000000000000000000000000000000000000000000000000FFFFFF000000FFFFFF0000000000
310
00000000000000000000000000000000000000000000000000000000000000000000000000000000000000000000000000000000000000000000000000000000000000000000000000000000FFFFFF000000000000000000000000000000FFFFFF000000000000000000000000000000000000000000000000000000000000
310
000000000000000000000000000000000000000000000000000000000000000000000000000000000000000000000000000000000000FFFFFF00000000000000000000000000000000000000000000000000000000000000000000000000000000000000000000000000000000000000000000000000000000000000000000
310
00000000000000000000000000000000000000000000000000000000000000000000000000000000000000000000000000000000000000000000000000000000000000000000000000000000000000000000000000000000000000000000000000000000000000000000000000000000000000000000000000000000000000
310
00000000000000000000000000000000000000000000000000000000000000000000000000000000000000000000000000000000000000FFFFFFFFFFFF000000000000000000000000000000000000000000000000000000000000000000000000000000000000000000000000000000000000000000000000000000000000
310
000000000000000000000000000000FFFFFFFFFFFF000000FFFFFF000000000000000000000000000000000000000000000000000000000000000000000000000000000000000000000000000000000000000000000000000000000000000000000000000000000000000000FFFFFF000000000000000000000000000000FF
310
FFFF000000000000000000000000000000000000000000000000000000000000000000000000000000000000000000000000000000000000000000000000000000000000000000000000000000000000000000000000FFFFFF0000000000000000000000000000000000000000000000000000000000000000000000000000
310
00000000000000000000000000000000000000000000000000000000000000000000000000000000000000000000000000000000000000000000000000000000000000000000000000000000000000000000000000000000000000000000000000000000000000000000000000000000000000000000000000000000000000
310
000000000000000000000000000000000000000000000000000000000000000000000000000000000000000000000000000000000000000000000000000000000000000000000000000000000000000000000000000000000000FFFFFF00000000000000000000000000000000000000000000000000000000000000000000
310
0000000000FFFFFF000000FFFFFF000000000000000000000000000000000000000000000000000000000000000000FFFFFF000000000000FFFFFF0000000000000000000000000000000000000000000000000000000000000000000000000000000000000000000000000000000000000000000000000000000000000000
310
00000000000000000000000000FFFFFFFFFFFF000000000000000000000000FFFFFF000000000000000000000000000000000000000000000000000000000000000000000000000000000000000000000000000000000000000000000000000000000000000000000000000000000000000000000000FFFFFF000000000000
310
00000000000000000000000000000000000000000000000000000000000000000000000000000000000000000000000000000000000000000000000000000000000000000000000000000000000000000000000000000000000000000000000000000000000000000000000000000000000000000000000000000000000000
310
0000000000000000000000000000000000000000000000000000000000000000000000000000000000000000000000000000000000000000000000000000000000000000000000000000000000000000000000000000000000000000000000000000000000000000000000000000000000000000000000FFFFFF0000000000
310
00000000000000000000000000000000000000000000000000000000000000000000000000000000000000000000000000000000000000000000000000000000000000000000000000000000000000FFFFFFFFFFFF000000FFFFFF000000000000000000000000000000000000000000000000000000000000000000000000
310
000000000000000000000000000000000000000000000000000000000000000000000000000000000000000000000000FFFFFF000000000000000000000000FFFFFF00000000000000000000000000000000000000000000000000000000000000000000000000000000000000000000000000000000000000000000000000
310
0000000000000000000000000000000000000000000000FFFFFF0000000000000000000000000000000000000000000000000000000000000000000000000000000000000000000000000000000000000000000000000000000000000000000000000000000000000000000000000000000000000000000000000000000000
310
00000000000000000000000000000000000000000000000000000000000000000000000000000000000000000000000000000000000000000000000000000000000000000000000000000000000000000000000000000000000000000000000000000000000000000000000000000000000000000000000000000000000000
310
000000000000000000000000000000000000000000000000000000000000000000000000000000000000000000000000000000000000000000000000000000000000000000000000000000000000000000000000000000000000000000000000000000000000000000000000000000000000000000000000FFFFFF00000000
310
0000FFFFFF000000000000000000000000FFFFFF000000000000000000000000000000000000000000000000000000000000000000000000FFFFFF000000000000000000000000FFFFFF000000FFFFFFFFFFFF000000000000000000000000FFFFFF0000000000000000000000000000000000000000000000000000000000
310
00000000000000000000000000000000000000000000000000000000000000000000000000000000000000000000000000000000000000FFFFFF000000000000000000000000000000000000000000000000000000000000000000000000000000000000000000000000000000000000000000000000000000000000000000
310
00000000000000000000000000000000000000000000000000000000000000000000000000000000000000000000000000000000000000000000000000000000000000000000000000000000000000000000000000000000000000000000000000000000000000000000000000000000000000000000000000000000000000
310
0000000000000000000000000000000000000000000000000000000000000000000000000000000000000000000000000000000000000000000000FFFFFFFFFFFFFFFFFFFFFFFFFFFFFFFFFFFFFFFFFFFFFFFFFFFFFFFFFFFFFFFFFFFFFFFFFFFFFFFFFFFFFFFFFFFFFFFFFFFFFFFFFFFFFFFFFFFFFFFFFFFFFFFFFFFFFFFF
310
FFFFFFFFFFFFFFFFFFFFFFFFFFFFFFFFFFFFFFFFFFFF000000000000FFFFFFFFFFFFFFFFFFFFFFFFFFFFFFFFFFFFFFFFFFFFFFFFFFFFFFFFFFFFFFFFFFFFFFFFFFFFFFFFFFFFFFFFFFFFFFFFFFFFFFFFFFFFFFFFFFFFFFFFFFFFFFFFFFFFFFFFFFFFFFFFFFFFFFFFFFFFFFFFFFFFFFFF000000000000000000000000000000
310
FFFFFF000000000000000000000000000000000000000000000000000000000000000000000000000000000000000000000000000000000000000000000000000000000000000000000000000000000000000000000000FFFFFF00000000000000000000000000000000000000000000000000000000000000000000000000
310
00000000000000000000000000000000000000000000000000000000000000000000000000000000000000000000000000000000000000000000000000000000000000000000000000000000000000000000000000000000000000000000000000000000000000000000000000000000000000000000000000000000000000
310
00000000000000000000000000000000000000000000000000000000000000000000000000000000000000000000000000000000000000000000000000000000000000000000000000000000000000000000000000000000000000000000000000000000000000000000000000000000000000000000000000000000000000
310
00000000000000000000000000000000000000000000000000000000000000000000000000000000000000000000000000000000000000000000000000000000000000000000000000000000000000000000000000000000000000000000000000000000000000000000000000000000000000000000000000000000000000
310
0000000000000000000000000000000000000000000000000000000000000000FFFFFF000000000000000000000000000000000000000000000000000000000000000000000000000000000000000000000000000000000000000000000000000000000000000000000000000000000000000000000000FFFFFF0000000000
310
00000000000000000000000000000000000000000000000000000000000000000000000000000000000000000000000000000000000000000000000000000000000000000000000000000000000000000000000000000000000000000000000000000000000000000000000000000000000000000000000000000000000000
310
00000000000000000000000000000000000000000000000000000000000000000000000000000000000000000000000000000000000000000000000000000000000000000000000000000000000000000000000000000000000000000000000000000000000000000000000000000000000000000000000000000000000000
310
00000000000000000000000000000000000000000000000000000000000000000000000000000000000000000000000000000000000000000000000000000000000000000000000000000000000000000000000000000000000000000000000000000000000000000000000000000000000000000000000000000000000000
310
00000000000000000000000000000000000000000000000000000000000000000000000000000000000000000000000000000000000000000000000000000000FFFFFF000000000000000000000000000000000000000000000000000000000000000000000000000000000000000000000000000000000000000000000000
310
000000000000000000000000000000000000000000000000FFFFFF00000000000000000000000000000000000000000000000000000000000000000000000000000000000000000000000000000000000000000000000000000000000000000000000000000000000000000000000000000000000000000000000000000000
310
00000000000000000000000000000000000000000000000000000000000000000000000000000000000000000000000000000000000000000000000000000000000000000000000000000000000000000000000000000000000000000000000000000000000000000000000000000000000000000000000000000000000000
310
00000000000000000000000000000000000000000000000000000000000000000000000000000000000000000000000000000000000000000000000000000000000000000000000000000000000000000000000000000000000000000000000000000000000000000000000000000000000000000000000000000000000000
310
000000000000000000000000000000000000000000000000000000000000000000000000000000000000000000000000000000000000000000000000000000000000000000000000000000000000000000000000000000000000000000000000FFFFFF000000000000000000FFFFFF000000000000000000FFFFFF00000000
310
0000000000000000000000000000000000000000000000000000000000000000FFFFFF000000000000000000000000FFFFFF000000000000FFFFFF0000000000000000000000000000000000000000000000000000000000000000000000000000000000000000000000000000000000000000000000000000000000000000
310
00000000000000000000000000000000000000000000000000000000000000000000000000000000000000000000000000000000000000000000000000000000000000000000000000000000000000000000000000000000000000000000000000000000000000000000000000000000000000000000000000000000000000
310
00000000000000000000000000000000000000000000000000000000000000000000000000000000000000000000000000000000000000000000000000000000000000000000000000000000000000000000000000000000000000000000000000000000000000000000000000000000000000000000000000000000000000
310
00000000000000000000000000000000000000000000000000000000000000000000000000000000000000000000000000000000000000000000000000000000000000000000000000000000000000000000000000000000000000000000000000000000000000000000000000000000000000000000000000000000000000
310
00FFFFFFFFFFFFFFFFFFFFFFFFFFFFFFFFFFFFFFFFFFFFFFFFFFFFFFFFFFFFFFFFFFFFFFFFFFFFFFFFFFFFFFFFFFFFFFFFFFFFFFFFFFFFFFFFFFFFFFFFFFFFFFFFFFFFFFFFFFFFFFFFFFFFFFFFFFFFFFFFFFFFFFFFFFFFFF000000000000000000000000000000000000000000000000000000000000000000000000000000
310
000000000000000000000000000000000000000000000000000000000000000000000000000000000000000000000000000000000000000000000000000000000000000000000000000000000000000000000000000000000000
  0
ENDSEC
  0
EOF
